<?xml version="1.0" encoding="utf-8"?>
<!-- Generator: Adobe Illustrator 28.1.0, SVG Export Plug-In . SVG Version: 6.00 Build 0)  -->
<svg version="1.1" id="Layer_1" xmlns="http://www.w3.org/2000/svg" xmlns:xlink="http://www.w3.org/1999/xlink" x="0px" y="0px"
	 viewBox="0 0 2234 792" style="enable-background:new 0 0 2234 792;" xml:space="preserve">
<style type="text/css">
	.st0{fill:none;stroke:#9F9F9F;stroke-width:2;stroke-miterlimit:9.9994;}
	.st1{fill:none;stroke:#9F9F9F;stroke-width:2;stroke-miterlimit:10;}
	.st2{fill:none;stroke:#9F9F9F;stroke-width:2;stroke-miterlimit:9.9992;}
	.st3{fill:none;stroke:#9F9F9F;stroke-width:2.0003;stroke-miterlimit:10.0032;}
	.st4{fill:none;stroke:#9F9F9F;stroke-width:2;stroke-miterlimit:9.9999;}
	.st5{fill:none;stroke:#9F9F9F;stroke-width:2;stroke-miterlimit:10.0007;}
</style>
<g>
	<g>
		<g>
			
				<ellipse transform="matrix(0.7071 -0.7071 0.7071 0.7071 218.5329 864.2262)" class="st0" cx="1152.5" cy="168.3" rx="95.2" ry="95.2"/>
			<path class="st1" d="M1152.5,73.8c52,0,94.5,42.4,94.5,94.5s-42.5,94.5-94.5,94.5s-94.5-42.4-94.5-94.5S1100.5,73.8,1152.5,73.8
				 M1152.5,72.3c-53,0-96,43.1-96,96s43,96,96,96s96-43.1,96-96S1205.5,72.3,1152.5,72.3L1152.5,72.3z"/>
		</g>
		<g>
			<circle class="st1" cx="1152.5" cy="168.3" r="11.2"/>
			<path class="st1" d="M1152.5,157.8c5.8,0,10.5,4.6,10.5,10.5s-4.7,10.5-10.5,10.5s-10.5-4.6-10.5-10.5S1146.7,157.8,1152.5,157.8
				 M1152.5,156.3c-6.6,0-12,5.4-12,12s5.4,12,12,12s12-5.4,12-12S1159.1,156.3,1152.5,156.3L1152.5,156.3z"/>
		</g>
	</g>
	<line class="st1" x1="1365" y1="433.8" x2="1366" y2="436.8"/>
	<g>
		<g>
			<circle class="st1" cx="896.5" cy="624.3" r="95.2"/>
			<path class="st1" d="M896.5,529.8c52,0,94.5,42.4,94.5,94.5s-42.5,94.5-94.5,94.5S802,676.4,802,624.3S844.5,529.8,896.5,529.8
				 M896.5,528.3c-53,0-96,43.1-96,96s43,96,96,96s96-43.1,96-96S949.5,528.3,896.5,528.3L896.5,528.3z"/>
		</g>
		<g>
			<circle class="st1" cx="896.5" cy="624.3" r="11.2"/>
			<path class="st1" d="M896.5,613.8c5.8,0,10.5,4.6,10.5,10.5s-4.7,10.5-10.5,10.5c-5.9,0-10.5-4.6-10.5-10.5
				S890.6,613.8,896.5,613.8 M896.5,612.3c-6.6,0-12,5.4-12,12s5.4,12,12,12s12-5.4,12-12S903.1,612.3,896.5,612.3L896.5,612.3z"/>
		</g>
	</g>
	<g>
		<g>
			
				<ellipse transform="matrix(0.7071 -0.7071 0.7071 0.7071 -28.8881 1178.7091)" class="st2" cx="1408.4" cy="624.2" rx="95.2" ry="95.2"/>
			<path class="st1" d="M1408.5,529.8c52.1,0,94.5,42.4,94.5,94.5s-42.4,94.5-94.5,94.5c-52,0-94.5-42.4-94.5-94.5
				S1356.5,529.8,1408.5,529.8 M1408.5,528.3c-53,0-96,43.1-96,96s43,96,96,96c52.9,0,96-43.1,96-96S1461.4,528.3,1408.5,528.3
				L1408.5,528.3z"/>
		</g>
		<g>
			<circle class="st1" cx="1408.5" cy="624.3" r="11.2"/>
			<path class="st1" d="M1408.5,613.8c5.8,0,10.5,4.6,10.5,10.5s-4.7,10.5-10.5,10.5s-10.5-4.6-10.5-10.5S1402.7,613.8,1408.5,613.8
				 M1408.5,612.3c-6.6,0-12,5.4-12,12s5.4,12,12,12s12-5.4,12-12S1415.1,612.3,1408.5,612.3L1408.5,612.3z"/>
		</g>
	</g>
	
		<rect x="762.4" y="299.7" transform="matrix(0.4894 -0.8721 0.8721 0.4894 177.9444 1095.3577)" class="st3" width="523.8" height="192"/>
	
		<rect x="1184.8" y="134.7" transform="matrix(0.8721 -0.4894 0.4894 0.8721 -30.227 677.5643)" class="st3" width="192" height="523.8"/>
</g>
<g>
	<g>
		<g>
			
				<ellipse transform="matrix(0.7071 -0.7071 0.7071 0.7071 42.8522 1362.0607)" class="st2" cx="1665.6" cy="629.3" rx="95.2" ry="95.2"/>
			<path class="st1" d="M1665.7,534.9c52.1,0,94.5,42.4,94.5,94.5s-42.4,94.5-94.5,94.5c-52,0-94.5-42.4-94.5-94.5
				S1613.7,534.9,1665.7,534.9 M1665.7,533.4c-53,0-96,43.1-96,96s43,96,96,96c52.9,0,96-43.1,96-96S1718.6,533.4,1665.7,533.4
				L1665.7,533.4z"/>
		</g>
		<g>
			<circle class="st1" cx="1665.7" cy="629.4" r="11.2"/>
			<path class="st1" d="M1665.7,618.9c5.8,0,10.5,4.6,10.5,10.5s-4.7,10.5-10.5,10.5s-10.5-4.6-10.5-10.5S1659.9,618.9,1665.7,618.9
				 M1665.7,617.4c-6.6,0-12,5.4-12,12s5.4,12,12,12s12-5.4,12-12S1672.3,617.4,1665.7,617.4L1665.7,617.4z"/>
		</g>
	</g>
	<g>
		<g>
			<circle class="st1" cx="1153.7" cy="628.6" r="95.2"/>
			<path class="st1" d="M1153.7,534.1c52,0,94.5,42.4,94.5,94.5s-42.5,94.5-94.5,94.5s-94.5-42.4-94.5-94.5
				S1101.7,534.1,1153.7,534.1 M1153.7,532.6c-53,0-96,43.1-96,96s43,96,96,96s96-43.1,96-96S1206.7,532.6,1153.7,532.6
				L1153.7,532.6z"/>
		</g>
		<g>
			<circle class="st1" cx="1153.7" cy="628.6" r="11.2"/>
			<path class="st1" d="M1153.7,618.1c5.8,0,10.5,4.6,10.5,10.5s-4.7,10.5-10.5,10.5c-5.9,0-10.5-4.6-10.5-10.5
				S1147.8,618.1,1153.7,618.1 M1153.7,616.6c-6.6,0-12,5.4-12,12s5.4,12,12,12s12-5.4,12-12S1160.3,616.6,1153.7,616.6
				L1153.7,616.6z"/>
		</g>
	</g>
	<g>
		<g>
			
				<ellipse transform="matrix(0.7071 -0.7071 0.7071 0.7071 292.2868 1046.6666)" class="st2" cx="1409.6" cy="170.5" rx="95.2" ry="95.2"/>
			<path class="st1" d="M1409.7,76.1c52.1,0,94.5,42.4,94.5,94.5s-42.4,94.5-94.5,94.5c-52,0-94.5-42.4-94.5-94.5
				S1357.7,76.1,1409.7,76.1 M1409.7,74.6c-53,0-96,43.1-96,96s43,96,96,96c52.9,0,96-43.1,96-96S1462.6,74.6,1409.7,74.6
				L1409.7,74.6z"/>
		</g>
		<g>
			<circle class="st1" cx="1409.7" cy="170.6" r="11.2"/>
			<path class="st1" d="M1409.7,160.1c5.8,0,10.5,4.6,10.5,10.5s-4.7,10.5-10.5,10.5s-10.5-4.6-10.5-10.5S1403.9,160.1,1409.7,160.1
				 M1409.7,158.6c-6.6,0-12,5.4-12,12s5.4,12,12,12s12-5.4,12-12S1416.3,158.6,1409.7,158.6L1409.7,158.6z"/>
		</g>
	</g>
	<g>
		<g>
			
				<ellipse transform="matrix(0.7071 -0.7071 0.7071 0.7071 142.8635 684.503)" class="st1" cx="897.7" cy="169.8" rx="95.2" ry="95.2"/>
			<path class="st1" d="M897.7,75.3c52,0,94.5,42.4,94.5,94.5s-42.5,94.5-94.5,94.5s-94.5-42.4-94.5-94.5S845.7,75.3,897.7,75.3
				 M897.7,73.8c-53,0-96,43.1-96,96s43,96,96,96s96-43.1,96-96S950.7,73.8,897.7,73.8L897.7,73.8z"/>
		</g>
		<g>
			<circle class="st1" cx="897.7" cy="169.8" r="11.2"/>
			<path class="st1" d="M897.7,159.3c5.8,0,10.5,4.6,10.5,10.5s-4.7,10.5-10.5,10.5c-5.9,0-10.5-4.6-10.5-10.5
				S891.8,159.3,897.7,159.3 M897.7,157.8c-6.6,0-12,5.4-12,12s5.4,12,12,12s12-5.4,12-12S904.3,157.8,897.7,157.8L897.7,157.8z"/>
		</g>
	</g>
	<rect x="897.7" y="73.8" class="st1" width="512" height="192"/>
	<rect x="1153.7" y="532.8" class="st1" width="512" height="192"/>
	
		<rect x="1019.9" y="303.1" transform="matrix(0.4894 -0.8721 0.8721 0.4894 306.4534 1321.646)" class="st3" width="523.8" height="192"/>
</g>
<g>
	<g>
		<g>
			
				<ellipse transform="matrix(0.7071 -0.7071 0.7071 0.7071 293.8976 1045.9316)" class="st1" cx="1409.5" cy="168.2" rx="95.2" ry="95.2"/>
			<path class="st1" d="M1409.5,73.7c52,0,94.5,42.4,94.5,94.5s-42.5,94.5-94.5,94.5s-94.5-42.4-94.5-94.5S1357.5,73.7,1409.5,73.7
				 M1409.5,72.2c-53,0-96,43.1-96,96s43,96,96,96s96-43.1,96-96S1462.5,72.2,1409.5,72.2L1409.5,72.2z"/>
		</g>
		<g>
			<circle class="st1" cx="1409.5" cy="168.2" r="11.2"/>
			<path class="st1" d="M1409.5,157.7c5.8,0,10.5,4.6,10.5,10.5s-4.7,10.5-10.5,10.5s-10.5-4.6-10.5-10.5S1403.7,157.7,1409.5,157.7
				 M1409.5,156.2c-6.6,0-12,5.4-12,12s5.4,12,12,12s12-5.4,12-12S1416.1,156.2,1409.5,156.2L1409.5,156.2z"/>
		</g>
	</g>
	<g>
		<g>
			<circle class="st1" cx="1153.5" cy="624.2" r="95.2"/>
			<path class="st1" d="M1153.5,529.7c52,0,94.5,42.4,94.5,94.5s-42.5,94.5-94.5,94.5s-94.5-42.4-94.5-94.5
				S1101.5,529.7,1153.5,529.7 M1153.5,528.2c-53,0-96,43.1-96,96s43,96,96,96s96-43.1,96-96S1206.5,528.2,1153.5,528.2
				L1153.5,528.2z"/>
		</g>
		<g>
			<circle class="st1" cx="1153.5" cy="624.2" r="11.2"/>
			<path class="st1" d="M1153.5,613.7c5.8,0,10.5,4.6,10.5,10.5s-4.7,10.5-10.5,10.5c-5.9,0-10.5-4.6-10.5-10.5
				S1147.6,613.7,1153.5,613.7 M1153.5,612.2c-6.6,0-12,5.4-12,12s5.4,12,12,12s12-5.4,12-12S1160.1,612.2,1153.5,612.2
				L1153.5,612.2z"/>
		</g>
	</g>
	
		<rect x="1019.6" y="299.7" transform="matrix(0.4894 -0.8721 0.8721 0.4894 309.2953 1319.5508)" class="st3" width="523.8" height="192"/>
	<g>
		<g>
			<ellipse class="st4" cx="1153.5" cy="624.1" rx="95.2" ry="95.2"/>
			<path class="st1" d="M1153.5,529.7c52.1,0,94.5,42.4,94.5,94.5s-42.4,94.5-94.5,94.5c-52,0-94.5-42.4-94.5-94.5
				S1101.5,529.7,1153.5,529.7 M1153.5,528.2c-53,0-96,43.1-96,96s43,96,96,96c52.9,0,96-43.1,96-96S1206.4,528.2,1153.5,528.2
				L1153.5,528.2z"/>
		</g>
		<g>
			<circle class="st1" cx="1153.5" cy="624.2" r="11.2"/>
			<path class="st1" d="M1153.5,613.7c5.8,0,10.5,4.6,10.5,10.5s-4.7,10.5-10.5,10.5s-10.5-4.6-10.5-10.5S1147.7,613.7,1153.5,613.7
				 M1153.5,612.2c-6.6,0-12,5.4-12,12s5.4,12,12,12s12-5.4,12-12S1160.1,612.2,1153.5,612.2L1153.5,612.2z"/>
		</g>
	</g>
	<g>
		<g>
			<circle class="st1" cx="641.5" cy="623.4" r="95.2"/>
			<path class="st1" d="M641.5,528.9c52,0,94.5,42.4,94.5,94.5s-42.5,94.5-94.5,94.5S547,675.5,547,623.4S589.5,528.9,641.5,528.9
				 M641.5,527.4c-53,0-96,43.1-96,96s43,96,96,96s96-43.1,96-96S694.5,527.4,641.5,527.4L641.5,527.4z"/>
		</g>
		<g>
			<ellipse class="st5" cx="641.6" cy="623.2" rx="11.2" ry="11.2"/>
			<path class="st1" d="M641.5,612.9c5.8,0,10.5,4.6,10.5,10.5s-4.7,10.5-10.5,10.5c-5.9,0-10.5-4.6-10.5-10.5
				S635.6,612.9,641.5,612.9 M641.5,611.4c-6.6,0-12,5.4-12,12s5.4,12,12,12s12-5.4,12-12S648.1,611.4,641.5,611.4L641.5,611.4z"/>
		</g>
	</g>
	<rect x="641.5" y="527.5" class="st1" width="512" height="192"/>
</g>
</svg>
