<?xml version="1.0" encoding="utf-8"?>
<!-- Generator: Adobe Illustrator 27.7.0, SVG Export Plug-In . SVG Version: 6.00 Build 0)  -->
<svg version="1.1" id="Layer_1" xmlns="http://www.w3.org/2000/svg" xmlns:xlink="http://www.w3.org/1999/xlink" x="0px" y="0px"
	 viewBox="0 0 1920 1080" style="enable-background:new 0 0 1920 1080;" xml:space="preserve">
<style type="text/css">
	.st0{fill:none;stroke:#000000;stroke-miterlimit:10;}
	.st1{fill:#FFFFFF;}
	.st2{fill:#1F26FF;stroke:#D40035;stroke-miterlimit:10;}
</style>
<polygon class="st0" points="1639.6,168 1344,680 1935.2,680 "/>
<g>
	<g>
		<circle class="st1" cx="128" cy="528" r="63.5"/>
		<path d="M128,465c34.7,0,63,28.3,63,63s-28.3,63-63,63s-63-28.3-63-63S93.3,465,128,465 M128,464c-35.3,0-64,28.7-64,64
			s28.7,64,64,64s64-28.7,64-64S163.3,464,128,464L128,464z"/>
	</g>
	<g>
		<circle class="st1" cx="128" cy="528" r="7.5"/>
		<path d="M128,521c3.9,0,7,3.1,7,7s-3.1,7-7,7c-3.9,0-7-3.1-7-7S124.1,521,128,521 M128,520c-4.4,0-8,3.6-8,8s3.6,8,8,8s8-3.6,8-8
			S132.4,520,128,520L128,520z"/>
	</g>
</g>
<path class="st2" d="M1119.6,736.3l0.4-0.3L824,223.3l-0.7,0.4c-11.1-19-31.7-31.7-55.3-31.7c-23.8,0-44.5,13-55.6,32.3L712,224
	L416,736.7l0.1,0.1C411,746,408,756.7,408,768c0,35.3,28.7,64,64,64c25.3,0,47.2-14.7,57.6-36l238.6-413.3L1005,792.8
	c9.7,23,32.5,39.2,59,39.2c35.3,0,64-28.7,64-64C1128,756.4,1124.9,745.6,1119.6,736.3z"/>
</svg>
