<?xml version="1.0" encoding="utf-8"?>
<!-- Generator: Adobe Illustrator 28.1.0, SVG Export Plug-In . SVG Version: 6.00 Build 0)  -->
<svg version="1.1" id="Layer_1" xmlns="http://www.w3.org/2000/svg" xmlns:xlink="http://www.w3.org/1999/xlink" x="0px" y="0px"
	 viewBox="0 0 1258 650" style="enable-background:new 0 0 1258 650;" xml:space="preserve">
<style type="text/css">
	.st0{fill:none;stroke:#00ABD8;stroke-width:2;stroke-miterlimit:10;}
	.st1{fill:none;stroke:#00ABD8;stroke-miterlimit:10.0036;}
	.st2{fill:none;stroke:#00ABD8;stroke-miterlimit:10;}
	.st3{fill:none;stroke:#00ABD8;stroke-width:1;stroke-miterlimit:9.9998;}
	.st4{fill:none;stroke:#00ABD8;stroke-miterlimit:9.9998;}
</style>
<g>
	<line class="st0" x1="852.9" y1="362.8" x2="853.9" y2="365.8"/>
	<g>
		<line class="st1" x1="640.9" y1="5" x2="640.9" y2="185"/>
		<line class="st1" x1="550.9" y1="95" x2="730.9" y2="95"/>
		<circle class="st2" cx="640.9" cy="95" r="90"/>
		<circle class="st2" cx="640.9" cy="95" r="9"/>
	</g>
	<rect x="234.9" y="239.8" transform="matrix(0.5 -0.866 0.866 0.5 -33.1985 602.1456)" class="st3" width="540" height="180"/>
	<g>
		<line class="st1" x1="910.9" y1="473" x2="910.9" y2="653"/>
		<line class="st1" x1="820.9" y1="563" x2="1000.9" y2="563"/>
		<circle class="st2" cx="910.9" cy="563" r="90"/>
		<circle class="st2" cx="910.9" cy="563" r="9"/>
	</g>
	<g>
		<line class="st1" x1="370.9" y1="473" x2="370.9" y2="653"/>
		<line class="st1" x1="280.9" y1="563" x2="460.9" y2="563"/>
		<circle class="st2" cx="370.9" cy="563" r="90"/>
		<circle class="st2" cx="370.9" cy="563" r="9"/>
	</g>
	<rect x="686.4" y="59.9" transform="matrix(0.866 -0.5 0.5 0.866 -60.9314 432.422)" class="st3" width="180" height="540"/>
</g>
<g>
	<rect x="506.8" y="239.9" transform="matrix(0.5 -0.866 0.866 0.5 102.6831 837.685)" class="st4" width="540" height="180"/>
	<g>
		<line class="st1" x1="912.9" y1="4" x2="912.9" y2="184"/>
		<line class="st1" x1="822.9" y1="94" x2="1002.9" y2="94"/>
		<circle class="st2" cx="912.9" cy="94" r="90"/>
		<circle class="st2" cx="912.9" cy="94" r="9"/>
	</g>
	<g>
		<line class="st1" x1="643.9" y1="472" x2="643.9" y2="652"/>
		<line class="st1" x1="553.9" y1="562" x2="733.9" y2="562"/>
		<circle class="st2" cx="643.9" cy="562" r="90"/>
		<circle class="st2" cx="643.9" cy="562" r="9"/>
	</g>
	<rect x="103.9" y="472" class="st2" width="540" height="180"/>
	<g>
		<line class="st1" x1="103.9" y1="472" x2="103.9" y2="652"/>
		<line class="st1" x1="13.9" y1="562" x2="193.9" y2="562"/>
		<circle class="st2" cx="103.9" cy="562" r="90"/>
		<circle class="st2" cx="103.9" cy="562" r="9"/>
	</g>
</g>
<g>
	<g>
		<g>
			<line class="st1" x1="372.1" y1="3.7" x2="372.1" y2="182.9"/>
			<line class="st1" x1="282.1" y1="93.3" x2="462.1" y2="93.3"/>
			<ellipse class="st2" cx="372.1" cy="93.3" rx="90" ry="89.6"/>
			<ellipse class="st2" cx="372.1" cy="93.3" rx="9" ry="9"/>
		</g>
		<g>
			<line class="st1" x1="912.1" y1="3.8" x2="912.1" y2="183"/>
			<line class="st1" x1="822.1" y1="93.4" x2="1002.1" y2="93.4"/>
			<ellipse class="st2" cx="912.1" cy="93.4" rx="90" ry="89.6"/>
			<ellipse class="st2" cx="912.1" cy="93.4" rx="9" ry="9"/>
		</g>
		<rect x="372.1" y="3" class="st2" width="540" height="179.2"/>
	</g>
	<g>
		<g>
			<line class="st1" x1="643.1" y1="473.5" x2="643.1" y2="652.7"/>
			<line class="st1" x1="553.1" y1="563.1" x2="733.1" y2="563.1"/>
			<ellipse class="st2" cx="643.1" cy="563.1" rx="90" ry="89.6"/>
			<ellipse class="st2" cx="643.1" cy="563.1" rx="9" ry="9"/>
		</g>
		<g>
			<line class="st1" x1="1183.1" y1="473.6" x2="1183.1" y2="652.8"/>
			<line class="st1" x1="1093.1" y1="563.2" x2="1273.1" y2="563.2"/>
			<ellipse class="st2" cx="1183.1" cy="563.2" rx="90" ry="89.6"/>
			<ellipse class="st2" cx="1183.1" cy="563.2" rx="9" ry="9"/>
		</g>
		<rect x="643.1" y="472.8" class="st2" width="540" height="179.2"/>
	</g>
	<rect x="506.9" y="240" transform="matrix(0.5 -0.866 0.866 0.5 102.6224 837.7933)" class="st4" width="539.8" height="180"/>
</g>
</svg>
