<?xml version="1.0" encoding="utf-8"?>
<!-- Generator: Adobe Illustrator 27.7.0, SVG Export Plug-In . SVG Version: 6.00 Build 0)  -->
<svg version="1.1" id="Layer_1" xmlns="http://www.w3.org/2000/svg" xmlns:xlink="http://www.w3.org/1999/xlink" x="0px" y="0px"
	 viewBox="0 0 1920 1080" style="enable-background:new 0 0 1920 1080;" xml:space="preserve">
<style type="text/css">
	.st0{fill:#FF1549;stroke:#000000;stroke-miterlimit:10;}
	.st1{fill:#FF1549;}
</style>
<circle class="st0" cx="1836.5" cy="900.5" r="108"/>
<circle class="st0" cx="755.5" cy="180.5" r="108"/>
<circle class="st0" cx="757.5" cy="899.6" r="108"/>
<circle class="st0" cx="973.5" cy="899.5" r="108"/>
<circle class="st0" cx="1405.5" cy="900.5" r="108"/>
<rect x="1405.5" y="790.5" class="st0" width="432" height="216"/>
<circle class="st0" cx="1190.5" cy="891.5" r="108"/>
<line class="st1" x1="721.5" y1="899.5" x2="937.5" y2="179.5"/>
<circle class="st0" cx="542" cy="899.7" r="108"/>
<circle class="st0" cx="109" cy="901.7" r="108"/>
<line class="st0" x1="1190.5" y1="899.5" x2="974.5" y2="179.5"/>
<circle class="st0" cx="974.5" cy="180.5" r="108"/>
<rect x="978.1" y="168.9" transform="matrix(0.9581 -0.2863 0.2863 0.9581 -110.3345 333.7436)" class="st0" width="216" height="750.5"/>
<circle class="st0" cx="1189.5" cy="179.5" r="108"/>
<rect x="1190.5" y="71.5" class="st0" width="432" height="216"/>
<rect x="275.2" y="423.7" transform="matrix(0.2863 -0.9581 0.9581 0.2863 -45.2701 1002.7273)" class="st0" width="750.5" height="216"/>
<rect x="489.2" y="436.7" transform="matrix(0.2863 -0.9581 0.9581 0.2863 95.0045 1217.0469)" class="st0" width="750.5" height="216"/>
<circle class="st0" cx="1619.2" cy="179.1" r="108"/>
<circle class="st0" cx="1405.7" cy="898.4" r="108"/>
<rect x="1138.9" y="422.4" transform="matrix(0.2863 -0.9581 0.9581 0.2863 572.4363 1829.2748)" class="st0" width="750.5" height="216"/>
<rect x="109.5" y="792.5" class="st0" width="432" height="216"/>
</svg>
