<?xml version="1.0" encoding="utf-8"?>
<!-- Generator: Adobe Illustrator 28.1.0, SVG Export Plug-In . SVG Version: 6.00 Build 0)  -->
<svg version="1.1" id="Layer_1" xmlns="http://www.w3.org/2000/svg" xmlns:xlink="http://www.w3.org/1999/xlink" x="0px" y="0px"
	 viewBox="0 0 1258 650" style="enable-background:new 0 0 1258 650;" xml:space="preserve">
<style type="text/css">
	.st0{fill:#A9A5C6;}
	.st1{fill:#4A668C;}
	.st2{fill:#A8A5C6;stroke:#9F9F9F;stroke-width:1;stroke-miterlimit:9.9996;}
	.st3{fill:none;stroke:#9F9F9F;stroke-miterlimit:10.0036;}
	.st4{fill:#A8A5C6;stroke:#9F9F9F;stroke-miterlimit:10;}
	.st5{fill:none;}
	.st6{fill:none;stroke:#231F20;stroke-miterlimit:10;}
	.st7{fill:#4A668C;stroke:#FFFFFF;stroke-miterlimit:10;}
	.st8{fill:#4A668C;stroke:#FFFFFF;stroke-width:0.25;stroke-miterlimit:10;}
</style>
<rect x="630" y="335" class="st0" width="362.7" height="90"/>
<rect x="267.3" y="335" class="st0" width="362.7" height="90"/>
<rect x="447.3" y="20" class="st0" width="362.7" height="90"/>
<circle class="st1" cx="810" cy="380" r="45"/>
<g>
	<rect x="-416.2" y="235.9" transform="matrix(0.5 -0.866 0.866 0.5 -355.3635 36.3034)" class="st2" width="540" height="180"/>
	<g>
		<line class="st3" x1="-10.1" y1="0" x2="-10.1" y2="180"/>
		<line class="st3" x1="-100.1" y1="90" x2="79.9" y2="90"/>
		<circle class="st4" cx="-10.1" cy="90" r="90"/>
		<circle class="st4" cx="-10.1" cy="90" r="9"/>
	</g>
	<g>
		<line class="st3" x1="-279.1" y1="468" x2="-279.1" y2="648"/>
		<line class="st3" x1="-369.1" y1="558" x2="-189.1" y2="558"/>
		<circle class="st4" cx="-279.1" cy="558" r="90"/>
		<circle class="st4" cx="-279.1" cy="558" r="9"/>
	</g>
	<rect x="-819.1" y="468" class="st4" width="540" height="180"/>
	<g>
		<line class="st3" x1="-819.1" y1="468" x2="-819.1" y2="648"/>
		<line class="st3" x1="-909.1" y1="558" x2="-729.1" y2="558"/>
		<circle class="st4" cx="-819.1" cy="558" r="90"/>
		<circle class="st4" cx="-819.1" cy="558" r="9"/>
	</g>
</g>
<g>
	<g>
		<g>
			<line class="st3" x1="1200" y1="0.6" x2="1200" y2="180.6"/>
			<line class="st3" x1="1110" y1="90.6" x2="1290" y2="90.6"/>
			<circle class="st4" cx="1200" cy="90.6" r="90"/>
			<circle class="st4" cx="1200" cy="90.6" r="9"/>
		</g>
		<g>
			<line class="st3" x1="1740" y1="0.7" x2="1740" y2="180.7"/>
			<line class="st3" x1="1650" y1="90.7" x2="1830" y2="90.7"/>
			<circle class="st4" cx="1740" cy="90.7" r="90"/>
			<circle class="st4" cx="1740" cy="90.7" r="9"/>
		</g>
		<rect x="1200" y="-0.1" class="st4" width="540" height="180"/>
	</g>
	<g>
		<g>
			<line class="st3" x1="1470" y1="469.4" x2="1470" y2="649.4"/>
			<line class="st3" x1="1380" y1="559.4" x2="1560" y2="559.4"/>
			<circle class="st4" cx="1470" cy="559.4" r="90"/>
			<circle class="st4" cx="1470" cy="559.4" r="9"/>
		</g>
		<g>
			<line class="st3" x1="2010" y1="469.5" x2="2010" y2="649.5"/>
			<line class="st3" x1="1920" y1="559.5" x2="2100" y2="559.5"/>
			<circle class="st4" cx="2010" cy="559.5" r="90"/>
			<circle class="st4" cx="2010" cy="559.5" r="9"/>
		</g>
		<rect x="1470" y="468.7" class="st4" width="540" height="180"/>
	</g>
	<rect x="1349.7" y="213.4" transform="matrix(0.5 -0.866 0.866 0.5 547.1028 1554.3507)" class="st2" width="540" height="180"/>
</g>
<line class="st1" x1="839.7" y1="359.6" x2="840.7" y2="362.6"/>
<polygon class="st0" points="1098.5,506.7 1202.4,686.7 1306.3,506.7 1202.4,326.7 "/>
<line class="st5" x1="1002.8" y1="-354.3" x2="1003.8" y2="-351.3"/>
<g>
	<line class="st1" x1="-12.1" y1="647.9" x2="-12.1" y2="827.9"/>
	<line class="st1" x1="-102.1" y1="737.9" x2="77.9" y2="737.9"/>
	<circle class="st1" cx="-12.1" cy="737.9" r="90"/>
	<circle class="st1" cx="-12.1" cy="737.9" r="9"/>
</g>
<polygon class="st0" points="1182.8,562.6 1286.7,742.6 1390.6,562.6 1286.7,382.6 "/>
<g>
	<line class="st1" x1="780.4" y1="-330.8" x2="781.4" y2="-327.8"/>
	<g>
		<line class="st1" x1="568.4" y1="-688.6" x2="568.4" y2="-508.6"/>
		<line class="st1" x1="478.4" y1="-598.6" x2="658.4" y2="-598.6"/>
		<circle class="st1" cx="568.4" cy="-598.6" r="90"/>
		<circle class="st1" cx="568.4" cy="-598.6" r="9"/>
	</g>
	<rect x="162.3" y="-453.8" transform="matrix(0.5 -0.866 0.866 0.5 531.2165 192.4823)" class="st1" width="540" height="180"/>
	<g>
		<line class="st1" x1="838.4" y1="-220.6" x2="838.4" y2="-40.6"/>
		<line class="st1" x1="748.4" y1="-130.6" x2="928.4" y2="-130.6"/>
		<circle class="st1" cx="838.4" cy="-130.6" r="90"/>
		<circle class="st1" cx="838.4" cy="-130.6" r="9"/>
	</g>
	<g>
		<line class="st1" x1="298.4" y1="-220.6" x2="298.4" y2="-40.6"/>
		<line class="st1" x1="208.4" y1="-130.6" x2="388.4" y2="-130.6"/>
		<circle class="st1" cx="298.4" cy="-130.6" r="90"/>
		<circle class="st1" cx="298.4" cy="-130.6" r="9"/>
	</g>
	<rect x="613.8" y="-633.7" transform="matrix(0.866 -0.5 0.5 0.866 276.1499 303.1979)" class="st1" width="180" height="540"/>
</g>
<line class="st1" x1="105.7" y1="460.8" x2="105.7" y2="640.8"/>
<line class="st1" x1="15.7" y1="550.8" x2="195.7" y2="550.8"/>
<circle class="st1" cx="105.7" cy="550.8" r="9"/>
<circle class="st1" cx="630" cy="65" r="45"/>
<circle class="st1" cx="450" cy="380" r="45"/>
<line class="st1" x1="450" y1="380" x2="630" y2="65"/>
<line class="st1" x1="810" y1="380" x2="630" y2="65"/>
<rect x="370" y="566.9" class="st6" width="360" height="90"/>
<rect x="539" y="176" transform="matrix(0.497 0.8678 -0.8678 0.497 553.4518 -512.7546)" class="st1" width="360" height="90"/>
<line class="st1" x1="630" y1="20" x2="630" y2="110"/>
<line class="st1" x1="585" y1="65" x2="675" y2="65"/>
<circle class="st1" cx="630" cy="65" r="2"/>
<rect x="359.3" y="177.2" transform="matrix(0.497 -0.8678 0.8678 0.497 79.1683 580.9094)" class="st1" width="362.7" height="90"/>
<circle class="st7" cx="115.7" cy="143.9" r="45"/>
<line class="st1" x1="145.4" y1="123.5" x2="146.4" y2="126.5"/>
<circle class="st7" cx="-64.3" cy="-171.1" r="45"/>
<circle class="st7" cx="-244.3" cy="143.9" r="45"/>
<line class="st7" x1="-244.3" y1="143.9" x2="-64.3" y2="-171.1"/>
<line class="st7" x1="115.7" y1="143.9" x2="-64.3" y2="-171.1"/>
<rect x="-155.3" y="-60.1" transform="matrix(0.497 0.8678 -0.8678 0.497 -0.6855 -29.0336)" class="st7" width="360" height="90"/>
<line class="st8" x1="-64.3" y1="-216.1" x2="-64.3" y2="-126.1"/>
<line class="st8" x1="-109.3" y1="-171.1" x2="-19.3" y2="-171.1"/>
<circle class="st8" cx="-64.3" cy="-171.1" r="2"/>
<rect x="-335" y="-58.9" transform="matrix(0.497 -0.8678 0.8678 0.497 -65.1953 -140.3477)" class="st7" width="362.7" height="90"/>
<rect x="539.1" y="178.2" transform="matrix(0.497 -0.8678 0.8678 0.497 168.6787 737.4509)" class="st0" width="362.7" height="90"/>
<circle class="st0" cx="810" cy="65" r="45"/>
<circle class="st0" cx="630" cy="380" r="45"/>
<circle class="st0" cx="270" cy="380" r="45"/>
<circle class="st0" cx="450" cy="65" r="45"/>
<circle class="st0" cx="990" cy="380" r="45"/>
<circle class="st1" cx="630" cy="380" r="45"/>
</svg>
