<?xml version="1.0" encoding="utf-8"?>
<!-- Generator: Adobe Illustrator 27.7.0, SVG Export Plug-In . SVG Version: 6.00 Build 0)  -->
<svg version="1.1" id="Layer_1" xmlns="http://www.w3.org/2000/svg" xmlns:xlink="http://www.w3.org/1999/xlink" x="0px" y="0px"
	 viewBox="0 0 2011 1080" style="enable-background:new 0 0 2011 1080;" xml:space="preserve">
<style type="text/css">
	.st0{opacity:0.1091;fill:#ED1C24;enable-background:new    ;}
	.st1{fill:#27A58C;stroke:#000000;stroke-width:3;stroke-miterlimit:10;}
	.st2{fill:none;stroke:#000000;stroke-width:3;stroke-miterlimit:10;}
</style>
<g>
	<g>
		<g>
			<path class="st0" d="M59-21.1c9.7,0.9,19.4,1.9,29.1,2.8c1-0.1,1.4-0.6,1.4-1.6c-0.5-1.6-1.4-2.9-2.8-3.9c-2.1-2.1-4.4-4-6.7-5.9
				c-1.2-1.2-2.6-2-4.2-2.2C66.5-33,57.2-34.1,48-35.3c-1,0-1.5,0.5-1.5,1.5c0.3,1.6,1.1,2.9,2.4,4c1.9,2.2,4,4.2,6.2,6.2
				C56.1-22.3,57.4-21.4,59-21.1z"/>
			<path class="st0" d="M49.8-27.8c9.5,0.7,19.1,1.6,28.6,2.6c1-0.1,1.4-0.6,1.3-1.6c-0.6-1.6-1.6-3-3.1-4c-2.3-2.1-4.8-4.2-7.3-6.1
				c-1.3-1.3-2.8-2-4.5-2.3c-9.2-1.1-18.5-2.2-27.7-3.4c-1,0-1.5,0.5-1.4,1.5c0.5,1.7,1.4,3.1,2.8,4.2c2.2,2.3,4.5,4.4,6.9,6.5
				C46.7-29,48.1-28.1,49.8-27.8z"/>
			<path class="st0" d="M53.5-36.6c9.7,0.9,19.5,1.8,29.2,2.5c1.1,0.1,2.8-1,2.9-2.1c0.1-1-1.4-3.3-2.5-3.4
				c-9.8-0.6-19.7-1.5-29.4-2.8c-1.1-0.1-2.8,0.9-2.9,2.1C50.7-39.2,52.4-36.7,53.5-36.6z"/>
			<path class="st0" d="M57-32c9.6,0.8,19.2,1.7,28.8,2.7c4.7,0.5-2.2-7.3-2.2-7.4c-2.8-3.5-5.8-6.9-8.8-10.2
				c-1.5-2-3.3-3.5-5.4-4.6c-9.1-1.3-18.2-2.4-27.3-3.6c-4.6-0.6,1.5,7.3,1.7,7.5c2.6,3.6,5.3,7.2,8.1,10.7
				C53.2-34.8,54.9-33.2,57-32z"/>
			<path class="st0" d="M61.3-37.3c9.3,0.4,18.6,1.1,27.9,2.1c1.2,0.1,2.9-0.4,3-1.9c-0.1-0.9-0.5-1.7-1-2.5c-0.4-0.8-1-1.5-1.8-2
				c-9.8-1-19.6-1.8-29.5-2.3c-0.7,0.1-1.3,0.5-1.8,1c-0.5,0.6-0.5,1.3-0.1,1.9c0.4,1,0.9,1.9,1.5,2.7C60-37.5,60.6-37.2,61.3-37.3z
				"/>
			<path class="st0" d="M47.3-28.3c9.7,0.8,19.4,1.7,29.1,2.4c1.2,0.1,2.6-1.5,2.4-2.6c-0.1-1.2-2.3-3.1-3.5-3.2
				c-9.8-0.7-19.5-1.6-29.3-2.6c-1.2-0.1-2.6,1.5-2.4,2.6C43.8-30.4,46.1-28.4,47.3-28.3z"/>
			<path class="st0" d="M53-19.1c9.6,0.9,19.2,1.8,28.8,2.8c1.9,0.2,3-1.2,2-2.9c-1.2-1.3-2.5-2.4-4-3.3c-1.4-1-2.9-1.9-4.5-2.6
				C65.9-26,56.6-27,47.2-28.2c-0.9-0.3-1.6-0.1-2.2,0.6c-0.5,0.7-0.5,1.5-0.1,2.2c1.1,1.3,2.3,2.5,3.7,3.6
				C50-20.8,51.5-19.9,53-19.1z"/>
			<path class="st0" d="M63-32.3c9.6,0.9,19.3,1.9,28.9,2.9c3.9,0.4-0.1-5.5-0.5-6.2c-1.9-2.8-3.9-5.6-6-8.2c-1-1.6-2.3-2.9-4-3.6
				c-9.1-1.1-18.1-2.3-27.2-3.5c-3.8-0.5-0.5,5.2,0,6.1c1.6,3,3.3,5.8,5.2,8.6C60.2-34.5,61.4-33.2,63-32.3z"/>
			<path class="st0" d="M49.9-33.1c9.5,0.5,19,1.3,28.4,2.3c1.4,0.1,2.8-1.1,2.5-2.6c-0.5-1-1.1-1.8-1.9-2.6
				c-0.7-0.8-1.6-1.4-2.6-1.9c-9.3-1-18.7-1.8-28-2.5c-1.4-0.1-2.8,0.8-2.7,2.4c0.4,1,1,1.9,1.8,2.7C48.1-34.3,48.9-33.6,49.9-33.1z
				"/>
			<path class="st0" d="M54.2-38.2c9.6,1.1,19.3,2.1,28.9,3c0.9,0,1.5-0.4,1.6-1.3c-0.1-1.5-0.7-2.8-1.8-3.9
				c-1.6-2.2-3.3-4.3-5.1-6.2c-0.9-1.3-2.1-2.1-3.5-2.5c-9.4-0.8-18.8-2.1-28.1-3.8c-0.9-0.1-1.5,0.3-1.7,1.2c0,1.5,0.6,2.9,1.6,4.1
				c1.5,2.3,3.1,4.5,4.8,6.7C51.7-39.7,52.8-38.7,54.2-38.2z"/>
			<path class="st0" d="M62.1-26.4c9.7,0.9,19.3,1.8,29,2.8c4.2,0.4-1.1-6.1-1.3-6.3c-2.2-2.8-4.6-5.5-7.1-8.1
				c-1.2-1.6-2.7-2.8-4.5-3.5c-9-1.3-18.1-2.5-27.2-3.6c-4-0.5,0.4,5.9,0.7,6.3c2,2.9,4.1,5.8,6.3,8.6C59-28.5,60.4-27.3,62.1-26.4z
				"/>
			<path class="st0" d="M48-23.8c9.4,0.4,18.8,1.1,28.2,2.2c1.4,0.1,2.5-1.7,2.1-2.9c-0.6-0.9-1.4-1.6-2.3-2.2
				c-0.8-0.7-1.8-1.2-2.8-1.5c-9.2-1-18.4-1.8-27.7-2.2c-1.4-0.1-2.6,1.5-2.3,2.8c0.5,0.9,1.2,1.7,2.1,2.3
				C46.1-24.6,47-24.1,48-23.8z"/>
		</g>
	</g>
</g>
<circle class="st1" cx="736" cy="789" r="96"/>
<circle class="st1" cx="1248" cy="789" r="96"/>
<circle class="st1" cx="992" cy="342" r="96"/>
<line class="st2" x1="736" y1="789" x2="1248" y2="789"/>
<line class="st2" x1="640" y1="-136" x2="640" y2="1144"/>
<line class="st2" x1="1344" y1="1144" x2="1344" y2="-284"/>
<line class="st2" x1="992" y1="345.6" x2="1248" y2="789"/>
<line class="st2" x1="736" y1="789" x2="992" y2="345.6"/>
<line class="st2" x1="944.9" y1="874.9" x2="951" y2="874.9"/>
<rect x="767.3" y="314.3" transform="matrix(0.866 0.5 -0.5 0.866 400.7032 -354.8478)" class="st1" width="190.5" height="512.1"/>
<rect x="1024.7" y="311.3" transform="matrix(-0.866 0.5 -0.5 -0.866 2373.5972 498.5916)" class="st1" width="190.5" height="512.1"/>
<circle class="st1" cx="544" cy="792" r="96"/>
<circle class="st1" cx="32" cy="792" r="96"/>
<circle class="st1" cx="1440" cy="792" r="96"/>
<circle class="st1" cx="1952" cy="792" r="96"/>
<circle class="st1" cx="768" cy="344" r="96"/>
<circle class="st1" cx="1736" cy="344" r="96"/>
<circle class="st1" cx="1216" cy="344" r="96"/>
<rect x="32" y="696" class="st1" width="520" height="192"/>
<rect x="1440" y="696" class="st1" width="520" height="192"/>
<rect x="1208" y="248" class="st1" width="520" height="192"/>
<rect x="551.3" y="298.6" transform="matrix(0.866 0.5 -0.5 0.866 363.9385 -248.9448)" class="st1" width="190.5" height="512.1"/>
<rect x="1474.2" y="314.6" transform="matrix(0.866 0.5 -0.5 0.866 495.5952 -708.2946)" class="st1" width="190.5" height="512.1"/>
</svg>
