<?xml version="1.0" encoding="utf-8"?>
<!-- Generator: Adobe Illustrator 28.1.0, SVG Export Plug-In . SVG Version: 6.00 Build 0)  -->
<svg version="1.1" id="Layer_1" xmlns="http://www.w3.org/2000/svg" xmlns:xlink="http://www.w3.org/1999/xlink" x="0px" y="0px"
	 viewBox="0 0 800 440" style="enable-background:new 0 0 800 440;" xml:space="preserve">
<style type="text/css">
	.st0{fill:#436C6D;stroke:#FFFFFF;stroke-miterlimit:10;}
	.st1{fill:none;stroke:#FFFFFF;stroke-miterlimit:10;}
	.st2{fill:#4C688E;stroke:#FFFFFF;stroke-miterlimit:10;}
	.st3{fill:#6FA289;stroke:#FFFFFF;stroke-miterlimit:10;}
	.st4{fill:none;stroke:#63BC46;stroke-width:5;stroke-miterlimit:10;}
	.st5{fill:none;stroke:#FFFFFF;stroke-width:5;stroke-miterlimit:10;}
</style>
<g>
	<rect x="78.2" y="290" class="st0" width="321.9" height="140"/>
	<line class="st1" x1="77.9" y1="360.2" x2="400.7" y2="360.2"/>
	<line class="st1" x1="238.8" y1="290" x2="240.2" y2="430"/>
</g>
<g>
	<rect x="399.8" y="290" class="st0" width="321.9" height="140"/>
	<line class="st1" x1="399.5" y1="360.2" x2="722.2" y2="360.2"/>
	<line class="st1" x1="560.4" y1="290" x2="561.8" y2="430"/>
</g>
<g>
	<circle class="st0" cx="77.5" cy="360" r="70"/>
	<g>
		<line class="st1" x1="77.2" y1="290" x2="77.2" y2="430"/>
		<line class="st1" x1="7.3" y1="360.4" x2="147.3" y2="360.4"/>
	</g>
</g>
<g>
	<circle class="st0" cx="722.7" cy="359.7" r="70"/>
	<g>
		<line class="st1" x1="722.5" y1="289.7" x2="722.5" y2="429.7"/>
		<line class="st1" x1="652.5" y1="360.1" x2="792.5" y2="360.1"/>
	</g>
</g>
<circle class="st0" cx="562.5" cy="80.2" r="70"/>
<circle class="st0" cx="399.6" cy="356" r="70"/>
<rect x="322" y="146.4" transform="matrix(0.5 -0.866 0.866 0.5 53.5701 525.664)" class="st0" width="320" height="140"/>
<circle class="st0" cx="399.7" cy="356" r="70"/>
<circle class="st2" cx="563.1" cy="80.2" r="70"/>
<rect x="322.1" y="148.5" transform="matrix(0.5 -0.866 0.866 0.5 51.7716 526.7249)" class="st2" width="320" height="140"/>
<circle class="st0" cx="239.6" cy="80.2" r="70"/>
<rect x="322" y="148.1" transform="matrix(0.5 -0.866 0.866 0.5 52.1415 526.431)" class="st2" width="320" height="140"/>
<circle class="st0" cx="562.5" cy="80.2" r="70"/>
<g>
	<rect x="238.4" y="10.5" class="st0" width="322" height="140"/>
	<line class="st1" x1="238.1" y1="80.7" x2="560.9" y2="80.7"/>
	<line class="st1" x1="399" y1="10.5" x2="400.4" y2="150.5"/>
</g>
<g>
	<rect x="238.6" y="290" class="st1" width="322" height="140"/>
	<line class="st1" x1="238.3" y1="360.2" x2="561.1" y2="360.2"/>
	<line class="st1" x1="399.2" y1="290" x2="400.6" y2="430"/>
</g>
<polygon class="st1" points="399.7,80.7 238.3,360.2 561.1,360.2 "/>
<g>
	<line class="st1" x1="239.1" y1="10.3" x2="239.1" y2="150.3"/>
	<line class="st1" x1="169.2" y1="80.7" x2="309.2" y2="80.7"/>
</g>
<g>
	<line class="st1" x1="560.9" y1="10.3" x2="560.9" y2="150.3"/>
	<line class="st1" x1="491" y1="80.7" x2="631" y2="80.7"/>
</g>
<g>
	<rect x="157.8" y="150.8" transform="matrix(0.5 -0.866 0.866 0.5 -31.8612 386.4596)" class="st3" width="322" height="140"/>
	<line class="st1" x1="238.3" y1="360.6" x2="399.7" y2="81"/>
	<line class="st1" x1="258" y1="186.1" x2="379.9" y2="254.9"/>
</g>
<g>
	<rect x="410.2" y="59.8" transform="matrix(0.866 -0.5 0.5 0.866 -46.0871 269.6703)" class="st3" width="140" height="322"/>
	<line class="st1" x1="399.4" y1="81.2" x2="560.8" y2="360.8"/>
	<line class="st1" x1="540.7" y1="185.4" x2="420.1" y2="256.7"/>
</g>
<g>
	<circle class="st3" cx="560.8" cy="360" r="70"/>
	<g>
		<line class="st1" x1="560.6" y1="290" x2="560.6" y2="430"/>
		<line class="st1" x1="490.7" y1="360.4" x2="630.7" y2="360.4"/>
	</g>
</g>
<g>
	<circle class="st3" cx="239.8" cy="360" r="70"/>
	<g>
		<line class="st1" x1="239.5" y1="290" x2="239.5" y2="430"/>
		<line class="st1" x1="169.6" y1="360.4" x2="309.6" y2="360.4"/>
	</g>
</g>
<g>
	<circle class="st3" cx="400.5" cy="80.2" r="70"/>
	<g>
		<line class="st1" x1="400.2" y1="10.2" x2="400.2" y2="150.2"/>
		<line class="st1" x1="330.3" y1="80.6" x2="470.3" y2="80.6"/>
	</g>
</g>
<rect x="322" y="148.1" transform="matrix(0.5 -0.866 0.866 0.5 52.1713 526.4816)" class="st0" width="320" height="140"/>
<line class="st4" x1="238.1" y1="81.2" x2="594.7" y2="81.2"/>
<line class="st5" x1="74.7" y1="360.8" x2="364.7" y2="360.8"/>
<line class="st5" x1="364.7" y1="360.8" x2="508.8" y2="91"/>
<line class="st5" x1="433.3" y1="351.8" x2="594.7" y2="72.2"/>
<line class="st5" x1="430.3" y1="359.7" x2="721.7" y2="359.7"/>
</svg>
