<?xml version="1.0" encoding="utf-8"?>
<!-- Generator: Adobe Illustrator 28.1.0, SVG Export Plug-In . SVG Version: 6.00 Build 0)  -->
<svg version="1.1" id="Layer_1" xmlns="http://www.w3.org/2000/svg" xmlns:xlink="http://www.w3.org/1999/xlink" x="0px" y="0px"
	 viewBox="0 0 2234 792" style="enable-background:new 0 0 2234 792;" xml:space="preserve">
<style type="text/css">
	.st0{fill:none;stroke:#9F9F9F;stroke-width:2;stroke-miterlimit:9.9992;}
	.st1{fill:none;stroke:#9F9F9F;stroke-width:2;stroke-miterlimit:10;}
	.st2{fill:none;stroke:#9F9F9F;stroke-width:2.0003;stroke-miterlimit:10.0032;}
	.st3{fill:none;stroke:#9F9F9F;stroke-width:2;stroke-miterlimit:9.9999;}
	.st4{fill:none;stroke:#9F9F9F;stroke-width:2;stroke-miterlimit:10.0007;}
</style>
<g>
	<g>
		<g>
			
				<ellipse transform="matrix(0.7071 -0.7071 0.7071 0.7071 42.8522 1362.0607)" class="st0" cx="1665.6" cy="629.3" rx="95.2" ry="95.2"/>
			<path class="st1" d="M1665.7,534.9c52.1,0,94.5,42.4,94.5,94.5s-42.4,94.5-94.5,94.5c-52,0-94.5-42.4-94.5-94.5
				S1613.7,534.9,1665.7,534.9 M1665.7,533.4c-53,0-96,43.1-96,96s43,96,96,96c52.9,0,96-43.1,96-96S1718.6,533.4,1665.7,533.4
				L1665.7,533.4z"/>
		</g>
		<g>
			<circle class="st1" cx="1665.7" cy="629.4" r="11.2"/>
			<path class="st1" d="M1665.7,618.9c5.8,0,10.5,4.6,10.5,10.5s-4.7,10.5-10.5,10.5s-10.5-4.6-10.5-10.5S1659.9,618.9,1665.7,618.9
				 M1665.7,617.4c-6.6,0-12,5.4-12,12s5.4,12,12,12s12-5.4,12-12S1672.3,617.4,1665.7,617.4L1665.7,617.4z"/>
		</g>
	</g>
	<g>
		<g>
			<circle class="st1" cx="1153.7" cy="628.6" r="95.2"/>
			<path class="st1" d="M1153.7,534.1c52,0,94.5,42.4,94.5,94.5s-42.5,94.5-94.5,94.5s-94.5-42.4-94.5-94.5
				S1101.7,534.1,1153.7,534.1 M1153.7,532.6c-53,0-96,43.1-96,96s43,96,96,96s96-43.1,96-96S1206.7,532.6,1153.7,532.6
				L1153.7,532.6z"/>
		</g>
		<g>
			<circle class="st1" cx="1153.7" cy="628.6" r="11.2"/>
			<path class="st1" d="M1153.7,618.1c5.8,0,10.5,4.6,10.5,10.5s-4.7,10.5-10.5,10.5c-5.9,0-10.5-4.6-10.5-10.5
				S1147.8,618.1,1153.7,618.1 M1153.7,616.6c-6.6,0-12,5.4-12,12s5.4,12,12,12s12-5.4,12-12S1160.3,616.6,1153.7,616.6
				L1153.7,616.6z"/>
		</g>
	</g>
	<g>
		<g>
			
				<ellipse transform="matrix(0.7071 -0.7071 0.7071 0.7071 292.2868 1046.6666)" class="st0" cx="1409.6" cy="170.5" rx="95.2" ry="95.2"/>
			<path class="st1" d="M1409.7,76.1c52.1,0,94.5,42.4,94.5,94.5s-42.4,94.5-94.5,94.5c-52,0-94.5-42.4-94.5-94.5
				S1357.7,76.1,1409.7,76.1 M1409.7,74.6c-53,0-96,43.1-96,96s43,96,96,96c52.9,0,96-43.1,96-96S1462.6,74.6,1409.7,74.6
				L1409.7,74.6z"/>
		</g>
		<g>
			<circle class="st1" cx="1409.7" cy="170.6" r="11.2"/>
			<path class="st1" d="M1409.7,160.1c5.8,0,10.5,4.6,10.5,10.5s-4.7,10.5-10.5,10.5s-10.5-4.6-10.5-10.5S1403.9,160.1,1409.7,160.1
				 M1409.7,158.6c-6.6,0-12,5.4-12,12s5.4,12,12,12s12-5.4,12-12S1416.3,158.6,1409.7,158.6L1409.7,158.6z"/>
		</g>
	</g>
	<g>
		<g>
			
				<ellipse transform="matrix(0.7071 -0.7071 0.7071 0.7071 142.8635 684.503)" class="st1" cx="897.7" cy="169.8" rx="95.2" ry="95.2"/>
			<path class="st1" d="M897.7,75.3c52,0,94.5,42.4,94.5,94.5s-42.5,94.5-94.5,94.5s-94.5-42.4-94.5-94.5S845.7,75.3,897.7,75.3
				 M897.7,73.8c-53,0-96,43.1-96,96s43,96,96,96s96-43.1,96-96S950.7,73.8,897.7,73.8L897.7,73.8z"/>
		</g>
		<g>
			<circle class="st1" cx="897.7" cy="169.8" r="11.2"/>
			<path class="st1" d="M897.7,159.3c5.8,0,10.5,4.6,10.5,10.5s-4.7,10.5-10.5,10.5c-5.9,0-10.5-4.6-10.5-10.5
				S891.8,159.3,897.7,159.3 M897.7,157.8c-6.6,0-12,5.4-12,12s5.4,12,12,12s12-5.4,12-12S904.3,157.8,897.7,157.8L897.7,157.8z"/>
		</g>
	</g>
	<rect x="897.7" y="73.8" class="st1" width="512" height="192"/>
	<rect x="1153.7" y="532.8" class="st1" width="512" height="192"/>
	
		<rect x="1019.9" y="303.1" transform="matrix(0.4894 -0.8721 0.8721 0.4894 306.4534 1321.646)" class="st2" width="523.8" height="192"/>
</g>
<g>
	<g>
		<g>
			
				<ellipse transform="matrix(0.7071 -0.7071 0.7071 0.7071 371.8072 1234.0221)" class="st1" cx="1675.5" cy="168.2" rx="95.2" ry="95.2"/>
			<path class="st1" d="M1675.5,73.7c52,0,94.5,42.4,94.5,94.5s-42.5,94.5-94.5,94.5s-94.5-42.4-94.5-94.5S1623.5,73.7,1675.5,73.7
				 M1675.5,72.2c-53,0-96,43.1-96,96s43,96,96,96s96-43.1,96-96S1728.5,72.2,1675.5,72.2L1675.5,72.2z"/>
		</g>
		<g>
			<circle class="st1" cx="1675.5" cy="168.2" r="11.2"/>
			<path class="st1" d="M1675.5,157.7c5.8,0,10.5,4.6,10.5,10.5s-4.7,10.5-10.5,10.5s-10.5-4.6-10.5-10.5S1669.7,157.7,1675.5,157.7
				 M1675.5,156.2c-6.6,0-12,5.4-12,12s5.4,12,12,12s12-5.4,12-12S1682.1,156.2,1675.5,156.2L1675.5,156.2z"/>
		</g>
	</g>
	<g>
		<g>
			<circle class="st1" cx="1419.5" cy="624.2" r="95.2"/>
			<path class="st1" d="M1419.5,529.7c52,0,94.5,42.4,94.5,94.5s-42.5,94.5-94.5,94.5s-94.5-42.4-94.5-94.5
				S1367.5,529.7,1419.5,529.7 M1419.5,528.2c-53,0-96,43.1-96,96s43,96,96,96s96-43.1,96-96S1472.5,528.2,1419.5,528.2
				L1419.5,528.2z"/>
		</g>
		<g>
			<circle class="st1" cx="1419.5" cy="624.2" r="11.2"/>
			<path class="st1" d="M1419.5,613.7c5.8,0,10.5,4.6,10.5,10.5s-4.7,10.5-10.5,10.5c-5.9,0-10.5-4.6-10.5-10.5
				S1413.6,613.7,1419.5,613.7 M1419.5,612.2c-6.6,0-12,5.4-12,12s5.4,12,12,12s12-5.4,12-12S1426.1,612.2,1419.5,612.2
				L1419.5,612.2z"/>
		</g>
	</g>
	
		<rect x="1285.6" y="299.7" transform="matrix(0.4894 -0.8721 0.8721 0.4894 445.1195 1551.5212)" class="st2" width="523.8" height="192"/>
	<g>
		<g>
			<ellipse class="st3" cx="1419.5" cy="624.1" rx="95.2" ry="95.2"/>
			<path class="st1" d="M1419.5,529.7c52.1,0,94.5,42.4,94.5,94.5s-42.4,94.5-94.5,94.5c-52,0-94.5-42.4-94.5-94.5
				S1367.5,529.7,1419.5,529.7 M1419.5,528.2c-53,0-96,43.1-96,96s43,96,96,96c52.9,0,96-43.1,96-96S1472.4,528.2,1419.5,528.2
				L1419.5,528.2z"/>
		</g>
		<g>
			<circle class="st1" cx="1419.5" cy="624.2" r="11.2"/>
			<path class="st1" d="M1419.5,613.7c5.8,0,10.5,4.6,10.5,10.5s-4.7,10.5-10.5,10.5s-10.5-4.6-10.5-10.5S1413.7,613.7,1419.5,613.7
				 M1419.5,612.2c-6.6,0-12,5.4-12,12s5.4,12,12,12s12-5.4,12-12S1426.1,612.2,1419.5,612.2L1419.5,612.2z"/>
		</g>
	</g>
	<g>
		<g>
			<circle class="st1" cx="907.5" cy="623.4" r="95.2"/>
			<path class="st1" d="M907.5,528.9c52,0,94.5,42.4,94.5,94.5s-42.5,94.5-94.5,94.5S813,675.5,813,623.4S855.5,528.9,907.5,528.9
				 M907.5,527.4c-53,0-96,43.1-96,96s43,96,96,96s96-43.1,96-96S960.5,527.4,907.5,527.4L907.5,527.4z"/>
		</g>
		<g>
			<ellipse class="st4" cx="907.6" cy="623.2" rx="11.2" ry="11.2"/>
			<path class="st1" d="M907.5,612.9c5.8,0,10.5,4.6,10.5,10.5s-4.7,10.5-10.5,10.5c-5.9,0-10.5-4.6-10.5-10.5
				S901.6,612.9,907.5,612.9 M907.5,611.4c-6.6,0-12,5.4-12,12s5.4,12,12,12s12-5.4,12-12S914.1,611.4,907.5,611.4L907.5,611.4z"/>
		</g>
	</g>
	<rect x="907.5" y="527.5" class="st1" width="512" height="192"/>
</g>
</svg>
