<?xml version="1.0" encoding="utf-8"?>
<!-- Generator: Adobe Illustrator 28.1.0, SVG Export Plug-In . SVG Version: 6.00 Build 0)  -->
<svg version="1.1" id="Layer_1" xmlns="http://www.w3.org/2000/svg" xmlns:xlink="http://www.w3.org/1999/xlink" x="0px" y="0px"
	 viewBox="0 0 2234 792" style="enable-background:new 0 0 2234 792;" xml:space="preserve">
<style type="text/css">
	.st0{fill:none;stroke:#231F20;stroke-width:2;stroke-miterlimit:9.9996;}
	.st1{fill:none;stroke:#231F20;stroke-width:2;stroke-miterlimit:10;}
	.st2{fill:none;stroke:#231F20;stroke-width:2;stroke-miterlimit:9.9994;}
	.st3{fill:none;stroke:#231F20;stroke-width:2.0001;stroke-miterlimit:10.0024;}
	.st4{fill:none;stroke:#231F20;stroke-width:2;stroke-miterlimit:9.9999;}
	.st5{fill:none;stroke:#231F20;stroke-width:2;stroke-miterlimit:10.0005;}
</style>
<g id="Layer_2_00000126315281977947104970000002793626909480187313_">
	<g>
		<g>
			<g>
				
					<ellipse transform="matrix(0.7071 -0.7071 0.7071 0.7071 207.1505 836.6719)" class="st0" cx="1113.5" cy="168.3" rx="95.2" ry="95.2"/>
				<path class="st1" d="M1113.5,73.8c52,0,94.5,42.4,94.5,94.5s-42.5,94.5-94.5,94.5s-94.5-42.4-94.5-94.5S1061.5,73.8,1113.5,73.8
					 M1113.5,72.3c-53,0-96,43.1-96,96s43,96,96,96s96-43.1,96-96S1166.5,72.3,1113.5,72.3L1113.5,72.3z"/>
			</g>
			<g>
				<circle class="st1" cx="1113.5" cy="168.3" r="11.2"/>
				<path class="st1" d="M1113.5,157.8c5.8,0,10.5,4.6,10.5,10.5s-4.7,10.5-10.5,10.5s-10.5-4.6-10.5-10.5
					S1107.7,157.8,1113.5,157.8 M1113.5,156.3c-6.6,0-12,5.4-12,12s5.4,12,12,12s12-5.4,12-12S1120.1,156.3,1113.5,156.3
					L1113.5,156.3z"/>
			</g>
		</g>
		<line class="st1" x1="1326" y1="433.8" x2="1327" y2="436.8"/>
		<g>
			<g>
				<circle class="st1" cx="857.5" cy="624.3" r="95.2"/>
				<path class="st1" d="M857.5,529.8c52,0,94.5,42.4,94.5,94.5s-42.5,94.5-94.5,94.5S763,676.4,763,624.3S805.5,529.8,857.5,529.8
					 M857.5,528.3c-53,0-96,43.1-96,96s43,96,96,96s96-43.1,96-96S910.5,528.3,857.5,528.3L857.5,528.3z"/>
			</g>
			<g>
				<circle class="st1" cx="857.5" cy="624.3" r="11.2"/>
				<path class="st1" d="M857.5,613.8c5.8,0,10.5,4.6,10.5,10.5s-4.7,10.5-10.5,10.5c-5.9,0-10.5-4.6-10.5-10.5
					S851.6,613.8,857.5,613.8 M857.5,612.3c-6.6,0-12,5.4-12,12s5.4,12,12,12s12-5.4,12-12S864.1,612.3,857.5,612.3L857.5,612.3z"/>
			</g>
		</g>
		<g>
			<g>
				
					<ellipse transform="matrix(0.7071 -0.7071 0.7071 0.7071 -40.2512 1151.1445)" class="st2" cx="1369.4" cy="624.2" rx="95.2" ry="95.2"/>
				<path class="st1" d="M1369.5,529.8c52.1,0,94.5,42.4,94.5,94.5s-42.4,94.5-94.5,94.5c-52,0-94.5-42.4-94.5-94.5
					S1317.5,529.8,1369.5,529.8 M1369.5,528.3c-53,0-96,43.1-96,96s43,96,96,96c52.9,0,96-43.1,96-96S1422.4,528.3,1369.5,528.3
					L1369.5,528.3z"/>
			</g>
			<g>
				<circle class="st1" cx="1369.5" cy="624.3" r="11.2"/>
				<path class="st1" d="M1369.5,613.8c5.8,0,10.5,4.6,10.5,10.5s-4.7,10.5-10.5,10.5s-10.5-4.6-10.5-10.5
					S1363.7,613.8,1369.5,613.8 M1369.5,612.3c-6.6,0-12,5.4-12,12s5.4,12,12,12s12-5.4,12-12S1376.1,612.3,1369.5,612.3
					L1369.5,612.3z"/>
			</g>
		</g>
		
			<rect x="723.3" y="299.8" transform="matrix(0.4894 -0.8721 0.8721 0.4894 157.9268 1061.2559)" class="st3" width="523.8" height="192"/>
		
			<rect x="1145.8" y="134.7" transform="matrix(0.8721 -0.4894 0.4894 0.8721 -35.2541 658.4505)" class="st3" width="192" height="523.8"/>
	</g>
	<g>
		<g>
			<g>
				
					<ellipse transform="matrix(0.7071 -0.7071 0.7071 0.7071 164.8804 1649.3823)" class="st2" cx="2073.4" cy="625.7" rx="95.2" ry="95.2"/>
				<path class="st1" d="M2073.5,531.3c52.1,0,94.5,42.4,94.5,94.5s-42.4,94.5-94.5,94.5c-52,0-94.5-42.4-94.5-94.5
					S2021.5,531.3,2073.5,531.3 M2073.5,529.8c-53,0-96,43.1-96,96s43,96,96,96c52.9,0,96-43.1,96-96S2126.4,529.8,2073.5,529.8
					L2073.5,529.8z"/>
			</g>
			<g>
				<circle class="st1" cx="2073.5" cy="625.8" r="11.2"/>
				<path class="st1" d="M2073.5,615.3c5.8,0,10.5,4.6,10.5,10.5s-4.7,10.5-10.5,10.5s-10.5-4.6-10.5-10.5
					S2067.7,615.3,2073.5,615.3 M2073.5,613.8c-6.6,0-12,5.4-12,12s5.4,12,12,12s12-5.4,12-12S2080.1,613.8,2073.5,613.8
					L2073.5,613.8z"/>
			</g>
		</g>
		<g>
			<g>
				<circle class="st1" cx="1561.5" cy="625" r="95.2"/>
				<path class="st1" d="M1561.5,530.5c52,0,94.5,42.4,94.5,94.5s-42.5,94.5-94.5,94.5S1467,677.1,1467,625
					S1509.5,530.5,1561.5,530.5 M1561.5,529c-53,0-96,43.1-96,96s43,96,96,96s96-43.1,96-96S1614.5,529,1561.5,529L1561.5,529z"/>
			</g>
			<g>
				<circle class="st1" cx="1561.5" cy="625" r="11.2"/>
				<path class="st1" d="M1561.5,614.5c5.8,0,10.5,4.6,10.5,10.5s-4.7,10.5-10.5,10.5c-5.9,0-10.5-4.6-10.5-10.5
					S1555.6,614.5,1561.5,614.5 M1561.5,613c-6.6,0-12,5.4-12,12s5.4,12,12,12s12-5.4,12-12S1568.1,613,1561.5,613L1561.5,613z"/>
			</g>
		</g>
		<g>
			<g>
				
					<ellipse transform="matrix(0.7071 -0.7071 0.7071 0.7071 414.3234 1333.9884)" class="st2" cx="1817.4" cy="166.9" rx="95.2" ry="95.2"/>
				<path class="st1" d="M1817.5,72.5c52.1,0,94.5,42.4,94.5,94.5s-42.4,94.5-94.5,94.5c-52,0-94.5-42.4-94.5-94.5
					S1765.5,72.5,1817.5,72.5 M1817.5,71c-53,0-96,43.1-96,96s43,96,96,96c52.9,0,96-43.1,96-96S1870.4,71,1817.5,71L1817.5,71z"/>
			</g>
			<g>
				<circle class="st1" cx="1817.5" cy="167" r="11.2"/>
				<path class="st1" d="M1817.5,156.5c5.8,0,10.5,4.6,10.5,10.5s-4.7,10.5-10.5,10.5s-10.5-4.6-10.5-10.5
					S1811.7,156.5,1817.5,156.5 M1817.5,155c-6.6,0-12,5.4-12,12s5.4,12,12,12s12-5.4,12-12S1824.1,155,1817.5,155L1817.5,155z"/>
			</g>
		</g>
		<g>
			<g>
				<circle class="st1" cx="1305.5" cy="166.2" r="95.2"/>
				<path class="st1" d="M1305.5,71.7c52,0,94.5,42.4,94.5,94.5s-42.5,94.5-94.5,94.5s-94.5-42.4-94.5-94.5S1253.5,71.7,1305.5,71.7
					 M1305.5,70.2c-53,0-96,43.1-96,96s43,96,96,96s96-43.1,96-96S1358.5,70.2,1305.5,70.2L1305.5,70.2z"/>
			</g>
			<g>
				<circle class="st1" cx="1305.5" cy="166.2" r="11.2"/>
				<path class="st1" d="M1305.5,155.7c5.8,0,10.5,4.6,10.5,10.5s-4.7,10.5-10.5,10.5c-5.9,0-10.5-4.6-10.5-10.5
					S1299.6,155.7,1305.5,155.7 M1305.5,154.2c-6.6,0-12,5.4-12,12s5.4,12,12,12s12-5.4,12-12S1312.1,154.2,1305.5,154.2
					L1305.5,154.2z"/>
			</g>
		</g>
		<rect x="1305.5" y="70.2" class="st1" width="512" height="192"/>
		<rect x="1561.5" y="529.2" class="st1" width="512" height="192"/>
		
			<rect x="1427.7" y="299.6" transform="matrix(0.4894 -0.8721 0.8721 0.4894 517.7846 1675.4492)" class="st3" width="523.8" height="192"/>
	</g>
	<g>
		<g>
			<g>
				<circle class="st1" cx="921.5" cy="166.2" r="95.2"/>
				<path class="st1" d="M921.5,71.7c52,0,94.5,42.4,94.5,94.5s-42.5,94.5-94.5,94.5S827,218.3,827,166.2S869.5,71.7,921.5,71.7
					 M921.5,70.2c-53,0-96,43.1-96,96s43,96,96,96s96-43.1,96-96S974.5,70.2,921.5,70.2L921.5,70.2z"/>
			</g>
			<g>
				<circle class="st1" cx="921.5" cy="166.2" r="11.2"/>
				<path class="st1" d="M921.5,155.7c5.8,0,10.5,4.6,10.5,10.5s-4.7,10.5-10.5,10.5s-10.5-4.6-10.5-10.5S915.7,155.7,921.5,155.7
					 M921.5,154.2c-6.6,0-12,5.4-12,12s5.4,12,12,12s12-5.4,12-12S928.1,154.2,921.5,154.2L921.5,154.2z"/>
			</g>
		</g>
		<g>
			<g>
				<circle class="st1" cx="665.5" cy="622.2" r="95.2"/>
				<path class="st1" d="M665.5,527.7c52,0,94.5,42.4,94.5,94.5s-42.5,94.5-94.5,94.5S571,674.3,571,622.2S613.5,527.7,665.5,527.7
					 M665.5,526.2c-53,0-96,43.1-96,96s43,96,96,96s96-43.1,96-96S718.5,526.2,665.5,526.2L665.5,526.2z"/>
			</g>
			<g>
				<circle class="st1" cx="665.5" cy="622.2" r="11.2"/>
				<path class="st1" d="M665.5,611.7c5.8,0,10.5,4.6,10.5,10.5s-4.7,10.5-10.5,10.5c-5.9,0-10.5-4.6-10.5-10.5
					S659.6,611.7,665.5,611.7 M665.5,610.2c-6.6,0-12,5.4-12,12s5.4,12,12,12s12-5.4,12-12S672.1,610.2,665.5,610.2L665.5,610.2z"/>
			</g>
		</g>
		
			<rect x="531.5" y="297.7" transform="matrix(0.4894 -0.8721 0.8721 0.4894 61.7629 892.9117)" class="st3" width="523.8" height="192"/>
		<g>
			<g>
				<ellipse class="st4" cx="665.5" cy="622.1" rx="95.2" ry="95.2"/>
				<path class="st1" d="M665.5,527.7c52.1,0,94.5,42.4,94.5,94.5s-42.4,94.5-94.5,94.5c-52,0-94.5-42.4-94.5-94.5
					S613.5,527.7,665.5,527.7 M665.5,526.2c-53,0-96,43.1-96,96s43,96,96,96c52.9,0,96-43.1,96-96S718.4,526.2,665.5,526.2
					L665.5,526.2z"/>
			</g>
			<g>
				<circle class="st1" cx="665.5" cy="622.2" r="11.2"/>
				<path class="st1" d="M665.5,611.7c5.8,0,10.5,4.6,10.5,10.5s-4.7,10.5-10.5,10.5s-10.5-4.6-10.5-10.5S659.7,611.7,665.5,611.7
					 M665.5,610.2c-6.6,0-12,5.4-12,12s5.4,12,12,12s12-5.4,12-12S672.1,610.2,665.5,610.2L665.5,610.2z"/>
			</g>
		</g>
		<g>
			<g>
				<circle class="st1" cx="153.5" cy="621.4" r="95.2"/>
				<path class="st1" d="M153.5,526.9c52,0,94.5,42.4,94.5,94.5s-42.5,94.5-94.5,94.5S59,673.5,59,621.4S101.5,526.9,153.5,526.9
					 M153.5,525.4c-53,0-96,43.1-96,96s43,96,96,96s96-43.1,96-96S206.5,525.4,153.5,525.4L153.5,525.4z"/>
			</g>
			<g>
				
					<ellipse transform="matrix(3.579673e-03 -1 1 3.579673e-03 -468.2842 772.6297)" class="st5" cx="153.6" cy="621.3" rx="11.2" ry="11.2"/>
				<path class="st1" d="M153.5,610.9c5.8,0,10.5,4.6,10.5,10.5s-4.7,10.5-10.5,10.5c-5.9,0-10.5-4.6-10.5-10.5
					S147.6,610.9,153.5,610.9 M153.5,609.4c-6.6,0-12,5.4-12,12s5.4,12,12,12s12-5.4,12-12S160.1,609.4,153.5,609.4L153.5,609.4z"/>
			</g>
		</g>
		<rect x="153.5" y="525.5" class="st1" width="512" height="192"/>
	</g>
</g>
</svg>
