<?xml version="1.0" encoding="utf-8"?>
<!-- Generator: Adobe Illustrator 27.7.0, SVG Export Plug-In . SVG Version: 6.00 Build 0)  -->
<svg version="1.1" id="Layer_1" xmlns="http://www.w3.org/2000/svg" xmlns:xlink="http://www.w3.org/1999/xlink" x="0px" y="0px"
	 viewBox="0 0 1920 1080" style="enable-background:new 0 0 1920 1080;" xml:space="preserve">
<style type="text/css">
	.st0{fill:none;stroke:#000000;stroke-miterlimit:10;}
</style>
<polygon class="st0" points="153.8,-408 -112,41.1 -368,-402.3 "/>
<g>
	<g>
		<g>
			<circle class="st0" cx="960" cy="346.1" r="95.2"/>
			<path class="st0" d="M960,251.6c52,0,94.5,42.4,94.5,94.5s-42.5,94.5-94.5,94.5s-94.5-42.4-94.5-94.5S908,251.6,960,251.6
				 M960,250.1c-53,0-96,43.1-96,96s43,96,96,96s96-43.1,96-96S1013,250.1,960,250.1L960,250.1z"/>
		</g>
		<g>
			<circle class="st0" cx="960" cy="346.1" r="11.2"/>
			<path class="st0" d="M960,335.6c5.8,0,10.5,4.6,10.5,10.5s-4.7,10.5-10.5,10.5s-10.5-4.6-10.5-10.5S954.2,335.6,960,335.6
				 M960,334.1c-6.6,0-12,5.4-12,12s5.4,12,12,12s12-5.4,12-12S966.6,334.1,960,334.1L960,334.1z"/>
		</g>
	</g>
	<line class="st0" x1="1172.5" y1="611.6" x2="1173.5" y2="614.6"/>
	<g>
		<g>
			<circle class="st0" cx="704" cy="802.1" r="95.2"/>
			<path class="st0" d="M704,707.6c52,0,94.5,42.4,94.5,94.5S756,896.6,704,896.6s-94.5-42.4-94.5-94.5S652,707.6,704,707.6
				 M704,706.1c-53,0-96,43.1-96,96s43,96,96,96s96-43.1,96-96S757,706.1,704,706.1L704,706.1z"/>
		</g>
		<g>
			<circle class="st0" cx="704" cy="802.1" r="11.2"/>
			<path class="st0" d="M704,791.6c5.8,0,10.5,4.6,10.5,10.5s-4.7,10.5-10.5,10.5c-5.9,0-10.5-4.6-10.5-10.5S698.1,791.6,704,791.6
				 M704,790.1c-6.6,0-12,5.4-12,12s5.4,12,12,12s12-5.4,12-12S710.6,790.1,704,790.1L704,790.1z"/>
		</g>
	</g>
	<g>
		<g>
			
				<ellipse transform="matrix(0.7071 -0.7071 0.7071 0.7071 -211.0251 1094.7769)" class="st0" cx="1216" cy="802.1" rx="95.2" ry="95.2"/>
			<path class="st0" d="M1216,707.6c52.1,0,94.5,42.4,94.5,94.5s-42.4,94.5-94.5,94.5c-52,0-94.5-42.4-94.5-94.5
				S1164,707.6,1216,707.6 M1216,706.1c-53,0-96,43.1-96,96s43,96,96,96c52.9,0,96-43.1,96-96S1268.9,706.1,1216,706.1L1216,706.1z"
				/>
		</g>
		<g>
			<circle class="st0" cx="1216" cy="802.1" r="11.2"/>
			<path class="st0" d="M1216,791.6c5.8,0,10.5,4.6,10.5,10.5s-4.7,10.5-10.5,10.5s-10.5-4.6-10.5-10.5S1210.2,791.6,1216,791.6
				 M1216,790.1c-6.6,0-12,5.4-12,12s5.4,12,12,12s12-5.4,12-12S1222.6,790.1,1216,790.1L1216,790.1z"/>
		</g>
	</g>
	
		<rect x="569.8" y="477.9" transform="matrix(0.4894 -0.8721 0.8721 0.4894 -75.7887 1018.3438)" class="st0" width="523.8" height="192"/>
	
		<rect x="826.1" y="478.6" transform="matrix(-0.4894 -0.8721 0.8721 -0.4894 1119.3425 1804.6376)" class="st0" width="523.8" height="192"/>
</g>
<g>
	<g>
		<g>
			
				<ellipse transform="matrix(0.7071 -0.7071 0.7071 0.7071 -5.8993 1593.0237)" class="st0" cx="1920" cy="803.6" rx="95.2" ry="95.2"/>
			<path class="st0" d="M1920,709.1c52.1,0,94.5,42.4,94.5,94.5s-42.4,94.5-94.5,94.5c-52,0-94.5-42.4-94.5-94.5
				S1868,709.1,1920,709.1 M1920,707.6c-53,0-96,43.1-96,96s43,96,96,96c52.9,0,96-43.1,96-96S1972.9,707.6,1920,707.6L1920,707.6z"
				/>
		</g>
		<g>
			<circle class="st0" cx="1920" cy="803.6" r="11.2"/>
			<path class="st0" d="M1920,793.1c5.8,0,10.5,4.6,10.5,10.5s-4.7,10.5-10.5,10.5s-10.5-4.6-10.5-10.5S1914.2,793.1,1920,793.1
				 M1920,791.6c-6.6,0-12,5.4-12,12s5.4,12,12,12s12-5.4,12-12S1926.6,791.6,1920,791.6L1920,791.6z"/>
		</g>
	</g>
	<g>
		<g>
			<circle class="st0" cx="1408" cy="802.8" r="95.2"/>
			<path class="st0" d="M1408,708.3c52,0,94.5,42.4,94.5,94.5s-42.5,94.5-94.5,94.5s-94.5-42.4-94.5-94.5S1356,708.3,1408,708.3
				 M1408,706.8c-53,0-96,43.1-96,96s43,96,96,96s96-43.1,96-96S1461,706.8,1408,706.8L1408,706.8z"/>
		</g>
		<g>
			<circle class="st0" cx="1408" cy="802.8" r="11.2"/>
			<path class="st0" d="M1408,792.3c5.8,0,10.5,4.6,10.5,10.5s-4.7,10.5-10.5,10.5c-5.9,0-10.5-4.6-10.5-10.5
				S1402.1,792.3,1408,792.3 M1408,790.8c-6.6,0-12,5.4-12,12s5.4,12,12,12s12-5.4,12-12S1414.6,790.8,1408,790.8L1408,790.8z"/>
		</g>
	</g>
	<g>
		<g>
			
				<ellipse transform="matrix(0.7071 -0.7071 0.7071 0.7071 243.5639 1277.6152)" class="st0" cx="1664" cy="344.8" rx="95.2" ry="95.2"/>
			<path class="st0" d="M1664,250.3c52.1,0,94.5,42.4,94.5,94.5s-42.4,94.5-94.5,94.5c-52,0-94.5-42.4-94.5-94.5
				S1612,250.3,1664,250.3 M1664,248.8c-53,0-96,43.1-96,96s43,96,96,96c52.9,0,96-43.1,96-96S1716.9,248.8,1664,248.8L1664,248.8z"
				/>
		</g>
		<g>
			<circle class="st0" cx="1664" cy="344.8" r="11.2"/>
			<path class="st0" d="M1664,334.3c5.8,0,10.5,4.6,10.5,10.5s-4.7,10.5-10.5,10.5s-10.5-4.6-10.5-10.5S1658.2,334.3,1664,334.3
				 M1664,332.8c-6.6,0-12,5.4-12,12s5.4,12,12,12s12-5.4,12-12S1670.6,332.8,1664,332.8L1664,332.8z"/>
		</g>
	</g>
	<g>
		<g>
			<circle class="st0" cx="1152" cy="344" r="95.2"/>
			<path class="st0" d="M1152,249.5c52,0,94.5,42.4,94.5,94.5s-42.5,94.5-94.5,94.5s-94.5-42.4-94.5-94.5S1100,249.5,1152,249.5
				 M1152,248c-53,0-96,43.1-96,96s43,96,96,96s96-43.1,96-96S1205,248,1152,248L1152,248z"/>
		</g>
		<g>
			<circle class="st0" cx="1152" cy="344" r="11.2"/>
			<path class="st0" d="M1152,333.5c5.8,0,10.5,4.6,10.5,10.5s-4.7,10.5-10.5,10.5c-5.9,0-10.5-4.6-10.5-10.5
				S1146.1,333.5,1152,333.5 M1152,332c-6.6,0-12,5.4-12,12s5.4,12,12,12s12-5.4,12-12S1158.6,332,1152,332L1152,332z"/>
		</g>
	</g>
	<rect x="1152" y="248" class="st0" width="512" height="192"/>
	<rect x="1408" y="707" class="st0" width="512" height="192"/>
	
		<rect x="1274" y="477.6" transform="matrix(0.4894 -0.8721 0.8721 0.4894 284.0173 1632.302)" class="st0" width="523.8" height="192"/>
</g>
<g>
	<g>
		<g>
			<circle class="st0" cx="768" cy="344" r="95.2"/>
			<path class="st0" d="M768,249.5c52,0,94.5,42.4,94.5,94.5S820,438.5,768,438.5s-94.5-42.4-94.5-94.5S716,249.5,768,249.5
				 M768,248c-53,0-96,43.1-96,96s43,96,96,96s96-43.1,96-96S821,248,768,248L768,248z"/>
		</g>
		<g>
			<circle class="st0" cx="768" cy="344" r="11.2"/>
			<path class="st0" d="M768,333.5c5.8,0,10.5,4.6,10.5,10.5s-4.7,10.5-10.5,10.5s-10.5-4.6-10.5-10.5S762.2,333.5,768,333.5
				 M768,332c-6.6,0-12,5.4-12,12s5.4,12,12,12s12-5.4,12-12S774.6,332,768,332L768,332z"/>
		</g>
	</g>
	<g>
		<g>
			<circle class="st0" cx="512" cy="800" r="95.2"/>
			<path class="st0" d="M512,705.5c52,0,94.5,42.4,94.5,94.5S564,894.5,512,894.5s-94.5-42.4-94.5-94.5S460,705.5,512,705.5
				 M512,704c-53,0-96,43.1-96,96s43,96,96,96s96-43.1,96-96S565,704,512,704L512,704z"/>
		</g>
		<g>
			<circle class="st0" cx="512" cy="800" r="11.2"/>
			<path class="st0" d="M512,789.5c5.8,0,10.5,4.6,10.5,10.5s-4.7,10.5-10.5,10.5c-5.9,0-10.5-4.6-10.5-10.5S506.1,789.5,512,789.5
				 M512,788c-6.6,0-12,5.4-12,12s5.4,12,12,12c6.6,0,12-5.4,12-12S518.6,788,512,788L512,788z"/>
		</g>
	</g>
	
		<rect x="377.8" y="475.8" transform="matrix(0.4894 -0.8721 0.8721 0.4894 -171.9799 849.825)" class="st0" width="523.8" height="192"/>
	<g>
		<g>
			
				<ellipse transform="matrix(0.7071 -0.7071 0.7071 0.7071 -415.7241 596.3532)" class="st0" cx="512" cy="800" rx="95.2" ry="95.2"/>
			<path class="st0" d="M512,705.5c52.1,0,94.5,42.4,94.5,94.5s-42.4,94.5-94.5,94.5c-52,0-94.5-42.4-94.5-94.5S460,705.5,512,705.5
				 M512,704c-53,0-96,43.1-96,96s43,96,96,96c52.9,0,96-43.1,96-96S564.9,704,512,704L512,704z"/>
		</g>
		<g>
			<circle class="st0" cx="512" cy="800" r="11.2"/>
			<path class="st0" d="M512,789.5c5.8,0,10.5,4.6,10.5,10.5s-4.7,10.5-10.5,10.5s-10.5-4.6-10.5-10.5S506.2,789.5,512,789.5
				 M512,788c-6.6,0-12,5.4-12,12s5.4,12,12,12s12-5.4,12-12S518.6,788,512,788L512,788z"/>
		</g>
	</g>
	<g>
		<g>
			<circle class="st0" cx="0" cy="799.2" r="95.2"/>
			<path class="st0" d="M0,704.7c52,0,94.5,42.4,94.5,94.5S52,893.7,0,893.7s-94.5-42.4-94.5-94.5S-52,704.7,0,704.7 M0,703.2
				c-53,0-96,43.1-96,96s43,96,96,96s96-43.1,96-96S53,703.2,0,703.2L0,703.2z"/>
		</g>
		<g>
			<circle class="st0" cx="0" cy="799.2" r="11.2"/>
			<path class="st0" d="M0,788.7c5.8,0,10.5,4.6,10.5,10.5S5.8,809.7,0,809.7c-5.9,0-10.5-4.6-10.5-10.5S-5.9,788.7,0,788.7
				 M0,787.2c-6.6,0-12,5.4-12,12s5.4,12,12,12s12-5.4,12-12S6.6,787.2,0,787.2L0,787.2z"/>
		</g>
	</g>
	<rect y="703.4" class="st0" width="512" height="192"/>
</g>
</svg>
