<?xml version="1.0" encoding="utf-8"?>
<!-- Generator: Adobe Illustrator 27.7.0, SVG Export Plug-In . SVG Version: 6.00 Build 0)  -->
<svg version="1.1" id="Layer_1" xmlns="http://www.w3.org/2000/svg" xmlns:xlink="http://www.w3.org/1999/xlink" x="0px" y="0px"
	 viewBox="0 0 2100 1080" style="enable-background:new 0 0 2100 1080;" xml:space="preserve">
<style type="text/css">
	.st0{fill:none;stroke:#000000;stroke-width:20;stroke-miterlimit:10;}
	.st1{fill:#27A58C;stroke:#000000;stroke-width:20;stroke-miterlimit:10;}
</style>
<path class="st0" d="M1051,280c0-53-43-96-96-96c-41.7,0-77.1,26.6-90.4,63.7L644.6,632H315c-53,0-96,43-96,96s43,96,96,96h376v-0.3
	c2.6,0.2,5.3,0.3,8,0.3c35.6,0,66.7-19.4,83.2-48.1l0.9,0.5l255.9-447l-1.3-0.7C1046.2,314.4,1051,297.8,1051,280z"/>
<path class="st0" d="M1774,632h-246.5l114.2-322.6l-0.3-0.1c3-9.2,4.6-19.1,4.6-29.3c0-53-43-96-96-96h-384c-53,0-96,43-96,96
	s43,96,96,96h247.3L1303,687.4c-5.8,12.3-9,26.1-9,40.6c0,53,43,96,96,96h384c53,0,96-43,96-96S1827,632,1774,632z"/>
<path class="st1" d="M1383.9,674.7l-244-422.6c-11.9-39.4-48.6-68.2-91.9-68.2c-38.7,0-72,22.9-87.2,55.8l-250.6,438
	c-9,14.6-14.1,31.8-14.1,50.2c0,53,43,96,96,96c36.7,0,68.6-20.6,84.8-50.9L1048,474l166,287.6c13.6,36.5,48.8,62.5,90,62.5
	c53,0,96-43,96-96C1400,708.3,1394.1,690,1383.9,674.7z"/>
</svg>
