<?xml version="1.0" encoding="utf-8"?>
<!-- Generator: Adobe Illustrator 28.1.0, SVG Export Plug-In . SVG Version: 6.00 Build 0)  -->
<svg version="1.1" id="Layer_1" xmlns="http://www.w3.org/2000/svg" xmlns:xlink="http://www.w3.org/1999/xlink" x="0px" y="0px"
	 viewBox="0 0 1262 650" style="enable-background:new 0 0 1262 650;" xml:space="preserve">
<style type="text/css">
	.st0{fill:#F7F6E3;}
	.st1{fill:#FFFFFF;stroke:#FFFFFF;stroke-miterlimit:9.9998;}
</style>
<path class="st0" d="M1171.6,471.2v-0.8H786.9l191.4-331.5l-1.2-0.7c8.5-13.7,13.5-29.9,13.5-47.2c0-49.5-40.3-89.6-90-89.6V0.6
	h-540v0.7c-49.7,0-90,40.1-90,89.6c0,49.5,40.3,89.6,90,89.6c3.8,0,7.6-0.2,11.3-0.7h375L552.5,516.4l0.6,0.4
	c-7.3,13-11.5,28-11.5,43.9c0,49.5,40.3,89.6,90,89.6c3.8,0,7.6-0.2,11.3-0.7h516.7c3.9,0.5,7.9,0.8,12,0.8c49.7,0,90-40.1,90-89.6
	S1221.3,471.2,1171.6,471.2z"/>
<path class="st0" d="M977.2,138.7c8.4-13.7,13.3-29.8,13.3-47c0-49.7-40.3-90-90-90c-34.6,0-64.6,19.5-79.7,48.2L578.3,469.6H91.4
	c-49.7,0-90,40.3-90,90c0,49.7,40.3,90,90,90h540c38.1,0,70.7-23.7,83.8-57.1L977.2,138.7L977.2,138.7z"/>
<path class="st1" d="M988.8,515.4L988.8,515.4L720.7,50.9c-14.9-29.2-45.2-49.2-80.3-49.2c-33.8,0-63.2,18.6-78.6,46.2l-0.4-0.2
	l-270,467.6l0.5,0.3c-7.3,13-11.5,28.1-11.5,44.1c0,49.7,40.3,90,90,90c37.1,0,68.9-22.4,82.7-54.5l187-323.9l190.5,329.9
	c15,28.8,45.1,48.4,79.8,48.4c49.7,0,90-40.3,90-90C1000.4,543.6,996.2,528.5,988.8,515.4z"/>
</svg>
