<?xml version="1.0" encoding="utf-8"?>
<!-- Generator: Adobe Illustrator 28.1.0, SVG Export Plug-In . SVG Version: 6.00 Build 0)  -->
<svg version="1.1" id="Layer_1" xmlns="http://www.w3.org/2000/svg" xmlns:xlink="http://www.w3.org/1999/xlink" x="0px" y="0px"
	 viewBox="0 0 2234 792" style="enable-background:new 0 0 2234 792;" xml:space="preserve">
<style type="text/css">
	.st0{fill:none;stroke:#9F9F9F;stroke-miterlimit:10;}
	.st1{fill:#DE1E2D;stroke:#9F9F9F;stroke-width:2;stroke-miterlimit:10;}
	.st2{fill:#DE1E2D;stroke:#9F9F9F;stroke-miterlimit:10.0036;}
	.st3{fill:#DE1E2D;stroke:#9F9F9F;stroke-miterlimit:10;}
	.st4{fill:none;stroke:#9F9F9F;stroke-miterlimit:10.0036;}
	.st5{fill:#5153A4;stroke:#9F9F9F;stroke-miterlimit:10;}
	.st6{fill:#5153A4;stroke:#9F9F9F;stroke-miterlimit:10.0036;}
</style>
<circle class="st0" cx="2025" cy="198" r="90"/>
<line class="st0" x1="-86.6" y1="906.3" x2="309.4" y2="220.4"/>
<line class="st0" x1="103.4" y1="38.3" x2="103.4" y2="792"/>
<line class="st0" x1="1671.5" y1="704.7" x2="1276.5" y2="22.8"/>
<g>
	<line class="st1" x1="1363.1" y1="429.8" x2="1364.1" y2="432.8"/>
	<g>
		<line class="st2" x1="1151.1" y1="72" x2="1151.1" y2="252"/>
		<line class="st2" x1="1061.1" y1="162" x2="1241.1" y2="162"/>
		<circle class="st3" cx="1151.1" cy="162" r="90"/>
		<circle class="st3" cx="1151.1" cy="162" r="9"/>
	</g>
	<rect x="745.1" y="306.8" transform="matrix(0.5 -0.866 0.866 0.5 163.8658 1077.4775)" class="st3" width="540" height="180"/>
	<g>
		<line class="st2" x1="1421.1" y1="540" x2="1421.1" y2="720"/>
		<line class="st2" x1="1331.1" y1="630" x2="1511.1" y2="630"/>
		<circle class="st3" cx="1421.1" cy="630" r="90"/>
		<circle class="st3" cx="1421.1" cy="630" r="9"/>
	</g>
	<g>
		<line class="st2" x1="881.1" y1="540" x2="881.1" y2="720"/>
		<line class="st2" x1="791.1" y1="630" x2="971.1" y2="630"/>
		<circle class="st3" cx="881.1" cy="630" r="90"/>
		<circle class="st3" cx="881.1" cy="630" r="9"/>
	</g>
	
		<rect x="1016.6" y="306.8" transform="matrix(-0.5 -0.866 0.866 -0.5 1586.2582 1709.4802)" class="st3" width="540" height="180"/>
</g>
<rect x="953.1" y="306.8" transform="matrix(0.5 -0.866 0.866 0.5 267.8946 1257.6608)" class="st0" width="540" height="180"/>
<g>
	<line class="st4" x1="193.4" y1="492.2" x2="193.4" y2="672.2"/>
	<line class="st4" x1="103.4" y1="582.2" x2="283.4" y2="582.2"/>
	<circle class="st0" cx="193.4" cy="582.2" r="90"/>
	<circle class="st0" cx="193.4" cy="582.2" r="9"/>
</g>
<g>
	<rect x="1015.9" y="308.6" transform="matrix(0.5 -0.866 0.866 0.5 297.7339 1312.9814)" class="st5" width="540" height="180"/>
	<g>
		<line class="st6" x1="1422" y1="72.8" x2="1422" y2="252.8"/>
		<line class="st6" x1="1332" y1="162.8" x2="1512" y2="162.8"/>
		<circle class="st5" cx="1422" cy="162.8" r="90"/>
		<circle class="st5" cx="1422" cy="162.8" r="9"/>
	</g>
	<g>
		<line class="st6" x1="1153" y1="540.8" x2="1153" y2="720.8"/>
		<line class="st6" x1="1063" y1="630.8" x2="1243" y2="630.8"/>
		<circle class="st5" cx="1153" cy="630.8" r="90"/>
		<circle class="st5" cx="1153" cy="630.8" r="9"/>
	</g>
	<rect x="613" y="540.8" class="st5" width="540" height="180"/>
	<g>
		<line class="st6" x1="613" y1="540.8" x2="613" y2="720.8"/>
		<line class="st6" x1="523" y1="630.8" x2="703" y2="630.8"/>
		<circle class="st5" cx="613" cy="630.8" r="90"/>
		<circle class="st5" cx="613" cy="630.8" r="9"/>
	</g>
</g>
<rect x="944.2" y="72.9" class="st0" width="413.8" height="179.8"/>
<g>
	<line class="st4" x1="882" y1="72.7" x2="882" y2="252.7"/>
	<line class="st4" x1="792" y1="162.7" x2="972" y2="162.7"/>
	<circle class="st0" cx="882" cy="162.7" r="90"/>
	<circle class="st0" cx="882" cy="162.7" r="9"/>
</g>
<g>
	<line class="st4" x1="1422" y1="72.8" x2="1422" y2="252.8"/>
	<line class="st4" x1="1332" y1="162.8" x2="1512" y2="162.8"/>
	<circle class="st0" cx="1422" cy="162.8" r="90"/>
	<circle class="st0" cx="1422" cy="162.8" r="9"/>
</g>
<g>
	<rect x="1152" y="540.1" class="st0" width="413.8" height="179.8"/>
	<g>
		<line class="st4" x1="1152" y1="540" x2="1152" y2="720"/>
		<line class="st4" x1="1062" y1="630" x2="1242" y2="630"/>
		<circle class="st0" cx="1152" cy="630" r="90"/>
		<circle class="st0" cx="1152" cy="630" r="9"/>
	</g>
	<g>
		<line class="st4" x1="1566.8" y1="540" x2="1566.8" y2="720"/>
		<line class="st4" x1="1476.8" y1="630" x2="1656.8" y2="630"/>
		<circle class="st0" cx="1566.8" cy="630" r="90"/>
		<circle class="st0" cx="1566.8" cy="630" r="9"/>
	</g>
</g>
<rect x="882" y="540" class="st0" width="540" height="180"/>
<rect x="882" y="72" class="st0" width="540" height="180"/>
</svg>
