<?xml version="1.0" encoding="utf-8"?>
<!-- Generator: Adobe Illustrator 27.7.0, SVG Export Plug-In . SVG Version: 6.00 Build 0)  -->
<svg version="1.1" id="Layer_1" xmlns="http://www.w3.org/2000/svg" xmlns:xlink="http://www.w3.org/1999/xlink" x="0px" y="0px"
	 viewBox="0 0 1920 1080" style="enable-background:new 0 0 1920 1080;" xml:space="preserve">
<style type="text/css">
	.st0{fill:none;stroke:#000000;stroke-miterlimit:10;}
</style>
<g>
	<g>
		<g>
			<circle class="st0" cx="959.7" cy="311.2" r="95.2"/>
			<path class="st0" d="M959.7,216.7c52,0,94.5,42.4,94.5,94.5s-42.5,94.5-94.5,94.5s-94.5-42.4-94.5-94.5S907.7,216.7,959.7,216.7
				 M959.7,215.2c-53,0-96,43.1-96,96s43,96,96,96s96-43.1,96-96S1012.7,215.2,959.7,215.2L959.7,215.2z"/>
		</g>
		<g>
			<circle class="st0" cx="959.7" cy="311.2" r="11.2"/>
			<path class="st0" d="M959.7,300.7c5.8,0,10.5,4.6,10.5,10.5s-4.7,10.5-10.5,10.5s-10.5-4.6-10.5-10.5S953.9,300.7,959.7,300.7
				 M959.7,299.2c-6.6,0-12,5.4-12,12s5.4,12,12,12s12-5.4,12-12S966.3,299.2,959.7,299.2L959.7,299.2z"/>
		</g>
	</g>
	<line class="st0" x1="1172.2" y1="576.7" x2="1173.2" y2="579.7"/>
	<g>
		<g>
			<circle class="st0" cx="703.7" cy="767.2" r="95.2"/>
			<path class="st0" d="M703.7,672.7c52,0,94.5,42.4,94.5,94.5s-42.5,94.5-94.5,94.5s-94.5-42.4-94.5-94.5S651.7,672.7,703.7,672.7
				 M703.7,671.2c-53,0-96,43.1-96,96s43,96,96,96s96-43.1,96-96S756.7,671.2,703.7,671.2L703.7,671.2z"/>
		</g>
		<g>
			<circle class="st0" cx="703.7" cy="767.2" r="11.2"/>
			<path class="st0" d="M703.7,756.7c5.8,0,10.5,4.6,10.5,10.5s-4.7,10.5-10.5,10.5c-5.9,0-10.5-4.6-10.5-10.5
				S697.8,756.7,703.7,756.7 M703.7,755.2c-6.6,0-12,5.4-12,12s5.4,12,12,12c6.6,0,12-5.4,12-12S710.3,755.2,703.7,755.2
				L703.7,755.2z"/>
		</g>
	</g>
	<g>
		<g>
			
				<ellipse transform="matrix(0.7071 -0.7071 0.7071 0.7071 -186.4195 1084.2982)" class="st0" cx="1215.7" cy="767.2" rx="95.2" ry="95.2"/>
			<path class="st0" d="M1215.7,672.7c52.1,0,94.5,42.4,94.5,94.5s-42.4,94.5-94.5,94.5c-52,0-94.5-42.4-94.5-94.5
				S1163.7,672.7,1215.7,672.7 M1215.7,671.2c-53,0-96,43.1-96,96s43,96,96,96c52.9,0,96-43.1,96-96S1268.6,671.2,1215.7,671.2
				L1215.7,671.2z"/>
		</g>
		<g>
			<circle class="st0" cx="1215.7" cy="767.2" r="11.2"/>
			<path class="st0" d="M1215.7,756.7c5.8,0,10.5,4.6,10.5,10.5s-4.7,10.5-10.5,10.5s-10.5-4.6-10.5-10.5S1209.9,756.7,1215.7,756.7
				 M1215.7,755.2c-6.6,0-12,5.4-12,12s5.4,12,12,12s12-5.4,12-12S1222.3,755.2,1215.7,755.2L1215.7,755.2z"/>
		</g>
	</g>
	
		<rect x="569.5" y="442.9" transform="matrix(0.4894 -0.8721 0.8721 0.4894 -45.4946 1000.2007)" class="st0" width="523.8" height="192"/>
	
		<rect x="825.7" y="443.7" transform="matrix(-0.4894 -0.8721 0.8721 -0.4894 1149.2981 1752.2957)" class="st0" width="523.8" height="192"/>
</g>
<g>
	<g>
		<g>
			
				<ellipse transform="matrix(0.7071 -0.7071 0.7071 0.7071 18.7062 1582.5452)" class="st0" cx="1919.7" cy="768.7" rx="95.2" ry="95.2"/>
			<path class="st0" d="M1919.7,674.2c52.1,0,94.5,42.4,94.5,94.5s-42.4,94.5-94.5,94.5c-52,0-94.5-42.4-94.5-94.5
				S1867.7,674.2,1919.7,674.2 M1919.7,672.7c-53,0-96,43.1-96,96s43,96,96,96c52.9,0,96-43.1,96-96S1972.6,672.7,1919.7,672.7
				L1919.7,672.7z"/>
		</g>
		<g>
			<circle class="st0" cx="1919.7" cy="768.7" r="11.2"/>
			<path class="st0" d="M1919.7,758.2c5.8,0,10.5,4.6,10.5,10.5s-4.7,10.5-10.5,10.5s-10.5-4.6-10.5-10.5S1913.9,758.2,1919.7,758.2
				 M1919.7,756.7c-6.6,0-12,5.4-12,12s5.4,12,12,12s12-5.4,12-12S1926.3,756.7,1919.7,756.7L1919.7,756.7z"/>
		</g>
	</g>
	<g>
		<g>
			<circle class="st0" cx="1407.7" cy="767.9" r="95.2"/>
			<path class="st0" d="M1407.7,673.4c52,0,94.5,42.4,94.5,94.5s-42.5,94.5-94.5,94.5s-94.5-42.4-94.5-94.5
				S1355.7,673.4,1407.7,673.4 M1407.7,671.9c-53,0-96,43.1-96,96s43,96,96,96s96-43.1,96-96S1460.7,671.9,1407.7,671.9
				L1407.7,671.9z"/>
		</g>
		<g>
			<circle class="st0" cx="1407.7" cy="767.9" r="11.2"/>
			<path class="st0" d="M1407.7,757.4c5.8,0,10.5,4.6,10.5,10.5s-4.7,10.5-10.5,10.5c-5.9,0-10.5-4.6-10.5-10.5
				S1401.8,757.4,1407.7,757.4 M1407.7,755.9c-6.6,0-12,5.4-12,12s5.4,12,12,12s12-5.4,12-12S1414.3,755.9,1407.7,755.9
				L1407.7,755.9z"/>
		</g>
	</g>
	<g>
		<g>
			
				<ellipse transform="matrix(0.7071 -0.7071 0.7071 0.7071 268.1695 1267.1367)" class="st0" cx="1663.7" cy="309.9" rx="95.2" ry="95.2"/>
			<path class="st0" d="M1663.7,215.4c52.1,0,94.5,42.4,94.5,94.5s-42.4,94.5-94.5,94.5c-52,0-94.5-42.4-94.5-94.5
				S1611.7,215.4,1663.7,215.4 M1663.7,213.9c-53,0-96,43.1-96,96s43,96,96,96c52.9,0,96-43.1,96-96S1716.6,213.9,1663.7,213.9
				L1663.7,213.9z"/>
		</g>
		<g>
			<circle class="st0" cx="1663.7" cy="309.9" r="11.2"/>
			<path class="st0" d="M1663.7,299.4c5.8,0,10.5,4.6,10.5,10.5s-4.7,10.5-10.5,10.5s-10.5-4.6-10.5-10.5S1657.9,299.4,1663.7,299.4
				 M1663.7,297.9c-6.6,0-12,5.4-12,12s5.4,12,12,12s12-5.4,12-12S1670.3,297.9,1663.7,297.9L1663.7,297.9z"/>
		</g>
	</g>
	<g>
		<g>
			<circle class="st0" cx="1151.7" cy="309.1" r="95.2"/>
			<path class="st0" d="M1151.7,214.6c52,0,94.5,42.4,94.5,94.5s-42.5,94.5-94.5,94.5s-94.5-42.4-94.5-94.5
				S1099.7,214.6,1151.7,214.6 M1151.7,213.1c-53,0-96,43.1-96,96s43,96,96,96s96-43.1,96-96S1204.7,213.1,1151.7,213.1
				L1151.7,213.1z"/>
		</g>
		<g>
			<circle class="st0" cx="1151.7" cy="309.1" r="11.2"/>
			<path class="st0" d="M1151.7,298.6c5.8,0,10.5,4.6,10.5,10.5s-4.7,10.5-10.5,10.5c-5.9,0-10.5-4.6-10.5-10.5
				S1145.8,298.6,1151.7,298.6 M1151.7,297.1c-6.6,0-12,5.4-12,12s5.4,12,12,12s12-5.4,12-12S1158.3,297.1,1151.7,297.1
				L1151.7,297.1z"/>
		</g>
	</g>
	<rect x="1151.7" y="213.1" class="st0" width="512" height="192"/>
	<rect x="1407.7" y="672.1" class="st0" width="512" height="192"/>
	
		<rect x="1273.6" y="442.7" transform="matrix(0.4894 -0.8721 0.8721 0.4894 314.3114 1614.1589)" class="st0" width="523.8" height="192"/>
</g>
<g>
	<g>
		<g>
			<circle class="st0" cx="767.7" cy="309.1" r="95.2"/>
			<path class="st0" d="M767.7,214.6c52,0,94.5,42.4,94.5,94.5s-42.5,94.5-94.5,94.5s-94.5-42.4-94.5-94.5S715.7,214.6,767.7,214.6
				 M767.7,213.1c-53,0-96,43.1-96,96s43,96,96,96s96-43.1,96-96S820.7,213.1,767.7,213.1L767.7,213.1z"/>
		</g>
		<g>
			<circle class="st0" cx="767.7" cy="309.1" r="11.2"/>
			<path class="st0" d="M767.7,298.6c5.8,0,10.5,4.6,10.5,10.5s-4.7,10.5-10.5,10.5s-10.5-4.6-10.5-10.5S761.9,298.6,767.7,298.6
				 M767.7,297.1c-6.6,0-12,5.4-12,12s5.4,12,12,12s12-5.4,12-12S774.3,297.1,767.7,297.1L767.7,297.1z"/>
		</g>
	</g>
	<g>
		<g>
			<circle class="st0" cx="511.7" cy="765.1" r="95.2"/>
			<path class="st0" d="M511.7,670.6c52,0,94.5,42.4,94.5,94.5s-42.5,94.5-94.5,94.5s-94.5-42.4-94.5-94.5S459.7,670.6,511.7,670.6
				 M511.7,669.1c-53,0-96,43.1-96,96s43,96,96,96s96-43.1,96-96S564.7,669.1,511.7,669.1L511.7,669.1z"/>
		</g>
		<g>
			<circle class="st0" cx="511.7" cy="765.1" r="11.2"/>
			<path class="st0" d="M511.7,754.6c5.8,0,10.5,4.6,10.5,10.5s-4.7,10.5-10.5,10.5c-5.9,0-10.5-4.6-10.5-10.5
				S505.8,754.6,511.7,754.6 M511.7,753.1c-6.6,0-12,5.4-12,12s5.4,12,12,12c6.6,0,12-5.4,12-12S518.3,753.1,511.7,753.1
				L511.7,753.1z"/>
		</g>
	</g>
	
		<rect x="377.5" y="440.8" transform="matrix(0.4894 -0.8721 0.8721 0.4894 -141.6858 831.6819)" class="st0" width="523.8" height="192"/>
	<g>
		<g>
			
				<ellipse transform="matrix(0.7071 -0.7071 0.7071 0.7071 -391.1186 585.8747)" class="st0" cx="511.7" cy="765.1" rx="95.2" ry="95.2"/>
			<path class="st0" d="M511.7,670.6c52.1,0,94.5,42.4,94.5,94.5s-42.4,94.5-94.5,94.5c-52,0-94.5-42.4-94.5-94.5
				S459.7,670.6,511.7,670.6 M511.7,669.1c-53,0-96,43.1-96,96s43,96,96,96c52.9,0,96-43.1,96-96S564.6,669.1,511.7,669.1
				L511.7,669.1z"/>
		</g>
		<g>
			<circle class="st0" cx="511.7" cy="765.1" r="11.2"/>
			<path class="st0" d="M511.7,754.6c5.8,0,10.5,4.6,10.5,10.5s-4.7,10.5-10.5,10.5s-10.5-4.6-10.5-10.5S505.9,754.6,511.7,754.6
				 M511.7,753.1c-6.6,0-12,5.4-12,12s5.4,12,12,12s12-5.4,12-12S518.3,753.1,511.7,753.1L511.7,753.1z"/>
		</g>
	</g>
	<g>
		<g>
			<circle class="st0" cx="-0.3" cy="764.3" r="95.2"/>
			<path class="st0" d="M-0.3,669.8c52,0,94.5,42.4,94.5,94.5s-42.5,94.5-94.5,94.5s-94.5-42.4-94.5-94.5S-52.3,669.8-0.3,669.8
				 M-0.3,668.3c-53,0-96,43.1-96,96s43,96,96,96s96-43.1,96-96S52.7,668.3-0.3,668.3L-0.3,668.3z"/>
		</g>
		<g>
			<circle class="st0" cx="-0.3" cy="764.3" r="11.2"/>
			<path class="st0" d="M-0.3,753.8c5.8,0,10.5,4.6,10.5,10.5s-4.7,10.5-10.5,10.5c-5.9,0-10.5-4.6-10.5-10.5S-6.2,753.8-0.3,753.8
				 M-0.3,752.3c-6.6,0-12,5.4-12,12s5.4,12,12,12s12-5.4,12-12S6.3,752.3-0.3,752.3L-0.3,752.3z"/>
		</g>
	</g>
	<rect x="-0.3" y="668.4" class="st0" width="512" height="192"/>
</g>
</svg>
