<?xml version="1.0" encoding="utf-8"?>
<!-- Generator: Adobe Illustrator 27.7.0, SVG Export Plug-In . SVG Version: 6.00 Build 0)  -->
<svg version="1.1" id="Layer_1" xmlns="http://www.w3.org/2000/svg" xmlns:xlink="http://www.w3.org/1999/xlink" x="0px" y="0px"
	 viewBox="0 0 1920 1080" style="enable-background:new 0 0 1920 1080;" xml:space="preserve">
<style type="text/css">
	.st0{fill:#FFFFFF;}
	.st1{fill:none;stroke:#000000;stroke-miterlimit:10;}
	.st2{fill:none;stroke:#0A00BF;stroke-miterlimit:10;}
</style>
<g>
	<g>
		<circle class="st0" cx="1064" cy="768" r="63.5"/>
		<path d="M1064,705c34.7,0,63,28.3,63,63s-28.3,63-63,63s-63-28.3-63-63S1029.3,705,1064,705 M1064,704c-35.3,0-64,28.7-64,64
			s28.7,64,64,64s64-28.7,64-64S1099.3,704,1064,704L1064,704z"/>
	</g>
	<g>
		<circle class="st0" cx="1064" cy="768" r="7.5"/>
		<path d="M1064,761c3.9,0,7,3.1,7,7s-3.1,7-7,7s-7-3.1-7-7S1060.1,761,1064,761 M1064,760c-4.4,0-8,3.6-8,8s3.6,8,8,8s8-3.6,8-8
			S1068.4,760,1064,760L1064,760z"/>
	</g>
</g>
<g>
	<g>
		<circle class="st0" cx="472" cy="768" r="63.5"/>
		<path d="M472,705c34.7,0,63,28.3,63,63s-28.3,63-63,63s-63-28.3-63-63S437.3,705,472,705 M472,704c-35.3,0-64,28.7-64,64
			s28.7,64,64,64s64-28.7,64-64S507.3,704,472,704L472,704z"/>
	</g>
	<g>
		<circle class="st0" cx="472" cy="768" r="7.5"/>
		<path d="M472,761c3.9,0,7,3.1,7,7s-3.1,7-7,7s-7-3.1-7-7S468.1,761,472,761 M472,760c-4.4,0-8,3.6-8,8s3.6,8,8,8s8-3.6,8-8
			S476.4,760,472,760L472,760z"/>
	</g>
</g>
<g>
	<g>
		<circle class="st0" cx="768" cy="256" r="63.5"/>
		<path d="M768,193c34.7,0,63,28.3,63,63s-28.3,63-63,63s-63-28.3-63-63S733.3,193,768,193 M768,192c-35.3,0-64,28.7-64,64
			s28.7,64,64,64s64-28.7,64-64S803.3,192,768,192L768,192z"/>
	</g>
	<g>
		<circle class="st0" cx="768" cy="256" r="7.5"/>
		<path d="M768,249c3.9,0,7,3.1,7,7c0,3.9-3.1,7-7,7s-7-3.1-7-7C761,252.1,764.1,249,768,249 M768,248c-4.4,0-8,3.6-8,8s3.6,8,8,8
			s8-3.6,8-8S772.4,248,768,248L768,248z"/>
	</g>
</g>
<polygon class="st1" points="1639.6,168 1344,680 1935.2,680 "/>
<g>
	<g>
		<circle class="st0" cx="128" cy="528" r="63.5"/>
		<path d="M128,465c34.7,0,63,28.3,63,63s-28.3,63-63,63s-63-28.3-63-63S93.3,465,128,465 M128,464c-35.3,0-64,28.7-64,64
			s28.7,64,64,64s64-28.7,64-64S163.3,464,128,464L128,464z"/>
	</g>
	<g>
		<circle class="st0" cx="128" cy="528" r="7.5"/>
		<path d="M128,521c3.9,0,7,3.1,7,7s-3.1,7-7,7c-3.9,0-7-3.1-7-7S124.1,521,128,521 M128,520c-4.4,0-8,3.6-8,8s3.6,8,8,8s8-3.6,8-8
			S132.4,520,128,520L128,520z"/>
	</g>
</g>
<line class="st1" x1="980.5" y1="553.5" x2="981.5" y2="556.5"/>
<rect x="620.6" y="447.7" transform="matrix(0.5 0.866 -0.866 0.5 901.395 -537.9485)" class="st2" width="592" height="128"/>
<rect x="323.4" y="448.3" transform="matrix(-0.5 0.866 -0.866 -0.5 1372.8408 232.0768)" class="st2" width="592" height="128"/>
</svg>
