<?xml version="1.0" encoding="utf-8"?>
<!-- Generator: Adobe Illustrator 28.1.0, SVG Export Plug-In . SVG Version: 6.00 Build 0)  -->
<svg version="1.1" id="Layer_1" xmlns="http://www.w3.org/2000/svg" xmlns:xlink="http://www.w3.org/1999/xlink" x="0px" y="0px"
	 viewBox="0 0 1920 1080" style="enable-background:new 0 0 1920 1080;" xml:space="preserve">
<style type="text/css">
	.st0{fill:none;stroke:#000000;stroke-miterlimit:10;}
	.st1{fill:none;stroke:#000000;stroke-width:1;stroke-miterlimit:9.9999;}
	.st2{fill:none;stroke:#000000;stroke-width:1;stroke-miterlimit:10.0004;}
</style>
<g>
	<g>
		<g>
			<circle class="st0" cx="1126.7" cy="171.2" r="95.2"/>
			<path class="st0" d="M1126.7,76.7c52,0,94.5,42.4,94.5,94.5s-42.5,94.5-94.5,94.5s-94.5-42.4-94.5-94.5S1074.7,76.7,1126.7,76.7
				 M1126.7,75.2c-53,0-96,43.1-96,96s43,96,96,96s96-43.1,96-96S1179.7,75.2,1126.7,75.2L1126.7,75.2z"/>
		</g>
		<g>
			<circle class="st0" cx="1126.7" cy="171.2" r="11.2"/>
			<path class="st0" d="M1126.7,160.7c5.8,0,10.5,4.6,10.5,10.5s-4.7,10.5-10.5,10.5c-5.8,0-10.5-4.6-10.5-10.5
				S1120.9,160.7,1126.7,160.7 M1126.7,159.2c-6.6,0-12,5.4-12,12s5.4,12,12,12c6.6,0,12-5.4,12-12S1133.3,159.2,1126.7,159.2
				L1126.7,159.2z"/>
		</g>
	</g>
	<line class="st0" x1="1339.2" y1="436.7" x2="1340.2" y2="439.7"/>
	<g>
		<g>
			<circle class="st0" cx="870.7" cy="627.2" r="95.2"/>
			<path class="st0" d="M870.7,532.7c52,0,94.5,42.4,94.5,94.5s-42.5,94.5-94.5,94.5s-94.5-42.4-94.5-94.5S818.7,532.7,870.7,532.7
				 M870.7,531.2c-53,0-96,43.1-96,96s43,96,96,96s96-43.1,96-96S923.7,531.2,870.7,531.2L870.7,531.2z"/>
		</g>
		<g>
			<circle class="st0" cx="870.7" cy="627.2" r="11.2"/>
			<path class="st0" d="M870.7,616.7c5.8,0,10.5,4.6,10.5,10.5s-4.7,10.5-10.5,10.5c-5.9,0-10.5-4.6-10.5-10.5
				S864.8,616.7,870.7,616.7 M870.7,615.2c-6.6,0-12,5.4-12,12s5.4,12,12,12s12-5.4,12-12S877.3,615.2,870.7,615.2L870.7,615.2z"/>
		</g>
	</g>
	<g>
		<g>
			
				<ellipse transform="matrix(0.7071 -0.7071 0.7071 0.7071 -38.4916 1161.4009)" class="st1" cx="1382.7" cy="627.2" rx="95.2" ry="95.2"/>
			<path class="st0" d="M1382.7,532.7c52.1,0,94.5,42.4,94.5,94.5s-42.4,94.5-94.5,94.5c-52,0-94.5-42.4-94.5-94.5
				S1330.7,532.7,1382.7,532.7 M1382.7,531.2c-53,0-96,43.1-96,96s43,96,96,96c52.9,0,96-43.1,96-96S1435.6,531.2,1382.7,531.2
				L1382.7,531.2z"/>
		</g>
		<g>
			<circle class="st0" cx="1382.7" cy="627.2" r="11.2"/>
			<path class="st0" d="M1382.7,616.7c5.8,0,10.5,4.6,10.5,10.5s-4.7,10.5-10.5,10.5s-10.5-4.6-10.5-10.5S1376.9,616.7,1382.7,616.7
				 M1382.7,615.2c-6.6,0-12,5.4-12,12s5.4,12,12,12s12-5.4,12-12S1389.3,615.2,1382.7,615.2L1382.7,615.2z"/>
		</g>
	</g>
	
		<rect x="736.5" y="302.9" transform="matrix(0.4894 -0.8721 0.8721 0.4894 161.9376 1074.3175)" class="st2" width="523.8" height="192"/>
	
		<rect x="1158.7" y="137.8" transform="matrix(0.8721 -0.4894 0.4894 0.8721 -35.0771 665.1581)" class="st2" width="192" height="523.8"/>
</g>
<g>
	<g>
		<g>
			
				<ellipse transform="matrix(0.7071 -0.7071 0.7071 0.7071 166.6335 1659.6353)" class="st1" cx="2086.7" cy="628.7" rx="95.2" ry="95.2"/>
			<path class="st0" d="M2086.7,534.2c52.1,0,94.5,42.4,94.5,94.5s-42.4,94.5-94.5,94.5c-52,0-94.5-42.4-94.5-94.5
				S2034.7,534.2,2086.7,534.2 M2086.7,532.7c-53,0-96,43.1-96,96s43,96,96,96c52.9,0,96-43.1,96-96S2139.6,532.7,2086.7,532.7
				L2086.7,532.7z"/>
		</g>
		<g>
			<circle class="st0" cx="2086.7" cy="628.7" r="11.2"/>
			<path class="st0" d="M2086.7,618.2c5.8,0,10.5,4.6,10.5,10.5s-4.7,10.5-10.5,10.5s-10.5-4.6-10.5-10.5S2080.9,618.2,2086.7,618.2
				 M2086.7,616.7c-6.6,0-12,5.4-12,12s5.4,12,12,12s12-5.4,12-12S2093.3,616.7,2086.7,616.7L2086.7,616.7z"/>
		</g>
	</g>
	<g>
		<g>
			<circle class="st0" cx="1574.7" cy="627.9" r="95.2"/>
			<path class="st0" d="M1574.7,533.4c52,0,94.5,42.4,94.5,94.5s-42.5,94.5-94.5,94.5s-94.5-42.4-94.5-94.5
				S1522.7,533.4,1574.7,533.4 M1574.7,531.9c-53,0-96,43.1-96,96s43,96,96,96s96-43.1,96-96S1627.7,531.9,1574.7,531.9
				L1574.7,531.9z"/>
		</g>
		<g>
			<circle class="st0" cx="1574.7" cy="627.9" r="11.2"/>
			<path class="st0" d="M1574.7,617.4c5.8,0,10.5,4.6,10.5,10.5s-4.7,10.5-10.5,10.5c-5.9,0-10.5-4.6-10.5-10.5
				S1568.8,617.4,1574.7,617.4 M1574.7,615.9c-6.6,0-12,5.4-12,12s5.4,12,12,12s12-5.4,12-12S1581.3,615.9,1574.7,615.9
				L1574.7,615.9z"/>
		</g>
	</g>
	<g>
		<g>
			
				<ellipse transform="matrix(0.7071 -0.7071 0.7071 0.7071 416.0876 1344.254)" class="st1" cx="1830.7" cy="169.9" rx="95.2" ry="95.2"/>
			<path class="st0" d="M1830.7,75.4c52.1,0,94.5,42.4,94.5,94.5s-42.4,94.5-94.5,94.5c-52,0-94.5-42.4-94.5-94.5
				S1778.7,75.4,1830.7,75.4 M1830.7,73.9c-53,0-96,43.1-96,96s43,96,96,96c52.9,0,96-43.1,96-96S1883.6,73.9,1830.7,73.9
				L1830.7,73.9z"/>
		</g>
		<g>
			<circle class="st0" cx="1830.7" cy="169.9" r="11.2"/>
			<path class="st0" d="M1830.7,159.4c5.8,0,10.5,4.6,10.5,10.5s-4.7,10.5-10.5,10.5s-10.5-4.6-10.5-10.5S1824.9,159.4,1830.7,159.4
				 M1830.7,157.9c-6.6,0-12,5.4-12,12s5.4,12,12,12s12-5.4,12-12S1837.3,157.9,1830.7,157.9L1830.7,157.9z"/>
		</g>
	</g>
	<g>
		<g>
			<circle class="st0" cx="1318.7" cy="169.1" r="95.2"/>
			<path class="st0" d="M1318.7,74.6c52,0,94.5,42.4,94.5,94.5s-42.5,94.5-94.5,94.5s-94.5-42.4-94.5-94.5S1266.7,74.6,1318.7,74.6
				 M1318.7,73.1c-53,0-96,43.1-96,96s43,96,96,96s96-43.1,96-96S1371.7,73.1,1318.7,73.1L1318.7,73.1z"/>
		</g>
		<g>
			<circle class="st0" cx="1318.7" cy="169.1" r="11.2"/>
			<path class="st0" d="M1318.7,158.6c5.8,0,10.5,4.6,10.5,10.5s-4.7,10.5-10.5,10.5c-5.9,0-10.5-4.6-10.5-10.5
				S1312.8,158.6,1318.7,158.6 M1318.7,157.1c-6.6,0-12,5.4-12,12s5.4,12,12,12s12-5.4,12-12S1325.3,157.1,1318.7,157.1
				L1318.7,157.1z"/>
		</g>
	</g>
	<rect x="1318.7" y="73.1" class="st0" width="512" height="192"/>
	<rect x="1574.7" y="532.1" class="st0" width="512" height="192"/>
	
		<rect x="1440.7" y="302.7" transform="matrix(0.4894 -0.8721 0.8721 0.4894 521.685 1688.3497)" class="st2" width="523.8" height="192"/>
</g>
<g>
	<g>
		<g>
			<circle class="st0" cx="934.7" cy="169.1" r="95.2"/>
			<path class="st0" d="M934.7,74.6c52,0,94.5,42.4,94.5,94.5s-42.5,94.5-94.5,94.5s-94.5-42.4-94.5-94.5S882.7,74.6,934.7,74.6
				 M934.7,73.1c-53,0-96,43.1-96,96s43,96,96,96s96-43.1,96-96S987.7,73.1,934.7,73.1L934.7,73.1z"/>
		</g>
		<g>
			<circle class="st0" cx="934.7" cy="169.1" r="11.2"/>
			<path class="st0" d="M934.7,158.6c5.8,0,10.5,4.6,10.5,10.5s-4.7,10.5-10.5,10.5s-10.5-4.6-10.5-10.5S928.9,158.6,934.7,158.6
				 M934.7,157.1c-6.6,0-12,5.4-12,12s5.4,12,12,12s12-5.4,12-12S941.3,157.1,934.7,157.1L934.7,157.1z"/>
		</g>
	</g>
	<g>
		<g>
			<circle class="st0" cx="678.7" cy="625.1" r="95.2"/>
			<path class="st0" d="M678.7,530.6c52,0,94.5,42.4,94.5,94.5s-42.5,94.5-94.5,94.5s-94.5-42.4-94.5-94.5S626.7,530.6,678.7,530.6
				 M678.7,529.1c-53,0-96,43.1-96,96s43,96,96,96s96-43.1,96-96S731.7,529.1,678.7,529.1L678.7,529.1z"/>
		</g>
		<g>
			<circle class="st0" cx="678.7" cy="625.1" r="11.2"/>
			<path class="st0" d="M678.7,614.6c5.8,0,10.5,4.6,10.5,10.5s-4.7,10.5-10.5,10.5c-5.9,0-10.5-4.6-10.5-10.5
				S672.8,614.6,678.7,614.6 M678.7,613.1c-6.6,0-12,5.4-12,12s5.4,12,12,12c6.6,0,12-5.4,12-12S685.3,613.1,678.7,613.1
				L678.7,613.1z"/>
		</g>
	</g>
	
		<rect x="544.5" y="300.8" transform="matrix(0.4894 -0.8721 0.8721 0.4894 65.7397 905.8171)" class="st2" width="523.8" height="192"/>
	<g>
		<g>
			<ellipse class="st1" cx="678.7" cy="625.1" rx="95.2" ry="95.2"/>
			<path class="st0" d="M678.7,530.6c52.1,0,94.5,42.4,94.5,94.5s-42.4,94.5-94.5,94.5c-52,0-94.5-42.4-94.5-94.5
				S626.7,530.6,678.7,530.6 M678.7,529.1c-53,0-96,43.1-96,96s43,96,96,96c52.9,0,96-43.1,96-96S731.6,529.1,678.7,529.1
				L678.7,529.1z"/>
		</g>
		<g>
			<circle class="st0" cx="678.7" cy="625.1" r="11.2"/>
			<path class="st0" d="M678.7,614.6c5.8,0,10.5,4.6,10.5,10.5s-4.7,10.5-10.5,10.5s-10.5-4.6-10.5-10.5S672.9,614.6,678.7,614.6
				 M678.7,613.1c-6.6,0-12,5.4-12,12s5.4,12,12,12s12-5.4,12-12S685.3,613.1,678.7,613.1L678.7,613.1z"/>
		</g>
	</g>
	<g>
		<g>
			<circle class="st0" cx="166.7" cy="624.3" r="95.2"/>
			<path class="st0" d="M166.7,529.8c52,0,94.5,42.4,94.5,94.5s-42.5,94.5-94.5,94.5s-94.5-42.4-94.5-94.5S114.7,529.8,166.7,529.8
				 M166.7,528.3c-53,0-96,43.1-96,96s43,96,96,96s96-43.1,96-96S219.7,528.3,166.7,528.3L166.7,528.3z"/>
		</g>
		<g>
			
				<ellipse transform="matrix(3.579885e-03 -1 1 3.579885e-03 -458.1927 788.764)" class="st0" cx="166.7" cy="624.3" rx="11.2" ry="11.2"/>
			<path class="st0" d="M166.7,613.8c5.8,0,10.5,4.6,10.5,10.5s-4.7,10.5-10.5,10.5c-5.9,0-10.5-4.6-10.5-10.5
				S160.8,613.8,166.7,613.8 M166.7,612.3c-6.6,0-12,5.4-12,12s5.4,12,12,12c6.6,0,12-5.4,12-12S173.3,612.3,166.7,612.3
				L166.7,612.3z"/>
		</g>
	</g>
	<rect x="166.7" y="528.4" class="st0" width="512" height="192"/>
</g>
</svg>
