<?xml version="1.0" encoding="utf-8"?>
<!-- Generator: Adobe Illustrator 28.1.0, SVG Export Plug-In . SVG Version: 6.00 Build 0)  -->
<svg version="1.1" id="Layer_1" xmlns="http://www.w3.org/2000/svg" xmlns:xlink="http://www.w3.org/1999/xlink" x="0px" y="0px"
	 viewBox="0 0 788 425" style="enable-background:new 0 0 788 425;" xml:space="preserve">
<style type="text/css">
	.st0{fill:#426C6C;}
	.st1{fill:#4B678D;}
	.st2{fill:#6FA289;}
</style>
<g>
	<circle class="st0" cx="557.8" cy="72.2" r="70"/>
	<circle class="st0" cx="72.4" cy="351.3" r="70"/>
	<circle class="st0" cx="394.9" cy="352.3" r="70"/>
	<rect x="74.5" y="281.5" class="st0" width="320" height="140"/>
	<rect x="317.4" y="141.2" transform="matrix(0.5 -0.866 0.866 0.5 55.803 519.0521)" class="st0" width="320" height="140"/>
</g>
<rect x="395.9" y="282.3" class="st0" width="320" height="140"/>
<rect x="234.8" y="2.3" class="st0" width="320" height="140"/>
<circle class="st0" cx="395" cy="351.4" r="70"/>
<circle class="st1" cx="558.4" cy="72.3" r="70"/>
<circle class="st0" cx="715.9" cy="352.3" r="70"/>
<rect x="317.4" y="143.3" transform="matrix(0.5 -0.866 0.866 0.5 53.9839 520.0792)" class="st1" width="320" height="140"/>
<circle class="st0" cx="234.9" cy="72.3" r="70"/>
<g>
	<rect x="155.9" y="141.8" transform="matrix(0.5 -0.866 0.866 0.5 -25.4461 379.455)" class="st2" width="320" height="140"/>
	<circle class="st2" cx="235.5" cy="351.3" r="70"/>
	<circle class="st2" cx="555.8" cy="350.2" r="70"/>
	<circle class="st2" cx="395.8" cy="72.2" r="70"/>
	<rect x="406.4" y="51.8" transform="matrix(0.866 -0.5 0.5 0.866 -42.0723 266.5847)" class="st2" width="140" height="320"/>
</g>
<rect x="317.4" y="142.8" transform="matrix(0.5 -0.866 0.866 0.5 54.3604 519.8193)" class="st1" width="320" height="140"/>
<circle class="st0" cx="557.8" cy="72.3" r="70"/>
<rect x="317.8" y="142.8" transform="matrix(0.5 -0.866 0.866 0.5 54.6329 520.2122)" class="st0" width="320" height="140"/>
</svg>
