<?xml version="1.0" encoding="utf-8"?>
<!-- Generator: Adobe Illustrator 27.7.0, SVG Export Plug-In . SVG Version: 6.00 Build 0)  -->
<svg version="1.1" id="Layer_1" xmlns="http://www.w3.org/2000/svg" xmlns:xlink="http://www.w3.org/1999/xlink" x="0px" y="0px"
	 viewBox="0 0 2100 1080" style="enable-background:new 0 0 2100 1080;" xml:space="preserve">
<style type="text/css">
	.st0{fill:#27A58C;stroke:#000000;stroke-width:2.9999;stroke-miterlimit:9.9998;}
	.st1{fill:#27A58C;stroke:#000000;stroke-width:3;stroke-miterlimit:10;}
	.st2{fill:none;stroke:#000000;stroke-width:3;stroke-miterlimit:10;}
	.st3{fill:none;stroke:#FFFFFF;stroke-miterlimit:10;}
</style>
<rect x="1122.7" y="260.4" transform="matrix(0.866 -0.5 0.5 0.866 -95.0741 678.1663)" class="st0" width="190.5" height="512.1"/>
<circle class="st1" cx="832" cy="736" r="96"/>
<circle class="st1" cx="1344" cy="736" r="96"/>
<circle class="st1" cx="1088" cy="288" r="96"/>
<line class="st2" x1="832" y1="736" x2="1344" y2="736"/>
<line class="st2" x1="1088" y1="288" x2="1345.9" y2="738.2"/>
<line class="st2" x1="832" y1="739.1" x2="1088" y2="288"/>
<circle class="st1" cx="224" cy="736" r="96"/>
<circle class="st1" cx="1536" cy="736" r="96"/>
<circle class="st1" cx="1920" cy="736" r="96"/>
<circle class="st1" cx="864" cy="288" r="96"/>
<circle class="st1" cx="1696" cy="288" r="96"/>
<circle class="st1" cx="1312" cy="288" r="96"/>
<rect x="224" y="640" class="st1" width="376" height="192"/>
<rect x="1536" y="640" class="st1" width="384" height="192"/>
<rect x="1312" y="192" class="st1" width="384" height="192"/>
<line class="st2" x1="1728.1" y1="1463" x2="1561.9" y2="1367"/>
<circle class="st3" cx="832" cy="736" r="8"/>
<circle class="st3" cx="1088" cy="288" r="8"/>
<circle class="st3" cx="1344" cy="736" r="8"/>
<line class="st2" x1="653.5" y1="654.1" x2="909.5" y2="203.1"/>
<polygon class="st1" points="1004.7,241 1171,337 915.1,784 748.9,688 "/>
<polygon class="st1" points="777.7,241.4 944,337.4 688.1,784.4 521.9,688.4 "/>
<circle class="st1" cx="608" cy="736" r="96"/>
<circle class="st3" cx="608" cy="736" r="8"/>
<polygon class="st1" points="1605.9,252.3 1787.7,317.4 1628.1,768.1 1446.3,703 "/>
<circle class="st3" cx="1536" cy="736" r="8"/>
<circle class="st3" cx="1696" cy="288" r="8"/>
</svg>
