<?xml version="1.0" encoding="utf-8"?>
<!-- Generator: Adobe Illustrator 28.1.0, SVG Export Plug-In . SVG Version: 6.00 Build 0)  -->
<svg version="1.1" xmlns="http://www.w3.org/2000/svg" xmlns:xlink="http://www.w3.org/1999/xlink" x="0px" y="0px"
	 viewBox="0 0 2234 792" style="enable-background:new 0 0 2234 792;" xml:space="preserve">
<style type="text/css">
	.st0{fill:#231F20;stroke:#FFFFFF;stroke-miterlimit:10;}
	.st1{fill:none;stroke:#FFFFFF;stroke-miterlimit:10;}
	.st2{fill:none;stroke:#FFFFFF;stroke-width:1;stroke-miterlimit:9.9998;}
	.st3{fill:none;stroke:#FFFFFF;stroke-width:1;stroke-miterlimit:10.0008;}
	.st4{fill:none;stroke:#FFFFFF;stroke-miterlimit:9.9999;}
	.st5{fill:none;stroke:#FFFFFF;stroke-width:1;stroke-miterlimit:10.0001;}
</style>
<g id="Layer_1">
	<rect class="st0" width="2234" height="792"/>
</g>
<g id="Layer_2">
	<g>
		<g>
			<g>
				
					<ellipse transform="matrix(0.7071 -0.7071 0.7071 0.7071 212.5005 831.1816)" class="st1" cx="1109.6" cy="159.1" rx="95.2" ry="95.2"/>
				<path class="st1" d="M1109.6,64.6c52,0,94.5,42.4,94.5,94.5s-42.5,94.5-94.5,94.5s-94.5-42.4-94.5-94.5S1057.6,64.6,1109.6,64.6
					 M1109.6,63.1c-53,0-96,43.1-96,96s43,96,96,96s96-43.1,96-96S1162.6,63.1,1109.6,63.1L1109.6,63.1z"/>
			</g>
			<g>
				<circle class="st1" cx="1109.6" cy="159.1" r="11.2"/>
				<path class="st1" d="M1109.6,148.6c5.8,0,10.5,4.6,10.5,10.5s-4.7,10.5-10.5,10.5s-10.5-4.6-10.5-10.5
					S1103.8,148.6,1109.6,148.6 M1109.6,147.1c-6.6,0-12,5.4-12,12s5.4,12,12,12s12-5.4,12-12S1116.2,147.1,1109.6,147.1
					L1109.6,147.1z"/>
			</g>
		</g>
		<line class="st1" x1="1322.1" y1="424.6" x2="1323.1" y2="427.6"/>
		<g>
			<g>
				<circle class="st1" cx="853.6" cy="615.1" r="95.2"/>
				<path class="st1" d="M853.6,520.6c52,0,94.5,42.4,94.5,94.5s-42.5,94.5-94.5,94.5s-94.5-42.4-94.5-94.5S801.6,520.6,853.6,520.6
					 M853.6,519.1c-53,0-96,43.1-96,96s43,96,96,96s96-43.1,96-96S906.6,519.1,853.6,519.1L853.6,519.1z"/>
			</g>
			<g>
				<circle class="st1" cx="853.6" cy="615.1" r="11.2"/>
				<path class="st1" d="M853.6,604.6c5.8,0,10.5,4.6,10.5,10.5s-4.7,10.5-10.5,10.5c-5.9,0-10.5-4.6-10.5-10.5
					S847.7,604.6,853.6,604.6 M853.6,603.1c-6.6,0-12,5.4-12,12s5.4,12,12,12s12-5.4,12-12S860.2,603.1,853.6,603.1L853.6,603.1z"/>
			</g>
		</g>
		<g>
			<g>
				
					<ellipse transform="matrix(0.7071 -0.7071 0.7071 0.7071 -34.9065 1145.6996)" class="st2" cx="1365.5" cy="615" rx="95.2" ry="95.2"/>
				<path class="st1" d="M1365.6,520.6c52.1,0,94.5,42.4,94.5,94.5s-42.4,94.5-94.5,94.5c-52,0-94.5-42.4-94.5-94.5
					S1313.6,520.6,1365.6,520.6 M1365.6,519.1c-53,0-96,43.1-96,96s43,96,96,96c52.9,0,96-43.1,96-96S1418.5,519.1,1365.6,519.1
					L1365.6,519.1z"/>
			</g>
			<g>
				<circle class="st1" cx="1365.6" cy="615.1" r="11.2"/>
				<path class="st1" d="M1365.6,604.6c5.8,0,10.5,4.6,10.5,10.5s-4.7,10.5-10.5,10.5s-10.5-4.6-10.5-10.5
					S1359.8,604.6,1365.6,604.6 M1365.6,603.1c-6.6,0-12,5.4-12,12s5.4,12,12,12s12-5.4,12-12S1372.2,603.1,1365.6,603.1
					L1365.6,603.1z"/>
			</g>
		</g>
		
			<rect x="719.3" y="290.6" transform="matrix(0.4894 -0.8721 0.8721 0.4894 163.8533 1053.1399)" class="st3" width="523.8" height="192"/>
		
			<rect x="1141.6" y="125.6" transform="matrix(0.8721 -0.4894 0.4894 0.8721 -31.2962 655.2282)" class="st3" width="192" height="523.8"/>
	</g>
	<g>
		<g>
			<g>
				
					<ellipse transform="matrix(0.7071 -0.7071 0.7071 0.7071 170.2272 1643.9298)" class="st2" cx="2069.5" cy="616.5" rx="95.2" ry="95.2"/>
				<path class="st1" d="M2069.6,522.1c52.1,0,94.5,42.4,94.5,94.5s-42.4,94.5-94.5,94.5c-52,0-94.5-42.4-94.5-94.5
					S2017.6,522.1,2069.6,522.1 M2069.6,520.6c-53,0-96,43.1-96,96s43,96,96,96c52.9,0,96-43.1,96-96S2122.5,520.6,2069.6,520.6
					L2069.6,520.6z"/>
			</g>
			<g>
				<circle class="st1" cx="2069.6" cy="616.6" r="11.2"/>
				<path class="st1" d="M2069.6,606.1c5.8,0,10.5,4.6,10.5,10.5s-4.7,10.5-10.5,10.5s-10.5-4.6-10.5-10.5
					S2063.8,606.1,2069.6,606.1 M2069.6,604.6c-6.6,0-12,5.4-12,12s5.4,12,12,12s12-5.4,12-12S2076.2,604.6,2069.6,604.6
					L2069.6,604.6z"/>
			</g>
		</g>
		<g>
			<g>
				<circle class="st1" cx="1557.6" cy="615.8" r="95.2"/>
				<path class="st1" d="M1557.6,521.3c52,0,94.5,42.4,94.5,94.5s-42.5,94.5-94.5,94.5s-94.5-42.4-94.5-94.5
					S1505.6,521.3,1557.6,521.3 M1557.6,519.8c-53,0-96,43.1-96,96s43,96,96,96s96-43.1,96-96S1610.6,519.8,1557.6,519.8
					L1557.6,519.8z"/>
			</g>
			<g>
				<circle class="st1" cx="1557.6" cy="615.8" r="11.2"/>
				<path class="st1" d="M1557.6,605.3c5.8,0,10.5,4.6,10.5,10.5s-4.7,10.5-10.5,10.5c-5.9,0-10.5-4.6-10.5-10.5
					S1551.7,605.3,1557.6,605.3 M1557.6,603.8c-6.6,0-12,5.4-12,12s5.4,12,12,12s12-5.4,12-12S1564.2,603.8,1557.6,603.8
					L1557.6,603.8z"/>
			</g>
		</g>
		<g>
			<g>
				
					<ellipse transform="matrix(0.7071 -0.7071 0.7071 0.7071 419.6595 1328.5502)" class="st2" cx="1813.5" cy="157.7" rx="95.2" ry="95.2"/>
				<path class="st1" d="M1813.6,63.3c52.1,0,94.5,42.4,94.5,94.5s-42.4,94.5-94.5,94.5c-52,0-94.5-42.4-94.5-94.5
					S1761.6,63.3,1813.6,63.3 M1813.6,61.8c-53,0-96,43.1-96,96s43,96,96,96c52.9,0,96-43.1,96-96S1866.5,61.8,1813.6,61.8
					L1813.6,61.8z"/>
			</g>
			<g>
				<circle class="st1" cx="1813.6" cy="157.8" r="11.2"/>
				<path class="st1" d="M1813.6,147.3c5.8,0,10.5,4.6,10.5,10.5s-4.7,10.5-10.5,10.5s-10.5-4.6-10.5-10.5
					S1807.8,147.3,1813.6,147.3 M1813.6,145.8c-6.6,0-12,5.4-12,12s5.4,12,12,12s12-5.4,12-12S1820.2,145.8,1813.6,145.8
					L1813.6,145.8z"/>
			</g>
		</g>
		<g>
			<g>
				<circle class="st1" cx="1301.6" cy="157" r="95.2"/>
				<path class="st1" d="M1301.6,62.5c52,0,94.5,42.4,94.5,94.5s-42.5,94.5-94.5,94.5s-94.5-42.4-94.5-94.5S1249.6,62.5,1301.6,62.5
					 M1301.6,61c-53,0-96,43.1-96,96s43,96,96,96s96-43.1,96-96S1354.6,61,1301.6,61L1301.6,61z"/>
			</g>
			<g>
				<circle class="st1" cx="1301.6" cy="157" r="11.2"/>
				<path class="st1" d="M1301.6,146.5c5.8,0,10.5,4.6,10.5,10.5s-4.7,10.5-10.5,10.5c-5.9,0-10.5-4.6-10.5-10.5
					S1295.7,146.5,1301.6,146.5 M1301.6,145c-6.6,0-12,5.4-12,12s5.4,12,12,12s12-5.4,12-12S1308.2,145,1301.6,145L1301.6,145z"/>
			</g>
		</g>
		<rect x="1301.6" y="61" class="st1" width="512" height="192"/>
		<rect x="1557.6" y="520" class="st1" width="512" height="192"/>
		
			<rect x="1423.6" y="290.5" transform="matrix(0.4894 -0.8721 0.8721 0.4894 523.6093 1667.2581)" class="st3" width="523.8" height="192"/>
	</g>
	<g>
		<g>
			<g>
				<circle class="st1" cx="917.6" cy="157" r="95.2"/>
				<path class="st1" d="M917.6,62.5c52,0,94.5,42.4,94.5,94.5s-42.5,94.5-94.5,94.5s-94.5-42.4-94.5-94.5S865.6,62.5,917.6,62.5
					 M917.6,61c-53,0-96,43.1-96,96s43,96,96,96s96-43.1,96-96S970.6,61,917.6,61L917.6,61z"/>
			</g>
			<g>
				<circle class="st1" cx="917.6" cy="157" r="11.2"/>
				<path class="st1" d="M917.6,146.5c5.8,0,10.5,4.6,10.5,10.5s-4.7,10.5-10.5,10.5s-10.5-4.6-10.5-10.5S911.8,146.5,917.6,146.5
					 M917.6,145c-6.6,0-12,5.4-12,12s5.4,12,12,12s12-5.4,12-12S924.2,145,917.6,145L917.6,145z"/>
			</g>
		</g>
		<g>
			<g>
				<circle class="st1" cx="661.6" cy="613" r="95.2"/>
				<path class="st1" d="M661.6,518.5c52,0,94.5,42.4,94.5,94.5s-42.5,94.5-94.5,94.5s-94.5-42.4-94.5-94.5S609.6,518.5,661.6,518.5
					 M661.6,517c-53,0-96,43.1-96,96s43,96,96,96s96-43.1,96-96S714.6,517,661.6,517L661.6,517z"/>
			</g>
			<g>
				<circle class="st1" cx="661.6" cy="613" r="11.2"/>
				<path class="st1" d="M661.6,602.5c5.8,0,10.5,4.6,10.5,10.5s-4.7,10.5-10.5,10.5c-5.9,0-10.5-4.6-10.5-10.5
					S655.7,602.5,661.6,602.5 M661.6,601c-6.6,0-12,5.4-12,12s5.4,12,12,12s12-5.4,12-12S668.2,601,661.6,601L661.6,601z"/>
			</g>
		</g>
		
			<rect x="527.3" y="288.6" transform="matrix(0.4894 -0.8721 0.8721 0.4894 67.636 884.6432)" class="st3" width="523.8" height="192"/>
		<g>
			<g>
				<ellipse class="st4" cx="661.6" cy="612.9" rx="95.2" ry="95.2"/>
				<path class="st1" d="M661.6,518.5c52.1,0,94.5,42.4,94.5,94.5s-42.4,94.5-94.5,94.5c-52,0-94.5-42.4-94.5-94.5
					S609.6,518.5,661.6,518.5 M661.6,517c-53,0-96,43.1-96,96s43,96,96,96c52.9,0,96-43.1,96-96S714.5,517,661.6,517L661.6,517z"/>
			</g>
			<g>
				<circle class="st1" cx="661.6" cy="613" r="11.2"/>
				<path class="st1" d="M661.6,602.5c5.8,0,10.5,4.6,10.5,10.5s-4.7,10.5-10.5,10.5s-10.5-4.6-10.5-10.5S655.8,602.5,661.6,602.5
					 M661.6,601c-6.6,0-12,5.4-12,12s5.4,12,12,12s12-5.4,12-12S668.2,601,661.6,601L661.6,601z"/>
			</g>
		</g>
		<g>
			<g>
				<circle class="st1" cx="149.6" cy="612.2" r="95.2"/>
				<path class="st1" d="M149.6,517.7c52,0,94.5,42.4,94.5,94.5s-42.5,94.5-94.5,94.5s-94.5-42.4-94.5-94.5S97.6,517.7,149.6,517.7
					 M149.6,516.2c-53,0-96,43.1-96,96s43,96,96,96s96-43.1,96-96S202.6,516.2,149.6,516.2L149.6,516.2z"/>
			</g>
			<g>
				
					<ellipse transform="matrix(3.579827e-03 -1 1 3.579827e-03 -463.0846 759.5562)" class="st5" cx="149.6" cy="612.2" rx="11.2" ry="11.2"/>
				<path class="st1" d="M149.6,601.7c5.8,0,10.5,4.6,10.5,10.5s-4.7,10.5-10.5,10.5c-5.9,0-10.5-4.6-10.5-10.5
					S143.7,601.7,149.6,601.7 M149.6,600.2c-6.6,0-12,5.4-12,12s5.4,12,12,12s12-5.4,12-12S156.2,600.2,149.6,600.2L149.6,600.2z"/>
			</g>
		</g>
		<rect x="149.6" y="516.3" class="st1" width="512" height="192"/>
	</g>
</g>
</svg>
