<?xml version="1.0" encoding="utf-8"?>
<!-- Generator: Adobe Illustrator 28.1.0, SVG Export Plug-In . SVG Version: 6.00 Build 0)  -->
<svg version="1.1" id="Layer_1" xmlns="http://www.w3.org/2000/svg" xmlns:xlink="http://www.w3.org/1999/xlink" x="0px" y="0px"
	 viewBox="0 0 1258 650" style="enable-background:new 0 0 1258 650;" xml:space="preserve">
<style type="text/css">
	.st0{fill:#A9A5C6;}
	.st1{fill:#4A668C;}
	.st2{fill:none;}
</style>
<rect x="629.5" y="437" class="st0" width="362.7" height="90"/>
<rect x="266.8" y="437" class="st0" width="362.7" height="90"/>
<rect x="446.8" y="122" class="st0" width="362.7" height="90"/>
<circle class="st1" cx="809.5" cy="482" r="45"/>
<line class="st2" x1="839.2" y1="461.6" x2="840.2" y2="464.6"/>
<circle class="st1" cx="629.5" cy="167" r="45"/>
<circle class="st1" cx="449.5" cy="482" r="45"/>
<line class="st2" x1="449.5" y1="482" x2="629.5" y2="167"/>
<line class="st2" x1="809.5" y1="482" x2="629.5" y2="167"/>
<rect x="673.5" y="143" transform="matrix(0.8678 -0.497 0.497 0.8678 -65.5254 399.8013)" class="st1" width="90" height="360"/>
<line class="st2" x1="629.5" y1="122" x2="629.5" y2="212"/>
<line class="st2" x1="584.5" y1="167" x2="674.5" y2="167"/>
<circle class="st1" cx="629.5" cy="167" r="2"/>
<rect x="358.8" y="279.2" transform="matrix(0.497 -0.8678 0.8678 0.497 -9.5695 631.8252)" class="st1" width="362.7" height="90"/>
<rect x="538.6" y="280.2" transform="matrix(0.497 -0.8678 0.8678 0.497 79.9682 788.3029)" class="st0" width="362.7" height="90"/>
<circle class="st0" cx="809.5" cy="167" r="45"/>
<circle class="st0" cx="629.5" cy="482" r="45"/>
<circle class="st0" cx="269.5" cy="482" r="45"/>
<circle class="st0" cx="449.5" cy="167" r="45"/>
<circle class="st0" cx="989.5" cy="482" r="45"/>
<circle class="st1" cx="629.5" cy="482" r="45"/>
</svg>
