<?xml version="1.0" encoding="utf-8"?>
<!-- Generator: Adobe Illustrator 28.1.0, SVG Export Plug-In . SVG Version: 6.00 Build 0)  -->
<svg version="1.1" id="Layer_1" xmlns="http://www.w3.org/2000/svg" xmlns:xlink="http://www.w3.org/1999/xlink" x="0px" y="0px"
	 viewBox="0 0 800 440" style="enable-background:new 0 0 800 440;" xml:space="preserve">
<style type="text/css">
	.st0{fill:#436C6D;}
	.st1{fill:none;}
	.st2{fill:#6FA289;}
	.st3{fill:none;stroke:#6EA288;stroke-width:36;stroke-linecap:round;stroke-miterlimit:10;}
</style>
<g>
	<rect x="69.2" y="290" class="st0" width="330.9" height="140"/>
	<line class="st1" x1="68.8" y1="360.2" x2="400.7" y2="360.2"/>
	<line class="st1" x1="234.2" y1="290" x2="235.7" y2="430"/>
</g>
<g>
	<rect x="399.8" y="290" class="st0" width="321.9" height="140"/>
	<line class="st1" x1="399.5" y1="360.2" x2="722.2" y2="360.2"/>
	<line class="st1" x1="560.4" y1="290" x2="561.8" y2="430"/>
</g>
<g>
	<circle class="st0" cx="70.2" cy="360" r="70"/>
	<g>
		<line class="st1" x1="69.9" y1="290" x2="69.9" y2="430"/>
		<line class="st1" x1="0" y1="360.4" x2="140" y2="360.4"/>
	</g>
</g>
<g>
	<circle class="st0" cx="722.7" cy="360" r="70"/>
	<g>
		<line class="st1" x1="722.5" y1="290" x2="722.5" y2="430"/>
		<line class="st1" x1="652.5" y1="360.4" x2="792.5" y2="360.4"/>
	</g>
</g>
<circle class="st0" cx="400" cy="359.8" r="70"/>
<g>
	<rect x="240.3" y="10" class="st0" width="319.2" height="140"/>
	<line class="st1" x1="240" y1="80.2" x2="560" y2="80.2"/>
	<line class="st1" x1="399.5" y1="10" x2="400.9" y2="150"/>
</g>
<g>
	<rect x="238.6" y="290" class="st1" width="322" height="140"/>
	<line class="st1" x1="238.3" y1="360.2" x2="561.1" y2="360.2"/>
	<line class="st1" x1="399.2" y1="290" x2="400.6" y2="430"/>
</g>
<polygon class="st1" points="399.7,80.7 238.3,360.2 561.1,360.2 "/>
<g>
	<circle class="st0" cx="240" cy="80" r="70"/>
	<g>
		<line class="st1" x1="239.9" y1="10" x2="239.9" y2="150"/>
		<line class="st1" x1="170" y1="80.4" x2="310" y2="80.4"/>
	</g>
</g>
<g>
	<line class="st1" x1="560.9" y1="10.3" x2="560.9" y2="150.3"/>
	<line class="st1" x1="491" y1="80.7" x2="631" y2="80.7"/>
</g>
<g>
	<line class="st1" x1="560.6" y1="290" x2="560.6" y2="430"/>
	<line class="st1" x1="490.7" y1="360.4" x2="630.7" y2="360.4"/>
</g>
<g>
	<circle class="st0" cx="562" cy="80" r="70"/>
	<g>
		<line class="st1" x1="561.9" y1="10" x2="561.9" y2="150"/>
		<line class="st1" x1="492" y1="80.4" x2="632" y2="80.4"/>
	</g>
</g>
<g>
	<rect x="411.2" y="59.8" transform="matrix(0.866 -0.5 0.5 0.866 -45.9314 270.1834)" class="st2" width="140" height="322"/>
	<line class="st1" x1="400.4" y1="81.2" x2="561.8" y2="360.8"/>
	<line class="st1" x1="541.7" y1="185.4" x2="421.1" y2="256.7"/>
</g>
<g>
	<rect x="320.1" y="150" transform="matrix(0.5 -0.866 0.866 0.5 50.0434 526.6064)" class="st0" width="322" height="140"/>
	<line class="st1" x1="400.6" y1="359.8" x2="562" y2="80.2"/>
	<line class="st1" x1="420.3" y1="185.3" x2="542.2" y2="254.1"/>
</g>
<g>
	<circle class="st2" cx="400.5" cy="80" r="70"/>
	<g>
		<line class="st1" x1="400.2" y1="10" x2="400.2" y2="150"/>
		<line class="st1" x1="330.3" y1="80.4" x2="470.3" y2="80.4"/>
	</g>
</g>
<g>
	<circle class="st2" cx="238.8" cy="360" r="70"/>
	<g>
		<line class="st1" x1="238.5" y1="290" x2="238.5" y2="430"/>
		<line class="st1" x1="168.6" y1="360.4" x2="308.6" y2="360.4"/>
	</g>
</g>
<circle class="st2" cx="560.8" cy="360" r="70"/>
<g>
	<rect x="157.8" y="150.8" transform="matrix(0.5 -0.866 0.866 0.5 -31.8132 386.5199)" class="st2" width="322" height="140"/>
	<line class="st1" x1="238.3" y1="360.6" x2="399.7" y2="81"/>
	<line class="st1" x1="258" y1="186.1" x2="379.9" y2="254.9"/>
</g>
<g>
	<line class="st3" x1="240" y1="79" x2="590" y2="79"/>
	<line class="st3" x1="68.8" y1="359" x2="370" y2="359"/>
	<line class="st3" x1="430" y1="359" x2="720" y2="359"/>
	<line class="st3" x1="430" y1="359" x2="590" y2="79"/>
	<line class="st3" x1="369.5" y1="358.5" x2="499.5" y2="133.5"/>
</g>
</svg>
