<?xml version="1.0" encoding="utf-8"?>
<!-- Generator: Adobe Illustrator 28.1.0, SVG Export Plug-In . SVG Version: 6.00 Build 0)  -->
<svg version="1.1" id="Layer_1" xmlns="http://www.w3.org/2000/svg" xmlns:xlink="http://www.w3.org/1999/xlink" x="0px" y="0px"
	 viewBox="0 0 2234 792" style="enable-background:new 0 0 2234 792;" xml:space="preserve">
<style type="text/css">
	.st0{fill:none;stroke:#231F20;stroke-width:2;stroke-miterlimit:9.9995;}
	.st1{fill:none;stroke:#231F20;stroke-width:2;stroke-miterlimit:10;}
	.st2{fill:none;stroke:#231F20;stroke-width:2;stroke-miterlimit:9.9993;}
	.st3{fill:none;stroke:#231F20;stroke-width:2.0002;stroke-miterlimit:10.0028;}
	.st4{fill:none;stroke:#231F20;stroke-width:2;stroke-miterlimit:9.9999;}
	.st5{fill:none;stroke:#231F20;stroke-width:2;stroke-miterlimit:10.0006;}
</style>
<g>
	<g>
		<g>
			
				<ellipse transform="matrix(0.7071 -0.7071 0.7071 0.7071 207.119 836.6714)" class="st0" cx="1113.5" cy="168.3" rx="95.2" ry="95.2"/>
			<path class="st1" d="M1113.5,73.8c52,0,94.5,42.4,94.5,94.5s-42.5,94.5-94.5,94.5s-94.5-42.4-94.5-94.5S1061.5,73.8,1113.5,73.8
				 M1113.5,72.3c-53,0-96,43.1-96,96s43,96,96,96s96-43.1,96-96S1166.5,72.3,1113.5,72.3L1113.5,72.3z"/>
		</g>
		<g>
			<circle class="st1" cx="1113.5" cy="168.3" r="11.2"/>
			<path class="st1" d="M1113.5,157.8c5.8,0,10.5,4.6,10.5,10.5s-4.7,10.5-10.5,10.5s-10.5-4.6-10.5-10.5S1107.7,157.8,1113.5,157.8
				 M1113.5,156.3c-6.6,0-12,5.4-12,12s5.4,12,12,12s12-5.4,12-12S1120.1,156.3,1113.5,156.3L1113.5,156.3z"/>
		</g>
	</g>
	<line class="st1" x1="1326" y1="433.8" x2="1327" y2="436.8"/>
	<g>
		<g>
			<circle class="st1" cx="857.5" cy="624.3" r="95.2"/>
			<path class="st1" d="M857.5,529.8c52,0,94.5,42.4,94.5,94.5s-42.5,94.5-94.5,94.5S763,676.4,763,624.3S805.5,529.8,857.5,529.8
				 M857.5,528.3c-53,0-96,43.1-96,96s43,96,96,96s96-43.1,96-96S910.5,528.3,857.5,528.3L857.5,528.3z"/>
		</g>
		<g>
			<circle class="st1" cx="857.5" cy="624.3" r="11.2"/>
			<path class="st1" d="M857.5,613.8c5.8,0,10.5,4.6,10.5,10.5s-4.7,10.5-10.5,10.5c-5.9,0-10.5-4.6-10.5-10.5
				S851.6,613.8,857.5,613.8 M857.5,612.3c-6.6,0-12,5.4-12,12s5.4,12,12,12s12-5.4,12-12S864.1,612.3,857.5,612.3L857.5,612.3z"/>
		</g>
	</g>
	<g>
		<g>
			
				<ellipse transform="matrix(0.7071 -0.7071 0.7071 0.7071 -40.2909 1151.1565)" class="st2" cx="1369.4" cy="624.2" rx="95.2" ry="95.2"/>
			<path class="st1" d="M1369.5,529.8c52.1,0,94.5,42.4,94.5,94.5s-42.4,94.5-94.5,94.5c-52,0-94.5-42.4-94.5-94.5
				S1317.5,529.8,1369.5,529.8 M1369.5,528.3c-53,0-96,43.1-96,96s43,96,96,96c52.9,0,96-43.1,96-96S1422.4,528.3,1369.5,528.3
				L1369.5,528.3z"/>
		</g>
		<g>
			<circle class="st1" cx="1369.5" cy="624.3" r="11.2"/>
			<path class="st1" d="M1369.5,613.8c5.8,0,10.5,4.6,10.5,10.5s-4.7,10.5-10.5,10.5s-10.5-4.6-10.5-10.5S1363.7,613.8,1369.5,613.8
				 M1369.5,612.3c-6.6,0-12,5.4-12,12s5.4,12,12,12s12-5.4,12-12S1376.1,612.3,1369.5,612.3L1369.5,612.3z"/>
		</g>
	</g>
	
		<rect x="723.4" y="299.8" transform="matrix(0.4894 -0.8721 0.8721 0.4894 157.9547 1061.3013)" class="st3" width="523.8" height="192"/>
	
		<rect x="1145.8" y="134.7" transform="matrix(0.8721 -0.4894 0.4894 0.8721 -35.2169 658.459)" class="st3" width="192" height="523.8"/>
</g>
<g>
	<g>
		<g>
			
				<ellipse transform="matrix(0.7071 -0.7071 0.7071 0.7071 106.1215 1514.8044)" class="st2" cx="1881.6" cy="629.3" rx="95.2" ry="95.2"/>
			<path class="st1" d="M1881.7,534.9c52.1,0,94.5,42.4,94.5,94.5s-42.4,94.5-94.5,94.5c-52,0-94.5-42.4-94.5-94.5
				S1829.7,534.9,1881.7,534.9 M1881.7,533.4c-53,0-96,43.1-96,96s43,96,96,96c52.9,0,96-43.1,96-96S1934.6,533.4,1881.7,533.4
				L1881.7,533.4z"/>
		</g>
		<g>
			<circle class="st1" cx="1881.7" cy="629.4" r="11.2"/>
			<path class="st1" d="M1881.7,618.9c5.8,0,10.5,4.6,10.5,10.5s-4.7,10.5-10.5,10.5s-10.5-4.6-10.5-10.5S1875.9,618.9,1881.7,618.9
				 M1881.7,617.4c-6.6,0-12,5.4-12,12s5.4,12,12,12s12-5.4,12-12S1888.3,617.4,1881.7,617.4L1881.7,617.4z"/>
		</g>
	</g>
	<g>
		<g>
			<circle class="st1" cx="1369.7" cy="628.6" r="95.2"/>
			<path class="st1" d="M1369.7,534.1c52,0,94.5,42.4,94.5,94.5s-42.5,94.5-94.5,94.5s-94.5-42.4-94.5-94.5
				S1317.7,534.1,1369.7,534.1 M1369.7,532.6c-53,0-96,43.1-96,96s43,96,96,96s96-43.1,96-96S1422.7,532.6,1369.7,532.6
				L1369.7,532.6z"/>
		</g>
		<g>
			<circle class="st1" cx="1369.7" cy="628.6" r="11.2"/>
			<path class="st1" d="M1369.7,618.1c5.8,0,10.5,4.6,10.5,10.5s-4.7,10.5-10.5,10.5c-5.9,0-10.5-4.6-10.5-10.5
				S1363.8,618.1,1369.7,618.1 M1369.7,616.6c-6.6,0-12,5.4-12,12s5.4,12,12,12s12-5.4,12-12S1376.3,616.6,1369.7,616.6
				L1369.7,616.6z"/>
		</g>
	</g>
	<g>
		<g>
			
				<ellipse transform="matrix(0.7071 -0.7071 0.7071 0.7071 355.5595 1199.4131)" class="st2" cx="1625.6" cy="170.5" rx="95.2" ry="95.2"/>
			<path class="st1" d="M1625.7,76.1c52.1,0,94.5,42.4,94.5,94.5s-42.4,94.5-94.5,94.5c-52,0-94.5-42.4-94.5-94.5
				S1573.7,76.1,1625.7,76.1 M1625.7,74.6c-53,0-96,43.1-96,96s43,96,96,96c52.9,0,96-43.1,96-96S1678.6,74.6,1625.7,74.6
				L1625.7,74.6z"/>
		</g>
		<g>
			<circle class="st1" cx="1625.7" cy="170.6" r="11.2"/>
			<path class="st1" d="M1625.7,160.1c5.8,0,10.5,4.6,10.5,10.5s-4.7,10.5-10.5,10.5s-10.5-4.6-10.5-10.5S1619.9,160.1,1625.7,160.1
				 M1625.7,158.6c-6.6,0-12,5.4-12,12s5.4,12,12,12s12-5.4,12-12S1632.3,158.6,1625.7,158.6L1625.7,158.6z"/>
		</g>
	</g>
	<g>
		<g>
			<circle class="st1" cx="1113.7" cy="169.8" r="95.2"/>
			<path class="st1" d="M1113.7,75.3c52,0,94.5,42.4,94.5,94.5s-42.5,94.5-94.5,94.5s-94.5-42.4-94.5-94.5S1061.7,75.3,1113.7,75.3
				 M1113.7,73.8c-53,0-96,43.1-96,96s43,96,96,96s96-43.1,96-96S1166.7,73.8,1113.7,73.8L1113.7,73.8z"/>
		</g>
		<g>
			<circle class="st1" cx="1113.7" cy="169.8" r="11.2"/>
			<path class="st1" d="M1113.7,159.3c5.8,0,10.5,4.6,10.5,10.5s-4.7,10.5-10.5,10.5c-5.9,0-10.5-4.6-10.5-10.5
				S1107.8,159.3,1113.7,159.3 M1113.7,157.8c-6.6,0-12,5.4-12,12s5.4,12,12,12s12-5.4,12-12S1120.3,157.8,1113.7,157.8
				L1113.7,157.8z"/>
		</g>
	</g>
	<rect x="1113.7" y="73.8" class="st1" width="512" height="192"/>
	<rect x="1369.7" y="532.8" class="st1" width="512" height="192"/>
	
		<rect x="1235.9" y="303.1" transform="matrix(0.4894 -0.8721 0.8721 0.4894 416.7495 1510.0432)" class="st3" width="523.8" height="192"/>
</g>
<g>
	<g>
		<g>
			<circle class="st1" cx="1113.5" cy="168.2" r="95.2"/>
			<path class="st1" d="M1113.5,73.7c52,0,94.5,42.4,94.5,94.5s-42.5,94.5-94.5,94.5s-94.5-42.4-94.5-94.5S1061.5,73.7,1113.5,73.7
				 M1113.5,72.2c-53,0-96,43.1-96,96s43,96,96,96s96-43.1,96-96S1166.5,72.2,1113.5,72.2L1113.5,72.2z"/>
		</g>
		<g>
			<circle class="st1" cx="1113.5" cy="168.2" r="11.2"/>
			<path class="st1" d="M1113.5,157.7c5.8,0,10.5,4.6,10.5,10.5s-4.7,10.5-10.5,10.5s-10.5-4.6-10.5-10.5S1107.7,157.7,1113.5,157.7
				 M1113.5,156.2c-6.6,0-12,5.4-12,12s5.4,12,12,12s12-5.4,12-12S1120.1,156.2,1113.5,156.2L1113.5,156.2z"/>
		</g>
	</g>
	<g>
		<g>
			<circle class="st1" cx="857.5" cy="624.2" r="95.2"/>
			<path class="st1" d="M857.5,529.7c52,0,94.5,42.4,94.5,94.5s-42.5,94.5-94.5,94.5S763,676.3,763,624.2S805.5,529.7,857.5,529.7
				 M857.5,528.2c-53,0-96,43.1-96,96s43,96,96,96s96-43.1,96-96S910.5,528.2,857.5,528.2L857.5,528.2z"/>
		</g>
		<g>
			<circle class="st1" cx="857.5" cy="624.2" r="11.2"/>
			<path class="st1" d="M857.5,613.7c5.8,0,10.5,4.6,10.5,10.5s-4.7,10.5-10.5,10.5c-5.9,0-10.5-4.6-10.5-10.5
				S851.6,613.7,857.5,613.7 M857.5,612.2c-6.6,0-12,5.4-12,12s5.4,12,12,12s12-5.4,12-12S864.1,612.2,857.5,612.2L857.5,612.2z"/>
		</g>
	</g>
	
		<rect x="723.5" y="299.7" transform="matrix(0.4894 -0.8721 0.8721 0.4894 158.115 1061.3688)" class="st3" width="523.8" height="192"/>
	<g>
		<g>
			<ellipse class="st4" cx="857.5" cy="624.1" rx="95.2" ry="95.2"/>
			<path class="st1" d="M857.5,529.7c52.1,0,94.5,42.4,94.5,94.5s-42.4,94.5-94.5,94.5c-52,0-94.5-42.4-94.5-94.5
				S805.5,529.7,857.5,529.7 M857.5,528.2c-53,0-96,43.1-96,96s43,96,96,96c52.9,0,96-43.1,96-96S910.4,528.2,857.5,528.2
				L857.5,528.2z"/>
		</g>
		<g>
			<circle class="st1" cx="857.5" cy="624.2" r="11.2"/>
			<path class="st1" d="M857.5,613.7c5.8,0,10.5,4.6,10.5,10.5s-4.7,10.5-10.5,10.5s-10.5-4.6-10.5-10.5S851.7,613.7,857.5,613.7
				 M857.5,612.2c-6.6,0-12,5.4-12,12s5.4,12,12,12s12-5.4,12-12S864.1,612.2,857.5,612.2L857.5,612.2z"/>
		</g>
	</g>
	<g>
		<g>
			<circle class="st1" cx="345.5" cy="623.4" r="95.2"/>
			<path class="st1" d="M345.5,528.9c52,0,94.5,42.4,94.5,94.5s-42.5,94.5-94.5,94.5S251,675.5,251,623.4S293.5,528.9,345.5,528.9
				 M345.5,527.4c-53,0-96,43.1-96,96s43,96,96,96s96-43.1,96-96S398.5,527.4,345.5,527.4L345.5,527.4z"/>
		</g>
		<g>
			
				<ellipse transform="matrix(3.579648e-03 -1 1 3.579648e-03 -278.9211 966.5861)" class="st5" cx="345.6" cy="623.3" rx="11.2" ry="11.2"/>
			<path class="st1" d="M345.5,612.9c5.8,0,10.5,4.6,10.5,10.5s-4.7,10.5-10.5,10.5c-5.9,0-10.5-4.6-10.5-10.5
				S339.6,612.9,345.5,612.9 M345.5,611.4c-6.6,0-12,5.4-12,12s5.4,12,12,12s12-5.4,12-12S352.1,611.4,345.5,611.4L345.5,611.4z"/>
		</g>
	</g>
	<rect x="345.5" y="527.5" class="st1" width="512" height="192"/>
</g>
</svg>
