<?xml version="1.0" encoding="utf-8"?>
<!-- Generator: Adobe Illustrator 28.1.0, SVG Export Plug-In . SVG Version: 6.00 Build 0)  -->
<svg version="1.1" id="Layer_1" xmlns="http://www.w3.org/2000/svg" xmlns:xlink="http://www.w3.org/1999/xlink" x="0px" y="0px"
	 viewBox="0 0 788 425" style="enable-background:new 0 0 788 425;" xml:space="preserve">
<style type="text/css">
	.st0{fill:#FFFFFF;}
	.st1{fill:none;}
	.st2{fill:#416B6B;}
	.st3{fill:#6FA288;}
</style>
<polygon class="st0" points="394.1,72.3 233.6,349.3 554.6,349.3 "/>
<line class="st1" x1="394.2" y1="72.8" x2="234.2" y2="348.9"/>
<line class="st1" x1="394.2" y1="72.8" x2="554.2" y2="348.9"/>
<line class="st1" x1="234.2" y1="348.9" x2="554.2" y2="348.9"/>
<g>
	<rect x="395.2" y="277.3" class="st2" width="320" height="140"/>
	<rect x="234.1" class="st2" width="320" height="140"/>
	<circle class="st2" cx="562" cy="70" r="70"/>
	<g>
		<circle class="st2" cx="234.2" cy="70" r="70"/>
	</g>
	<circle class="st2" cx="715.2" cy="347.3" r="70"/>
	<rect x="319.9" y="140.8" transform="matrix(0.5 -0.866 0.866 0.5 57.3542 521.0283)" class="st2" width="320" height="140"/>
	<circle class="st2" cx="400" cy="347.9" r="70"/>
</g>
<circle class="st2" cx="562" cy="68.6" r="70"/>
<rect x="81.2" y="278.3" class="st2" width="320" height="140"/>
<circle class="st2" cx="401.2" cy="348.1" r="70"/>
<circle class="st2" cx="81.2" cy="347.3" r="70"/>
<g>
	<rect x="159.1" y="139.6" transform="matrix(0.5 -0.866 0.866 0.5 -21.9308 381.1525)" class="st3" width="320" height="140"/>
	<circle class="st3" cx="238.7" cy="349.1" r="70"/>
	<circle class="st3" cx="559" cy="348" r="70"/>
	<circle class="st3" cx="399" cy="70" r="70"/>
	<rect x="319.6" y="139.6" transform="matrix(0.5 0.866 -0.866 0.5 421.3107 -310.5937)" class="st3" width="320" height="140"/>
</g>
<rect x="325" y="133.1" transform="matrix(0.5 -0.866 0.866 0.5 66.6476 521.5641)" class="st2" width="320" height="140"/>
</svg>
