<?xml version="1.0" encoding="utf-8"?>
<!-- Generator: Adobe Illustrator 27.7.0, SVG Export Plug-In . SVG Version: 6.00 Build 0)  -->
<svg version="1.1" id="Layer_1" xmlns="http://www.w3.org/2000/svg" xmlns:xlink="http://www.w3.org/1999/xlink" x="0px" y="0px"
	 viewBox="0 0 1416 576" style="enable-background:new 0 0 1416 576;" xml:space="preserve">
<style type="text/css">
	.st0{fill:#27A58C;}
	.st1{fill:none;stroke:#000000;stroke-width:16;stroke-miterlimit:10;}
</style>
<path class="st0" d="M939.2,472.4L779.9,46.4l-0.2,0.1C769.7,18.8,743.2-1,712-1c-31.1,0-57.6,19.7-67.6,47.3l-0.9-0.3l-161.1,431
	l0.5,0.2c-3.1,8-4.8,16.8-4.8,25.9c0,39.8,32.2,72,72,72c33.8,0,62.2-23.4,69.9-54.8l91.7-245.2l94.5,252.8l0.2-0.1
	c10.1,27.6,36.6,47.3,67.7,47.3c39.8,0,72-32.2,72-72C946,492.1,943.6,481.7,939.2,472.4z"/>
<g id="jazsvg_3_">
	<circle class="st1" cx="712" cy="499.9" r="72"/>
</g>
<path class="st1" d="M1357.7,438.8c-1.3,0-2.5,0-3.8,0.1h-219.8l121.4-324.6c5.9-10.4,9.2-22.5,9.2-35.3c0-36.6-27.4-66.9-62.8-71.4
	V7h-9.2h-317v0.1c-39.3,0.5-71,32.5-71,72c0,39.8,32.2,72,72,72c1.3,0,2.5,0,3.8-0.1h184.4c11.2,0,18.9,11.1,15,21.6L965.8,477.8
	c-5.2,9.9-8.1,21.2-8.1,33.2c0,39.8,32.2,72,72,72c1.3,0,2.5,0,3.8-0.1h320.4c1.3,0.1,2.5,0.1,3.8,0.1c39.8,0,72-32.3,72-72.1
	C1429.7,471.1,1397.5,438.8,1357.7,438.8z"/>
<path class="st1" d="M626,71c0-39.8-32.2-72-72-72c-31.4,0-58.1,20.1-68,48.2L342.6,431H73c-39.8,0-72,32.2-72,72s32.2,72,72,72
	h319.1v0c30.9,0,57.3-19.6,67.4-47l0.4,0.2l161.1-431l0,0C624.2,89.1,626,80.2,626,71z"/>
</svg>
