<?xml version="1.0" encoding="utf-8"?>
<!-- Generator: Adobe Illustrator 27.6.1, SVG Export Plug-In . SVG Version: 6.00 Build 0)  -->
<svg version="1.1" id="Layer_1" xmlns="http://www.w3.org/2000/svg" xmlns:xlink="http://www.w3.org/1999/xlink" x="0px" y="0px"
	 viewBox="0 0 1920 1080" style="enable-background:new 0 0 1920 1080;" xml:space="preserve">
<style type="text/css">
	.st0{fill:#FFFFFF;stroke:#336699;stroke-miterlimit:10;}
	.st1{fill:#80ADA0;stroke:#80ADA0;stroke-width:2;stroke-miterlimit:10;}
	.st2{fill:#80ADA0;stroke:#80ADA0;stroke-miterlimit:10;}
	.st3{fill:none;stroke:#80ADA0;stroke-miterlimit:10;}
	.st4{fill:#80ADA0;stroke:#80ADA0;stroke-width:1;stroke-miterlimit:10.0008;}
	.st5{fill:#0C3A64;stroke:#0C3A64;stroke-width:2;stroke-miterlimit:10;}
	.st6{fill:#336699;stroke:#336699;stroke-miterlimit:10;}
	.st7{fill:#336699;stroke:#336699;stroke-width:1;stroke-miterlimit:10.0008;}
	.st8{fill:#336699;stroke:#336699;stroke-width:2;stroke-miterlimit:10;}
	.st9{fill:none;stroke:#336699;stroke-width:2;stroke-miterlimit:10;}
	.st10{fill:#FFFF00;stroke:#336699;stroke-miterlimit:10;}
	.st11{font-family:'MyriadPro-Regular';}
	.st12{font-size:12px;}
	.st13{fill:none;stroke:#000000;stroke-width:0.25;stroke-miterlimit:10;}
</style>
<circle class="st0" cx="969.2" cy="933.2" r="145"/>
<g>
	<g>
		<g id="jazsvg_4_">
			<ellipse class="st1" cx="740.8" cy="942" rx="97.6" ry="134.5"/>
		</g>
		<g id="jazsvg_5_">
			<ellipse class="st1" cx="1180.1" cy="942" rx="97.6" ry="134.5"/>
		</g>
		<ellipse class="st2" cx="960.5" cy="134.8" rx="97.6" ry="134.5"/>
		<line class="st3" x1="862.9" y1="134.8" x2="1058.1" y2="134.8"/>
		<polygon class="st4" points="869.7,183 1052.6,88.7 1271,894 1088.1,988.2 		"/>
		<polygon class="st4" points="649,893.2 867.5,87.9 1050.4,182.1 831.9,987.4 		"/>
	</g>
	<g id="jazsvg_3_">
		<ellipse class="st5" cx="961.8" cy="945.7" rx="97.6" ry="134.5"/>
	</g>
	<g>
		<ellipse class="st6" cx="1822.9" cy="941.8" rx="97.6" ry="134.7"/>
		<ellipse class="st6" cx="1378.1" cy="942" rx="97.6" ry="134.5"/>
		<ellipse class="st6" cx="1170.7" cy="135" rx="97.6" ry="134.5"/>
		<ellipse class="st6" cx="1599.1" cy="134.8" rx="97.6" ry="134.5"/>
		<rect x="1169.3" y="0.2" class="st6" width="442.3" height="269.1"/>
		<rect x="1376.6" y="807.3" class="st6" width="442.3" height="269.1"/>
		<polygon class="st7" points="1287.5,895.1 1505.9,89.8 1688.8,184.1 1470.4,989.3 		"/>
	</g>
	<g>
		<g>
			<g id="jazsvg_10_">
				<ellipse class="st8" cx="750.3" cy="134.8" rx="97.6" ry="134.5"/>
			</g>
			<line class="st9" x1="847.9" y1="134.8" x2="652.7" y2="134.8"/>
			<line class="st9" x1="750.3" y1="269.3" x2="750.3" y2="0.2"/>
		</g>
		<rect x="98.1" y="807.4" class="st8" width="432.7" height="269.1"/>
		<g>
			<g id="jazsvg_8_">
				<ellipse class="st8" cx="530.7" cy="942" rx="97.6" ry="134.5"/>
			</g>
			<line class="st9" x1="628.3" y1="942" x2="433" y2="942"/>
			<line class="st9" x1="530.7" y1="1076.5" x2="530.7" y2="807.4"/>
		</g>
		<g>
			<g id="jazsvg_11_">
				<ellipse class="st8" cx="98.1" cy="942" rx="97.6" ry="134.5"/>
			</g>
			<line class="st9" x1="195.7" y1="942" x2="0.5" y2="942"/>
			<line class="st9" x1="98.1" y1="1076.5" x2="98.1" y2="807.4"/>
		</g>
		<polygon class="st7" points="439.8,895 658.3,89.7 841.2,183.9 622.7,989.2 		"/>
	</g>
</g>
<circle class="st0" cx="970" cy="145" r="145"/>
<circle class="st0" cx="1549.5" cy="145.5" r="145"/>
<circle class="st0" cx="1259.5" cy="145.5" r="145"/>
<circle class="st0" cx="144.7" cy="933.7" r="145"/>
<g>
	<circle class="st10" cx="679.5" cy="145.5" r="145"/>
	<circle class="st10" cx="431.7" cy="933.7" r="145"/>
</g>
<circle class="st0" cx="1774.7" cy="933.7" r="145"/>
<circle class="st0" cx="1486.7" cy="933.7" r="145"/>
<circle class="st0" cx="721.5" cy="933.5" r="145"/>
<circle class="st0" cx="1199.5" cy="935.5" r="145"/>
<path class="st10" d="M220,1000"/>
<path class="st10" d="M200,420"/>
<path class="st10" d="M240,480"/>
<text transform="matrix(1 0 0 1 160 350)" class="st11 st12">Lorem ipsum</text>
<g>
	<polygon class="st13" points="118,471.9 383.3,472.1 382.4,530.7 117.1,530.8 118,471.9 	"/>
</g>
</svg>
