<?xml version="1.0" encoding="utf-8"?>
<!-- Generator: Adobe Illustrator 28.1.0, SVG Export Plug-In . SVG Version: 6.00 Build 0)  -->
<svg version="1.1" id="Layer_1" xmlns="http://www.w3.org/2000/svg" xmlns:xlink="http://www.w3.org/1999/xlink" x="0px" y="0px"
	 viewBox="0 0 788 425" style="enable-background:new 0 0 788 425;" xml:space="preserve">
<style type="text/css">
	.st0{fill:#426C6C;stroke:#FFFFFF;stroke-miterlimit:10;}
	.st1{fill:none;stroke:#FFFFFF;stroke-miterlimit:10;}
	.st2{fill:#4B678D;stroke:#FFFFFF;stroke-miterlimit:10;}
	.st3{fill:#6FA288;stroke:#FFFFFF;stroke-miterlimit:10;}
	.st4{fill:#6FA289;stroke:#FFFFFF;stroke-miterlimit:10;}
	.st5{fill:none;stroke:#34E700;stroke-width:5;stroke-miterlimit:10;}
	.st6{fill:none;stroke:#FFFFFF;stroke-width:5;stroke-miterlimit:10;}
</style>
<g>
	<rect x="73.5" y="284.8" class="st0" width="321.9" height="140"/>
	<line class="st1" x1="73.2" y1="355" x2="396" y2="355"/>
	<line class="st1" x1="234.1" y1="284.8" x2="235.5" y2="424.8"/>
</g>
<g>
	<rect x="395.1" y="284.8" class="st0" width="321.9" height="140"/>
	<line class="st1" x1="394.8" y1="355" x2="717.5" y2="355"/>
	<line class="st1" x1="555.7" y1="284.8" x2="557.1" y2="424.8"/>
</g>
<g>
	<circle class="st0" cx="72.8" cy="354.8" r="70"/>
	<g>
		<line class="st1" x1="72.5" y1="284.8" x2="72.5" y2="424.8"/>
		<line class="st1" x1="2.6" y1="355.2" x2="142.6" y2="355.2"/>
	</g>
</g>
<g>
	<circle class="st0" cx="718" cy="354.5" r="70"/>
	<g>
		<line class="st1" x1="717.8" y1="284.5" x2="717.8" y2="424.5"/>
		<line class="st1" x1="647.8" y1="354.9" x2="787.8" y2="354.9"/>
	</g>
</g>
<circle class="st0" cx="557.8" cy="75" r="70"/>
<circle class="st0" cx="394.9" cy="350.8" r="70"/>
<rect x="317.4" y="141.2" transform="matrix(0.5 -0.866 0.866 0.5 55.7593 519.0206)" class="st0" width="320" height="140"/>
<circle class="st0" cx="395" cy="350.8" r="70"/>
<circle class="st2" cx="558.4" cy="75" r="70"/>
<rect x="317.4" y="143.3" transform="matrix(0.5 -0.866 0.866 0.5 53.9609 520.0815)" class="st2" width="320" height="140"/>
<circle class="st0" cx="234.9" cy="75" r="70"/>
<rect x="317.3" y="142.8" transform="matrix(0.5 -0.866 0.866 0.5 54.3307 519.7875)" class="st2" width="320" height="140"/>
<circle class="st0" cx="557.8" cy="75" r="70"/>
<g>
	<rect x="233.7" y="5.3" class="st0" width="322" height="140"/>
	<line class="st1" x1="233.4" y1="75.5" x2="556.2" y2="75.5"/>
	<line class="st1" x1="394.3" y1="5.3" x2="395.7" y2="145.3"/>
</g>
<g>
	<rect x="233.9" y="284.8" class="st1" width="322" height="140"/>
	<line class="st1" x1="233.6" y1="355" x2="556.4" y2="355"/>
	<line class="st1" x1="394.5" y1="284.8" x2="395.9" y2="424.8"/>
</g>
<polygon class="st1" points="395,75.5 233.6,355 556.4,355 "/>
<g>
	<line class="st1" x1="234.4" y1="5.1" x2="234.4" y2="145.1"/>
	<line class="st1" x1="164.5" y1="75.5" x2="304.5" y2="75.5"/>
</g>
<g>
	<line class="st1" x1="556.2" y1="5.1" x2="556.2" y2="145.1"/>
	<line class="st1" x1="486.3" y1="75.5" x2="626.3" y2="75.5"/>
</g>
<g>
	<rect x="153.1" y="145.6" transform="matrix(0.5 -0.866 0.866 0.5 -29.672 379.8162)" class="st3" width="322" height="140"/>
	<line class="st1" x1="233.6" y1="355.4" x2="395" y2="75.8"/>
	<line class="st1" x1="253.3" y1="180.9" x2="375.2" y2="249.7"/>
</g>
<g>
	<rect x="405.5" y="54.6" transform="matrix(0.866 -0.5 0.5 0.866 -44.1025 266.6418)" class="st3" width="140" height="322"/>
	<line class="st1" x1="394.7" y1="76" x2="556.1" y2="355.6"/>
	<line class="st1" x1="536" y1="180.2" x2="415.4" y2="251.5"/>
</g>
<g>
	<circle class="st4" cx="556.1" cy="354.8" r="70"/>
	<g>
		<line class="st1" x1="555.9" y1="284.8" x2="555.9" y2="424.8"/>
		<line class="st1" x1="486" y1="355.2" x2="626" y2="355.2"/>
	</g>
</g>
<g>
	<circle class="st4" cx="235.1" cy="354.8" r="70"/>
	<g>
		<line class="st1" x1="234.8" y1="284.8" x2="234.8" y2="424.8"/>
		<line class="st1" x1="164.9" y1="355.2" x2="304.9" y2="355.2"/>
	</g>
</g>
<g>
	<circle class="st4" cx="395.8" cy="75" r="70"/>
	<g>
		<line class="st1" x1="395.5" y1="5" x2="395.5" y2="145"/>
		<line class="st1" x1="325.6" y1="75.4" x2="465.6" y2="75.4"/>
	</g>
</g>
<rect x="317.4" y="142.8" transform="matrix(0.5 -0.866 0.866 0.5 54.3606 519.8383)" class="st0" width="320" height="140"/>
<line class="st5" x1="233.4" y1="76" x2="590" y2="76"/>
<line class="st6" x1="70" y1="355.6" x2="360" y2="355.6"/>
<line class="st6" x1="360" y1="355.6" x2="504.2" y2="85.8"/>
<line class="st6" x1="428.6" y1="346.6" x2="590" y2="67"/>
<line class="st6" x1="425.6" y1="354.5" x2="717" y2="354.5"/>
</svg>
