<?xml version="1.0" encoding="utf-8"?>
<!-- Generator: Adobe Illustrator 25.0.0, SVG Export Plug-In . SVG Version: 6.00 Build 0)  -->
<svg version="1.1" id="Layer_1" xmlns="http://www.w3.org/2000/svg" xmlns:xlink="http://www.w3.org/1999/xlink" x="0px" y="0px"
	 viewBox="0 0 1440 792" style="enable-background:new 0 0 1440 792;" xml:space="preserve">
<style type="text/css">
	.st0{fill:#FFFFF0;stroke:#FFECD1;stroke-miterlimit:10;}
	.st1{fill:#FFFFF0;stroke:#FFECD1;stroke-width:26;stroke-linecap:round;stroke-miterlimit:10;}
	.st2{fill:none;stroke:#FFECD1;stroke-width:26;stroke-linecap:round;stroke-miterlimit:10;}
	.st3{fill:none;stroke:#FFECD1;stroke-width:27;stroke-linecap:round;stroke-miterlimit:10;}
	.st4{fill:#F4F8F2;stroke:#F4F8F2;stroke-width:2;stroke-miterlimit:10;}
	.st5{fill:#F4F8F2;stroke:#F4F8F2;stroke-miterlimit:10;}
	.st6{fill:#F4F8F2;stroke:#F4F8F2;stroke-width:1;stroke-miterlimit:10.0006;}
	.st7{fill:#0C3A64;stroke:#0C3A64;stroke-width:2;stroke-miterlimit:10;}
	.st8{fill:#336699;stroke:#336699;stroke-miterlimit:10;}
	.st9{fill:#336699;stroke:#336699;stroke-width:1;stroke-miterlimit:10.0006;}
	.st10{fill:#336699;stroke:#336699;stroke-width:2;stroke-miterlimit:10;}
</style>
<g>
	<circle class="st0" cx="993" cy="628" r="13"/>
	<g>
		<path class="st1" d="M1183,725.6c0-24.5,21.6-44.3,48.4-44.3"/>
		<path class="st1" d="M1282.2,725.6c0-24.5-21.6-44.3-48.4-44.3"/>
		<line class="st2" x1="1182.5" y1="681.3" x2="1182.5" y2="778.8"/>
		<line class="st2" x1="1282.5" y1="726.1" x2="1282.5" y2="781.3"/>
	</g>
	<line class="st3" x1="994" y1="678" x2="994" y2="778"/>
	<g>
		<path class="st1" d="M1138.5,728c0-27.4-22.5-49.5-50.3-49.5"/>
		<path class="st1" d="M1139,729c0,27.4-22.9,49.5-51.3,49.5"/>
		<path class="st1" d="M1039.5,728c0-27.4,22.5-49.5,50.3-49.5"/>
		<path class="st1" d="M1039,729c0,27.4,22.9,49.5,51.3,49.5"/>
	</g>
	<line class="st2" x1="923.4" y1="649.5" x2="923.4" y2="749.5"/>
	<line class="st2" x1="900.5" y1="677.2" x2="947.5" y2="677.2"/>
	<path class="st1" d="M923.5,749.1c0,16.6,10.3,30,23,30"/>
	<g>
		<path class="st1" d="M860,734.8c0,24.1-21.6,43.6-48.4,43.6"/>
		<path class="st1" d="M760.8,734.8c0,24.1,21.6,43.6,48.4,43.6"/>
		<line class="st2" x1="860.5" y1="776.6" x2="860.5" y2="678.4"/>
		<line class="st2" x1="760.5" y1="733.3" x2="760.5" y2="679.1"/>
	</g>
	<line class="st3" x1="720" y1="628.4" x2="720" y2="778.4"/>
	<g>
		<path class="st1" d="M12.6,723.2c0-24.5,21.6-44.3,48.4-44.3"/>
		<path class="st1" d="M111.8,723.2c0-24.5-21.6-44.3-48.4-44.3"/>
		<line class="st2" x1="12.1" y1="678.8" x2="12.1" y2="776.4"/>
		<line class="st2" x1="112.1" y1="723.7" x2="112.1" y2="778.8"/>
	</g>
	<g>
		<line class="st2" x1="315" y1="650" x2="315" y2="750"/>
		<line class="st2" x1="291.5" y1="677.7" x2="337.8" y2="677.7"/>
		<path class="st1" d="M315,750c0,16.1,11.6,29.2,26,29.2"/>
	</g>
	<g>
		<path class="st1" d="M158,729c0-27.4,22.8-49.5,51-49.5"/>
		<path class="st1" d="M158,730c0,27.4,22.8,49.5,51,49.5"/>
		<path class="st1" d="M258,729c0-27.4-22.8-49.5-51-49.5"/>
		<line class="st2" x1="158" y1="729.3" x2="254.2" y2="729.3"/>
		<path class="st1" d="M256.6,762.7c0,9.3-21.9,16.8-49,16.8"/>
	</g>
	<circle class="st0" cx="385" cy="728" r="19.5"/>
	<g>
		<path class="st1" d="M678,728.5c0-27.4-22.5-49.5-50.3-49.5"/>
		<path class="st1" d="M678.5,729.5c0,27.4-22.9,49.5-51.3,49.5"/>
		<path class="st1" d="M579,728.5c0-27.4,22.5-49.5,50.3-49.5"/>
		<path class="st1" d="M578.5,729.5c0,27.4,22.9,49.5,51.3,49.5"/>
	</g>
	<g>
		<path class="st1" d="M540.1,703c0-14.4-22.4-26-50-26"/>
		<path class="st1" d="M438,703c0-14.4,22.4-26,50-26"/>
		<path class="st1" d="M438,702c0,14.4,22.4,26,50,26"/>
		<path class="st1" d="M540.1,753c0,14.4-22.4,26-50,26"/>
		<path class="st1" d="M540.1,754c0-14.4-22.4-26-50-26"/>
		<path class="st1" d="M438,752.8c0,14.4,22.4,26,50,26"/>
	</g>
	<g>
		<path class="st1" d="M1427,705c0-14.1-21.9-25.5-49-25.5"/>
		<path class="st1" d="M1327,705c0-14.1,21.9-25.5,49-25.5"/>
		<path class="st1" d="M1327,704c0,14.1,21.9,25.5,49,25.5"/>
		<path class="st1" d="M1427,754c0,14.1-21.9,25.5-49,25.5"/>
		<path class="st1" d="M1427,755c0-14.1-21.9-25.5-49-25.5"/>
		<path class="st1" d="M1327,753.8c0,14.1,21.9,25.5,49,25.5"/>
	</g>
</g>
<g>
	<g id="jazsvg_4_">
		<circle class="st4" cx="558" cy="504" r="72"/>
	</g>
	<g id="jazsvg_5_">
		<circle class="st4" cx="882" cy="504" r="72"/>
	</g>
	<circle class="st5" cx="720" cy="72" r="72"/>
	<line class="st5" x1="648" y1="72" x2="792" y2="72"/>
	<rect x="729" y="58" transform="matrix(0.9367 -0.3502 0.3502 0.9367 -50.153 298.7505)" class="st6" width="144" height="460.1"/>
	
		<rect x="408.2" y="215.7" transform="matrix(0.3502 -0.9367 0.9367 0.3502 145.2664 784.7212)" class="st6" width="460.1" height="144"/>
</g>
<g id="jazsvg_3_">
	<circle class="st7" cx="721" cy="506" r="72"/>
</g>
<g>
	<ellipse class="st8" cx="1356" cy="503.9" rx="72" ry="72.1"/>
	<ellipse class="st8" cx="1028" cy="504" rx="72" ry="72"/>
	<ellipse class="st8" cx="875" cy="72.1" rx="72" ry="72"/>
	<ellipse class="st8" cx="1191" cy="72" rx="72" ry="72"/>
	<rect x="874" class="st8" width="326.2" height="144"/>
	<rect x="1026.9" y="431.9" class="st8" width="326.2" height="144"/>
	
		<rect x="879.1" y="216.6" transform="matrix(0.3502 -0.9367 0.9367 0.3502 450.3968 1226.5236)" class="st9" width="460.1" height="144"/>
</g>
<g>
	<g>
		<g id="jazsvg_10_">
			<circle class="st10" cx="565" cy="72" r="72"/>
		</g>
		<line class="st10" x1="637" y1="72" x2="493" y2="72"/>
		<line class="st10" x1="565" y1="144" x2="565" y2="0"/>
	</g>
	<rect x="84" y="432" class="st10" width="319.1" height="144"/>
	<g>
		<g id="jazsvg_8_">
			<circle class="st10" cx="403" cy="504" r="72"/>
		</g>
		<line class="st10" x1="475" y1="504" x2="331" y2="504"/>
		<line class="st10" x1="403" y1="576" x2="403" y2="432"/>
	</g>
	<g>
		<g id="jazsvg_11_">
			<circle class="st10" cx="84" cy="504" r="72"/>
		</g>
		<line class="st10" x1="156" y1="504" x2="12" y2="504"/>
		<line class="st10" x1="84" y1="576" x2="84" y2="432"/>
	</g>
	
		<rect x="254" y="216.6" transform="matrix(0.3502 -0.9367 0.9367 0.3502 44.1678 640.9106)" class="st9" width="460.1" height="144"/>
</g>
</svg>
