<?xml version="1.0" encoding="utf-8"?>
<!-- Generator: Adobe Illustrator 27.6.1, SVG Export Plug-In . SVG Version: 6.00 Build 0)  -->
<svg version="1.1" id="Layer_1" xmlns="http://www.w3.org/2000/svg" xmlns:xlink="http://www.w3.org/1999/xlink" x="0px" y="0px"
	 viewBox="0 0 1416 576" style="enable-background:new 0 0 1416 576;" xml:space="preserve">
<style type="text/css">
	.st0{fill:#FFFFDB;}
	.st1{fill:none;}
	.st2{fill:#DEB841;}
</style>
<g>
	<g id="jazsvg_4_">
		<circle class="st0" cx="547" cy="503.7" r="72"/>
	</g>
	<g id="jazsvg_5_">
		<circle class="st0" cx="871" cy="503.7" r="72"/>
	</g>
	<circle class="st0" cx="709" cy="71.7" r="72"/>
	<line class="st1" x1="637" y1="71.7" x2="781" y2="71.7"/>
	
		<rect x="718" y="57.7" transform="matrix(0.9367 -0.3502 0.3502 0.9367 -50.7444 294.8791)" class="st0" width="144" height="460.1"/>
	
		<rect x="397.3" y="215.4" transform="matrix(0.3502 -0.9367 0.9367 0.3502 138.457 774.3335)" class="st0" width="460.1" height="144"/>
</g>
<g id="jazsvg_3_">
	<circle class="st2" cx="710" cy="505" r="72"/>
</g>
<g>
	<ellipse class="st2" cx="1345" cy="502.9" rx="72" ry="72.1"/>
	<ellipse class="st2" cx="1017" cy="503" rx="72" ry="72"/>
	<ellipse class="st2" cx="864" cy="71.1" rx="72" ry="72"/>
	<ellipse class="st2" cx="1180" cy="71" rx="72" ry="72"/>
	<rect x="863" y="-1" class="st2" width="326.2" height="144"/>
	<rect x="1015.9" y="430.9" class="st2" width="326.2" height="144"/>
	
		<rect x="868.1" y="215.5" transform="matrix(0.3502 -0.9367 0.9367 0.3502 444.2592 1215.4695)" class="st2" width="460.1" height="144"/>
</g>
<g>
	<g>
		<g id="jazsvg_10_">
			<circle class="st2" cx="554" cy="71" r="72"/>
		</g>
		<line class="st1" x1="626" y1="71" x2="482" y2="71"/>
		<line class="st1" x1="554" y1="143" x2="554" y2="-1"/>
	</g>
	<rect x="73" y="431" class="st2" width="319.1" height="144"/>
	<g>
		<g id="jazsvg_8_">
			<circle class="st2" cx="392" cy="503" r="72"/>
		</g>
		<line class="st1" x1="464" y1="503" x2="320" y2="503"/>
		<line class="st1" x1="392" y1="575" x2="392" y2="431"/>
	</g>
	<g>
		<g id="jazsvg_11_">
			<circle class="st2" cx="73" cy="503" r="72"/>
		</g>
		<line class="st1" x1="145" y1="503" x2="1" y2="503"/>
		<line class="st1" x1="73" y1="575" x2="73" y2="431"/>
	</g>
	
		<rect x="243" y="215.5" transform="matrix(0.3502 -0.9367 0.9367 0.3502 38.1253 629.8859)" class="st2" width="460.1" height="144"/>
</g>
</svg>
